<svg xmlns="http://www.w3.org/2000/svg" width="18.861" height="11.993" viewBox="0 0 18.861 11.993">
  <path id="Icon" d="M18,11.993H13.563a2.579,2.579,0,0,0,.154-.858V9.851a3.551,3.551,0,0,0-1.654-2.924l-.009-.011a.079.079,0,0,0-.025-.024c.351-.029.615-.042.831-.042,2.095,0,6,1.031,6,3v1.285A.859.859,0,0,1,18,11.993Zm-6.859,0H.857A.858.858,0,0,1,0,11.136V9.851c0-1.97,3.907-3,6-3s6,1.031,6,3v1.285A.859.859,0,0,1,11.145,11.993ZM12.86,5.126a2.563,2.563,0,1,1,2.571-2.563A2.571,2.571,0,0,1,12.86,5.126ZM6,5.126A2.563,2.563,0,1,1,8.573,2.563,2.571,2.571,0,0,1,6,5.126Z" transform="translate(0 0)" fill="#000"/>
</svg>
