<svg width="32" height="32" viewBox="0 0 32 32" fill="none" xmlns="http://www.w3.org/2000/svg">
<g clip-path="url(#clip0)">
<path d="M26.4004 31.3951H5.9445C4.82594 31.3951 3.98206 30.3796 4.18681 29.2799L7.32738 15.3336C7.485 14.487 8.22388 13.873 9.08506 13.873H29.5409C30.6595 13.873 31.5034 14.8885 31.2986 15.9882L28.158 29.9345C28.0004 30.7811 27.2616 31.3951 26.4004 31.3951Z" fill="#BDF4E3"/>
<path d="M26.4004 31.3951H5.9445C4.82594 31.3951 3.98206 30.3796 4.18681 29.2799L7.32738 15.3336C7.485 14.487 8.22388 13.873 9.08506 13.873H29.5409C30.6595 13.873 31.5034 14.8885 31.2986 15.9882L28.158 29.9345C28.0004 30.7811 27.2616 31.3951 26.4004 31.3951Z" fill="#B1B7E3"/>
<path d="M25.4005 31.3033H4.9429C4.20565 31.3033 3.64471 30.6415 3.76559 29.9142L6.35146 13.0212C6.44715 12.4455 6.94515 12.0234 7.52878 12.0234H27.9864C28.7236 12.0234 29.2846 12.6852 29.1637 13.4126L26.5778 30.3055C26.4821 30.8812 25.9841 31.3033 25.4005 31.3033Z" fill="white"/>
<path d="M25.4005 31.3033H4.9429C4.20565 31.3033 3.64471 30.6415 3.76559 29.9142L6.35146 13.0212C6.44715 12.4455 6.94515 12.0234 7.52878 12.0234H27.9864C28.7236 12.0234 29.2846 12.6852 29.1637 13.4126L26.5778 30.3055C26.4821 30.8812 25.9841 31.3033 25.4005 31.3033Z" fill="#FFBFFC"/>
<path d="M23.8153 31.3033H2.38465C1.86296 31.3033 1.46415 30.8382 1.54371 30.3226L3.72727 11.6664C3.79133 11.2515 4.1484 10.9453 4.56821 10.9453H25.9988C26.5205 10.9453 26.9193 11.4104 26.8397 11.926L24.6561 30.5822C24.5921 30.9971 24.2351 31.3033 23.8153 31.3033Z" fill="white"/>
<path d="M22.8405 31.3034H2.56902C1.5137 31.3034 0.658203 30.4479 0.658203 29.3925V15.0939C0.658203 14.0386 1.5137 13.1831 2.56902 13.1831H22.8405C23.8958 13.1831 24.7513 14.0386 24.7513 15.0939V29.3925C24.7513 30.4479 23.8958 31.3034 22.8405 31.3034Z" fill="#BDF4E3"/>
<path d="M22.8405 13.1831H19.772C20.6813 13.1831 21.4185 13.9202 21.4185 14.8296V27.1502C21.4185 28.0595 20.6813 28.7967 19.772 28.7967H2.3047C1.39539 28.7967 0.658203 28.0595 0.658203 27.1502V29.3925C0.658203 30.4479 1.5137 31.3034 2.56902 31.3034H22.8405C23.8958 31.3034 24.7513 30.4479 24.7513 29.3925V15.0939C24.7513 14.0386 23.8958 13.1831 22.8405 13.1831Z" fill="#B1B7E3"/>
<path d="M31.4015 14.1151C30.9442 13.5646 30.2731 13.2476 29.5582 13.2425C29.5645 12.864 29.4345 12.494 29.186 12.2007C28.8867 11.8475 28.4495 11.645 27.9866 11.645H27.4728C27.4423 11.3476 27.3227 11.0635 27.1239 10.8317C26.842 10.503 26.4319 10.3145 25.9989 10.3145H4.56835C3.83197 10.3145 3.21597 10.8426 3.10372 11.5704C3.10253 11.578 3.10153 11.5856 3.1006 11.5933L2.98835 12.5522H2.5691C1.16747 12.5522 0.0272217 13.6925 0.0272217 15.0941V29.3927C0.0272217 30.7943 1.16753 31.9346 2.5691 31.9346H26.4005C27.561 31.9346 28.5582 31.2011 28.7762 30.0625L31.9144 16.1269C31.9162 16.1192 31.9177 16.1115 31.9192 16.1038C32.0512 15.3947 31.8625 14.6699 31.4015 14.1151ZM28.6083 12.6903C28.7633 12.8733 28.8298 13.114 28.7897 13.3555L26.2045 30.2436C26.1687 30.4593 26.0512 30.6421 25.8871 30.7641H25.2642C25.2702 30.736 25.2756 30.7075 25.28 30.6787C25.2812 30.6711 25.2822 30.6635 25.2832 30.6558L27.4195 12.4023H27.9866C28.2265 12.4023 28.4532 12.5073 28.6083 12.6903ZM24.1203 21.088L17.0256 13.8144H22.8406C23.5462 13.8144 24.1203 14.3885 24.1203 15.0941V21.088H24.1203ZM4.35241 11.7551C4.37216 11.6512 4.46172 11.5766 4.56835 11.5766H25.999C26.0869 11.5766 26.1412 11.6246 26.1658 11.6533C26.1903 11.682 26.2296 11.7431 26.2162 11.83C26.215 11.8376 26.214 11.8452 26.2131 11.8528L25.3825 18.9495V15.0941C25.3825 13.6925 24.2422 12.5523 22.8406 12.5523H4.2591L4.35241 11.7551ZM2.5691 13.8144H8.19916L1.28941 21.0409V15.0941C1.28941 14.3885 1.86347 13.8144 2.5691 13.8144ZM2.5691 30.6725C1.86347 30.6725 1.28935 30.0985 1.28935 29.3928V22.8673L9.8716 13.8916C9.89485 13.8673 9.91503 13.8413 9.93366 13.8145H15.2755C15.2953 13.8429 15.317 13.8705 15.342 13.8961L24.0589 22.8326C24.0783 22.8526 24.099 22.8704 24.1203 22.8871V29.3928C24.1203 30.0984 23.5462 30.6725 22.8405 30.6725H2.5691ZM30.6802 15.8624L27.5425 29.796C27.5407 29.8037 27.5392 29.8114 27.5377 29.8191C27.4663 30.2028 27.2098 30.5121 26.8712 30.6633C26.9071 30.5676 26.935 30.4675 26.9524 30.363L29.3799 14.5043H29.541C29.886 14.5043 30.2103 14.6565 30.4308 14.9218C30.649 15.1843 30.7396 15.5266 30.6802 15.8624Z" fill="#440A29"/>
<path d="M15.2258 24.5752C15.0167 24.5752 14.8472 24.7448 14.8472 24.9538V25.7596C14.8472 25.9687 15.0167 26.1382 15.2258 26.1382C15.4349 26.1382 15.6044 25.9686 15.6044 25.7596V24.9538C15.6044 24.7447 15.4349 24.5752 15.2258 24.5752Z" fill="#440A29"/>
<path d="M21.0503 24.0752C20.8412 24.0752 20.6717 24.2448 20.6717 24.4538V25.2596C20.6717 25.4687 20.8413 25.6382 21.0503 25.6382C21.2594 25.6382 21.4289 25.4686 21.4289 25.2596V24.4538C21.429 24.2448 21.2594 24.0752 21.0503 24.0752Z" fill="#440A29"/>
<path d="M17.4411 25.9229C17.2319 25.9229 17.0624 26.0924 17.0624 26.3015V27.1072C17.0624 27.3164 17.232 27.4859 17.4411 27.4859C17.6501 27.4859 17.8197 27.3163 17.8197 27.1072V26.3015C17.8198 26.0924 17.6502 25.9229 17.4411 25.9229Z" fill="#440A29"/>
<path d="M4.15616 23.8491C4.00028 23.8491 3.8441 23.7917 3.7221 23.6761C3.46916 23.4362 3.45853 23.0368 3.69828 22.7839C3.97422 22.4928 4.26491 22.2206 4.54603 21.9574C4.87697 21.6476 5.18954 21.3549 5.47616 21.0373C5.70972 20.7786 6.10872 20.7582 6.36747 20.9917C6.62622 21.2253 6.6466 21.6243 6.4131 21.883C6.09085 22.24 5.7441 22.5647 5.40872 22.8788C5.12879 23.1409 4.86435 23.3884 4.61428 23.6523C4.49016 23.7831 4.32328 23.8491 4.15616 23.8491Z" fill="white"/>
<path d="M7.99797 20.0564C7.83509 20.0564 7.67228 19.9938 7.54878 19.8687C7.30391 19.6207 7.30653 19.221 7.55459 18.9762L7.78434 18.7494C8.03234 18.5045 8.43191 18.507 8.67678 18.755C8.92172 19.003 8.91916 19.4026 8.67116 19.6475L8.44128 19.8745C8.31834 19.9958 8.15809 20.0564 7.99797 20.0564Z" fill="white"/>
<path d="M19.7543 2.73892C19.9029 2.10996 19.5136 1.47956 18.8846 1.33089C18.2557 1.18221 17.6253 1.57156 17.4766 2.20052C17.3279 2.82948 17.7173 3.45988 18.3462 3.60856C18.9752 3.75723 19.6056 3.36788 19.7543 2.73892Z" fill="#78EAC4"/>
<path d="M26.6534 6.30675C26.9063 6.2019 27.0264 5.91184 26.9216 5.65889C26.8167 5.40593 26.5266 5.28587 26.2737 5.39072C26.0207 5.49557 25.9007 5.78563 26.0055 6.03858C26.1104 6.29154 26.4004 6.4116 26.6534 6.30675Z" fill="#78EAC4"/>
<path d="M9.28885 4.2166L9.68648 5.33466C9.70348 5.38253 9.73723 5.42047 9.77973 5.4396L10.7731 5.88716C10.9134 5.95041 10.9134 6.17397 10.7731 6.23722L9.77973 6.68478C9.73723 6.70391 9.70348 6.74185 9.68648 6.78972L9.28885 7.90778C9.23266 8.06572 9.03404 8.06572 8.97785 7.90778L8.58023 6.78972C8.56323 6.74185 8.52954 6.70391 8.48698 6.68478L7.4936 6.23722C7.35329 6.17397 7.35329 5.95041 7.4936 5.88716L8.48698 5.4396C8.52954 5.42041 8.56323 5.38247 8.58023 5.33466L8.97785 4.2166C9.03404 4.05866 9.23273 4.05866 9.28885 4.2166Z" fill="#BDF4E3"/>
<path d="M30.4106 6.18051L30.8082 7.29857C30.8252 7.34645 30.8589 7.38439 30.9015 7.40351L31.8949 7.85107C32.0352 7.91432 32.0352 8.13789 31.8949 8.20114L30.9015 8.6487C30.8589 8.66789 30.8252 8.70576 30.8082 8.75364L30.4106 9.8717C30.3544 10.0296 30.1558 10.0296 30.0996 9.8717L29.702 8.75364C29.685 8.70576 29.6512 8.66782 29.6087 8.6487L28.6154 8.20114C28.4751 8.13789 28.4751 7.91432 28.6154 7.85107L29.6087 7.40351C29.6513 7.38432 29.685 7.34639 29.702 7.29857L30.0996 6.18051C30.1557 6.02251 30.3544 6.02251 30.4106 6.18051Z" fill="#BDF4E3"/>
<path d="M2.61141 0.225125L3.15778 1.73237C3.18116 1.79687 3.22747 1.84806 3.28591 1.87387L4.65085 2.47719C4.84366 2.56244 4.84366 2.86387 4.65085 2.94906L3.28591 3.55244C3.22747 3.57825 3.18116 3.62944 3.15778 3.69394L2.61141 5.20119C2.53422 5.41412 2.26122 5.41412 2.18403 5.20119L1.63766 3.69394C1.61428 3.62944 1.56797 3.57825 1.50953 3.55244L0.144595 2.94912C-0.0482798 2.86387 -0.0482798 2.56244 0.144595 2.47725L1.50953 1.87394C1.56797 1.84812 1.61428 1.79694 1.63766 1.73244L2.18403 0.225187C2.26122 0.0121875 2.53422 0.0121875 2.61141 0.225125Z" fill="#BDF4E3"/>
</g>
<defs>
<clipPath id="clip0">
<rect width="32" height="32" fill="white"/>
</clipPath>
</defs>
</svg>
