<svg width="32" height="33" viewBox="0 0 32 33" fill="none" xmlns="http://www.w3.org/2000/svg">
<path d="M24.7672 31.4775H7.29249C6.40918 31.4775 5.69312 30.7615 5.69312 29.8782V5.70973C5.69312 4.82642 6.40918 4.11035 7.29249 4.11035H24.7672C25.6505 4.11035 26.3666 4.82642 26.3666 5.70973V29.8782C26.3666 30.7615 25.6505 31.4775 24.7672 31.4775Z" fill="white"/>
<path d="M24.7666 4.11035H22.1636C22.9264 4.11035 23.5447 4.72873 23.5447 5.49148V26.3617C23.5447 27.1245 22.9264 27.7428 22.1636 27.7428H7.07357C6.31082 27.7428 5.69244 27.1245 5.69244 26.3617V29.8782C5.69244 30.7615 6.40851 31.4775 7.29182 31.4775H24.7666C25.6499 31.4775 26.3659 30.7615 26.3659 29.8782V5.70973C26.366 4.82642 25.6499 4.11035 24.7666 4.11035Z" fill="#FFBFFC"/>
<path d="M24.7668 3.48438H7.29203C6.06491 3.48438 5.06653 4.48275 5.06653 5.70994V29.8783C5.06653 31.1055 6.06491 32.1039 7.29203 32.1039H24.7668C25.9939 32.1039 26.9923 31.1055 26.9923 29.8783V5.70994C26.9923 4.48275 25.9939 3.48438 24.7668 3.48438ZM25.74 29.8783C25.74 30.415 25.3034 30.8516 24.7668 30.8516H7.29203C6.75541 30.8516 6.31884 30.415 6.31884 29.8783V5.70994C6.31884 5.17325 6.75541 4.73669 7.29203 4.73669H24.7668C25.3034 4.73669 25.74 5.17325 25.74 5.70994V29.8783Z" fill="#440A29"/>
<path d="M21.1901 8.14387C21.3513 8.14493 21.5135 8.14543 21.6765 8.14543C22.0156 8.14543 22.3577 8.14312 22.6983 8.13849C22.9057 8.13574 23.0717 7.96524 23.0688 7.7578C23.0661 7.5503 22.8986 7.38449 22.6882 7.38724C22.1888 7.39399 21.6865 7.39562 21.1952 7.39243C21.1943 7.39243 21.1935 7.39243 21.1926 7.39243C20.9863 7.39243 20.8184 7.55899 20.817 7.76562C20.8157 7.97318 20.9827 8.14243 21.1901 8.14387Z" fill="#440A29"/>
<path d="M13.6983 8.14597C14.1552 8.14641 14.5905 8.14666 15.0078 8.14666C16.2448 8.14666 17.3231 8.14466 18.3329 8.14054C18.5404 8.13966 18.7079 7.97079 18.7071 7.76335C18.7063 7.55635 18.5383 7.38916 18.3315 7.38916C18.3309 7.38916 18.3304 7.38916 18.3299 7.38916C16.9808 7.39466 15.5094 7.39629 13.6991 7.3946C13.699 7.3946 13.6989 7.3946 13.6987 7.3946C13.4914 7.3946 13.3232 7.5626 13.3231 7.76991C13.3228 7.97741 13.4909 8.14579 13.6983 8.14597Z" fill="#440A29"/>
<path d="M9.33575 8.13859C10.2484 8.14127 11.1611 8.14315 12.0736 8.14433H12.0741C12.2814 8.14433 12.4496 7.9764 12.4498 7.76915C12.4501 7.56165 12.2821 7.39321 12.0746 7.39296C11.1624 7.39177 10.2502 7.38989 9.33793 7.38721C9.33756 7.38721 9.33718 7.38721 9.33681 7.38721C9.12981 7.38721 8.96175 7.55471 8.96112 7.76177C8.96056 7.96927 9.12825 8.13796 9.33575 8.13859Z" fill="#440A29"/>
<path d="M22.6933 13.3984H12.5554C12.3479 13.3984 12.1797 13.5666 12.1797 13.7741C12.1797 13.9816 12.3479 14.1498 12.5554 14.1498H22.6933C22.9007 14.1498 23.069 13.9816 23.069 13.7741C23.069 13.5667 22.9008 13.3984 22.6933 13.3984Z" fill="#440A29"/>
<path d="M22.6932 10.5884H8.86788C8.66038 10.5884 8.49219 10.7566 8.49219 10.9641C8.49219 11.1715 8.66038 11.3398 8.86788 11.3398H22.6932C22.9007 11.3398 23.0689 11.1715 23.0689 10.9641C23.0689 10.7566 22.9007 10.5884 22.6932 10.5884Z" fill="#440A29"/>
<path d="M9.34569 14.9891H10.0683C10.5388 14.9891 10.9218 14.6063 10.9218 14.1356V13.4131C10.9218 12.9425 10.5389 12.5596 10.0683 12.5596H9.34569C8.87506 12.5596 8.49213 12.9424 8.49213 13.4131V14.1356C8.49219 14.6063 8.87506 14.9891 9.34569 14.9891ZM9.24357 13.4131C9.24357 13.3568 9.28944 13.3109 9.34575 13.3109H10.0683C10.1246 13.3109 10.1704 13.3568 10.1704 13.4131V14.1356C10.1704 14.1919 10.1246 14.2378 10.0683 14.2378H9.34569C9.28938 14.2378 9.2435 14.1919 9.2435 14.1356V13.4131H9.24357Z" fill="#440A29"/>
<path d="M22.6933 16.0312H12.5554C12.3479 16.0312 12.1797 16.1994 12.1797 16.4069C12.1797 16.6144 12.3479 16.7826 12.5554 16.7826H22.6933C22.9007 16.7826 23.069 16.6144 23.069 16.4069C23.069 16.1994 22.9008 16.0312 22.6933 16.0312Z" fill="#440A29"/>
<path d="M9.34569 17.622H10.0683C10.5388 17.622 10.9218 17.2391 10.9218 16.7685V16.0459C10.9218 15.5753 10.5389 15.1924 10.0683 15.1924H9.34569C8.87506 15.1924 8.49213 15.5753 8.49213 16.0459V16.7685C8.49219 17.239 8.87506 17.622 9.34569 17.622ZM9.24357 16.0459C9.24357 15.9896 9.28944 15.9438 9.34575 15.9438H10.0683C10.1246 15.9438 10.1704 15.9896 10.1704 16.0459V16.7685C10.1704 16.8248 10.1246 16.8706 10.0683 16.8706H9.34569C9.28938 16.8706 9.2435 16.8248 9.2435 16.7685V16.0459H9.24357Z" fill="#440A29"/>
<path d="M22.6933 22.0703H12.5554C12.3479 22.0703 12.1797 22.2385 12.1797 22.446C12.1797 22.6535 12.3479 22.8217 12.5554 22.8217H22.6933C22.9007 22.8217 23.069 22.6535 23.069 22.446C23.069 22.2385 22.9008 22.0703 22.6933 22.0703Z" fill="#440A29"/>
<path d="M22.6932 19.2598H8.86788C8.66038 19.2598 8.49219 19.428 8.49219 19.6355C8.49219 19.843 8.66038 20.0111 8.86788 20.0111H22.6932C22.9007 20.0111 23.0689 19.843 23.0689 19.6355C23.0689 19.428 22.9007 19.2598 22.6932 19.2598Z" fill="#440A29"/>
<path d="M10.0683 21.231H9.34569C8.87506 21.231 8.49213 21.6138 8.49213 22.0845V22.807C8.49213 23.2776 8.875 23.6605 9.34569 23.6605H10.0683C10.5388 23.6605 10.9218 23.2777 10.9218 22.807V22.0845C10.9218 21.6138 10.5389 21.231 10.0683 21.231ZM10.1704 22.807C10.1704 22.8633 10.1246 22.9091 10.0683 22.9091H9.34569C9.28938 22.9091 9.2435 22.8633 9.2435 22.807V22.0845C9.2435 22.0281 9.28938 21.9823 9.34569 21.9823H10.0683C10.1246 21.9823 10.1704 22.0281 10.1704 22.0845V22.807Z" fill="#440A29"/>
<path d="M22.6933 24.7026H12.5554C12.3479 24.7026 12.1797 24.8708 12.1797 25.0783C12.1797 25.2858 12.3479 25.454 12.5554 25.454H22.6933C22.9007 25.454 23.069 25.2858 23.069 25.0783C23.069 24.8709 22.9008 24.7026 22.6933 24.7026Z" fill="#440A29"/>
<path d="M10.0683 23.8638H9.34569C8.87506 23.8638 8.49213 24.2466 8.49213 24.7173V25.4398C8.49213 25.9104 8.875 26.2933 9.34569 26.2933H10.0683C10.5388 26.2933 10.9218 25.9105 10.9218 25.4398V24.7173C10.9218 24.2467 10.5389 23.8638 10.0683 23.8638ZM10.1704 25.4398C10.1704 25.4961 10.1246 25.542 10.0683 25.542H9.34569C9.28938 25.542 9.2435 25.4961 9.2435 25.4398V24.7173C9.2435 24.661 9.28938 24.6151 9.34569 24.6151H10.0683C10.1246 24.6151 10.1704 24.661 10.1704 24.7173V25.4398Z" fill="#440A29"/>
<path d="M22.6933 27.3354H12.5554C12.3479 27.3354 12.1797 27.5036 12.1797 27.7111C12.1797 27.9186 12.3479 28.0868 12.5554 28.0868H22.6933C22.9007 28.0868 23.069 27.9186 23.069 27.7111C23.069 27.5037 22.9008 27.3354 22.6933 27.3354Z" fill="#440A29"/>
<path d="M10.0683 26.4966H9.34569C8.87506 26.4966 8.49213 26.8795 8.49213 27.3501V28.0726C8.49213 28.5432 8.875 28.9261 9.34569 28.9261H10.0683C10.5388 28.9261 10.9218 28.5433 10.9218 28.0726V27.3501C10.9218 26.8795 10.5389 26.4966 10.0683 26.4966ZM10.1704 28.0726C10.1704 28.129 10.1246 28.1748 10.0683 28.1748H9.34569C9.28938 28.1748 9.2435 28.129 9.2435 28.0726V27.3501C9.2435 27.2938 9.28938 27.248 9.34569 27.248H10.0683C10.1246 27.248 10.1704 27.2938 10.1704 27.3501V28.0726Z" fill="#440A29"/>
<path d="M5.88182 1.09746C6.1328 0.993429 6.25193 0.705638 6.1479 0.45466C6.04386 0.203682 5.75607 0.0845575 5.5051 0.188588C5.25412 0.292619 5.13499 0.580411 5.23902 0.831389C5.34305 1.08237 5.63085 1.20149 5.88182 1.09746Z" fill="#A183E2"/>
<path d="M1.88563 2.58094L2.28013 3.69026C2.29701 3.73776 2.33044 3.77538 2.37263 3.79438L3.3582 4.23845C3.49745 4.3012 3.49745 4.52301 3.3582 4.58576L2.37263 5.02976C2.33044 5.04876 2.29701 5.08639 2.28013 5.13389L1.88563 6.2432C1.82988 6.39989 1.63282 6.39989 1.57707 6.2432L1.1825 5.13389C1.16563 5.08639 1.13219 5.04876 1.09 5.02976L0.104438 4.5857C-0.0348126 4.52295 -0.0348126 4.30113 0.104438 4.23838L1.09 3.79438C1.13219 3.77538 1.16563 3.73776 1.1825 3.69026L1.577 2.58094C1.63275 2.42419 1.82988 2.42419 1.88563 2.58094Z" fill="#CAB4EF"/>
<path d="M29.8331 0.31127L30.3751 1.80671C30.3983 1.87071 30.4443 1.92146 30.5022 1.94709L31.8565 2.54571C32.0478 2.63028 32.0478 2.92934 31.8565 3.0139L30.5022 3.61253C30.4442 3.63815 30.3983 3.6889 30.3751 3.7529L29.8331 5.24834C29.7565 5.45966 29.4856 5.45966 29.4091 5.24834L28.867 3.7529C28.8438 3.6889 28.7978 3.63815 28.7399 3.61253L27.3856 3.0139C27.1943 2.92934 27.1943 2.63028 27.3856 2.54571L28.7399 1.94709C28.7979 1.92146 28.8438 1.87071 28.867 1.80671L29.4091 0.31127C29.4856 0.100019 29.7565 0.100019 29.8331 0.31127Z" fill="#CAB4EF"/>
</svg>
