<svg width="32" height="33" viewBox="0 0 32 33" fill="none" xmlns="http://www.w3.org/2000/svg">
<path d="M5.41358 11.3649C4.60725 11.3649 3.95355 10.7113 3.95355 9.90488V6.56208C3.95355 5.75575 4.60725 5.10205 5.41358 5.10205C6.21991 5.10205 6.87355 5.75569 6.87355 6.56208V9.90488C6.87355 10.7112 6.21991 11.3649 5.41358 11.3649Z" fill="#FFE266"/>
<path d="M26.4733 11.3649C25.667 11.3649 25.0133 10.7113 25.0133 9.90488V6.56208C25.0133 5.75575 25.6669 5.10205 26.4733 5.10205C27.2797 5.10205 27.9333 5.75569 27.9333 6.56208V9.90488C27.9333 10.7112 27.2797 11.3649 26.4733 11.3649Z" fill="#FFE266"/>
<path d="M29.4963 31.4936H2.5038C1.47398 31.4936 0.63916 30.6588 0.63916 29.6289V11.0595C0.63916 10.0296 1.47398 9.19482 2.5038 9.19482H29.4963C30.5261 9.19482 31.3609 10.0296 31.3609 11.0595V29.6289C31.3609 30.6588 30.5261 31.4936 29.4963 31.4936Z" fill="#FEF2A8"/>
<path d="M28.4404 29.5392H20.7947C20.3532 29.5392 19.9952 29.1812 19.9952 28.7397V12.8068C19.9952 12.3652 20.3532 12.0073 20.7947 12.0073H28.4404C28.882 12.0073 29.2399 12.3653 29.2399 12.8068V28.7397C29.2399 29.1812 28.882 29.5392 28.4404 29.5392Z" fill="white"/>
<path d="M3.15786 15.5142H17.6296C17.9184 15.5142 18.1525 15.7483 18.1525 16.0371V28.6737C18.1525 28.9625 17.9184 29.1966 17.6296 29.1966H3.15786C2.86904 29.1966 2.63495 28.9625 2.63495 28.6737V16.0371C2.63495 15.7483 2.86904 15.5142 3.15786 15.5142Z" fill="white"/>
<path d="M18.1526 18.3949V16.0371C18.1526 15.7483 17.9184 15.5142 17.6297 15.5142H3.15786C2.86904 15.5142 2.63495 15.7483 2.63495 16.0371V18.3949H18.1526Z" fill="#EF8BBD"/>
<path d="M29.4963 9.19482H26.0274C26.9118 9.19482 27.6286 9.91166 27.6286 10.7959V26.3101C27.6286 27.1943 26.9118 27.9112 26.0274 27.9112H2.24033C1.35599 27.9112 0.63916 27.1943 0.63916 26.3101V29.6289C0.63916 30.6587 1.47398 31.4935 2.5038 31.4935H29.4963C30.5261 31.4935 31.3609 30.6587 31.3609 29.6289V11.0595C31.3609 10.0296 30.5261 9.19482 29.4963 9.19482Z" fill="#EEB6A8"/>
<path d="M3.15786 29.197H17.6296C17.9184 29.197 18.1525 28.9629 18.1525 28.6741V27.9116H2.63495V28.6741C2.63495 28.9629 2.86904 29.197 3.15786 29.197Z" fill="#FFBFFC"/>
<path d="M28.4404 12.0073H27.6286V26.3105C27.6286 27.1948 26.9117 27.9117 26.0274 27.9117H19.9952V28.7397C19.9952 29.1812 20.3531 29.5392 20.7947 29.5392H28.4404C28.8819 29.5392 29.2399 29.1812 29.2399 28.7397V12.8068C29.2399 12.3653 28.8819 12.0073 28.4404 12.0073Z" fill="#FFBFFC"/>
<path d="M29.4962 8.55585H28.5725V6.56206C28.5725 5.40459 27.6308 4.46289 26.4733 4.46289C25.3158 4.46289 24.3742 5.40459 24.3742 6.56206V8.55585H7.51271V6.56206C7.51271 5.40459 6.57101 4.46289 5.4136 4.46289C4.2562 4.46289 3.3145 5.40459 3.3145 6.56206V8.55585H2.50378C1.1232 8.55585 0 9.67905 0 11.0596V29.6291C0 31.0096 1.1232 32.1328 2.50378 32.1328H29.4962C30.8768 32.1328 32 31.0096 32 29.629V11.0595C32 9.67899 30.8768 8.55585 29.4962 8.55585ZM25.6525 6.56206C25.6525 6.10938 26.0207 5.74111 26.4733 5.74111C26.926 5.74111 27.2942 6.10938 27.2942 6.56206V8.55585H25.6524V6.56206H25.6525ZM4.59271 6.56206C4.59271 6.10938 4.96092 5.74111 5.41354 5.74111C5.86622 5.74111 6.23443 6.10938 6.23443 6.56206V8.55585H4.59265V6.56206H4.59271ZM30.7218 29.629C30.7218 30.3048 30.172 30.8545 29.4962 30.8545H2.50378C1.82805 30.8545 1.27822 30.3048 1.27822 29.629V11.0595C1.27822 10.3838 1.82799 9.834 2.50378 9.834H29.4962C30.172 9.834 30.7218 10.3837 30.7218 11.0595V29.629Z" fill="#440A29"/>
<path d="M28.4403 11.6235H20.7946C20.1424 11.6235 19.6117 12.1542 19.6117 12.8065V28.7393C19.6117 29.3916 20.1424 29.9223 20.7946 29.9223H28.4403C29.0926 29.9223 29.6233 29.3916 29.6233 28.7393V12.8065C29.6233 12.1542 29.0927 11.6235 28.4403 11.6235ZM28.8564 28.7393C28.8564 28.9688 28.6698 29.1554 28.4404 29.1554H20.7946C20.5652 29.1554 20.3786 28.9687 20.3786 28.7393V12.8065C20.3786 12.577 20.5653 12.3905 20.7946 12.3905H28.4403C28.6698 12.3905 28.8564 12.577 28.8564 12.8065V28.7393H28.8564Z" fill="#440A29"/>
<path d="M17.6296 15.1309H3.15789C2.65814 15.1309 2.25153 15.5375 2.25153 16.0372V28.6738C2.25153 29.1736 2.65814 29.5803 3.15789 29.5803H17.6296C18.1295 29.5803 18.5361 29.1736 18.5361 28.6738V16.0372C18.5361 15.5375 18.1295 15.1309 17.6296 15.1309ZM3.15789 15.8978H17.6296C17.7065 15.8978 17.7692 15.9603 17.7692 16.0372V18.0723H3.01844V16.0372C3.01844 15.9603 3.08101 15.8978 3.15789 15.8978ZM8.2208 21.5235H10.0103V23.4409H8.2208V21.5235ZM7.45388 23.4408H5.66437V21.5234H7.45388V23.4408ZM10.0103 24.2077V26.125H8.2208V24.2077H10.0103ZM10.7773 24.2077H12.5668V26.125H10.7773V24.2077ZM10.7773 23.4408V21.5234H12.5668V23.4408H10.7773ZM13.3337 21.5235H15.1232V23.4409H13.3337V21.5235ZM13.3337 20.7565V18.8392H15.1232V20.7565H13.3337ZM12.5667 20.7565H10.7772V18.8392H12.5667V20.7565ZM10.0103 20.7565H8.2208V18.8392H10.0103V20.7565ZM7.45388 20.7565H5.66437V18.8392H7.45388V20.7565ZM4.89745 20.7565H3.01844V18.8392H4.89745V20.7565ZM4.89745 21.5235V23.4409H3.01844V21.5235H4.89745ZM4.89745 24.2077V26.125H3.01844V24.2077H4.89745ZM5.66437 24.2077H7.45388V26.125H5.66437V24.2077ZM7.45388 26.892V28.8133H5.66437V26.892H7.45388ZM8.2208 26.892H10.0103V28.8133H8.2208V26.892ZM10.7773 26.892H12.5668V28.8133H10.7773V26.892ZM13.3337 26.892H15.1232V28.8133H13.3337V26.892ZM13.3337 26.1251V24.2078H15.1232V26.1251H13.3337ZM15.8902 24.2077H17.7692V26.125H15.8902V24.2077ZM15.8902 23.4408V21.5234H17.7692V23.4408H15.8902ZM15.8902 20.7565V18.8392H17.7692V20.7565H15.8902ZM3.01844 28.6738V26.892H4.89745V28.8133H3.15789C3.08101 28.8133 3.01844 28.7507 3.01844 28.6738ZM17.6296 28.8133H15.8902V26.892H17.7692V28.6738C17.7692 28.7507 17.7065 28.8133 17.6296 28.8133Z" fill="#440A29"/>
<path d="M3.17734 13.7196H11.9405C12.1523 13.7196 12.324 13.5478 12.324 13.3361C12.324 13.1243 12.1523 12.9526 11.9405 12.9526H3.17734C2.96559 12.9526 2.79388 13.1243 2.79388 13.3361C2.79388 13.5478 2.96559 13.7196 3.17734 13.7196Z" fill="#440A29"/>
<path d="M14.7491 13.7196H17.4929C17.7046 13.7196 17.8763 13.5478 17.8763 13.3361C17.8763 13.1243 17.7046 12.9526 17.4929 12.9526H14.7491C14.5373 12.9526 14.3656 13.1243 14.3656 13.3361C14.3656 13.5478 14.5373 13.7196 14.7491 13.7196Z" fill="#440A29"/>
<path d="M27.3331 14.3184H21.902C21.6903 14.3184 21.5186 14.4901 21.5186 14.7018C21.5186 14.9136 21.6903 15.0853 21.902 15.0853H27.3331C27.5449 15.0853 27.7166 14.9136 27.7166 14.7018C27.7166 14.4901 27.5449 14.3184 27.3331 14.3184Z" fill="#440A29"/>
<path d="M27.3331 16.7759H21.902C21.6903 16.7759 21.5186 16.9476 21.5186 17.1593C21.5186 17.3711 21.6903 17.5428 21.902 17.5428H27.3331C27.5449 17.5428 27.7166 17.3711 27.7166 17.1593C27.7166 16.9476 27.5449 16.7759 27.3331 16.7759Z" fill="#440A29"/>
<path d="M27.3331 19.2334H21.902C21.6903 19.2334 21.5186 19.4051 21.5186 19.6169C21.5186 19.8286 21.6903 20.0003 21.902 20.0003H27.3331C27.5449 20.0003 27.7166 19.8286 27.7166 19.6169C27.7166 19.4051 27.5449 19.2334 27.3331 19.2334Z" fill="#440A29"/>
<path d="M27.3331 21.6909H21.902C21.6903 21.6909 21.5186 21.8626 21.5186 22.0744C21.5186 22.2861 21.6903 22.4578 21.902 22.4578H27.3331C27.5449 22.4578 27.7166 22.2861 27.7166 22.0744C27.7166 21.8626 27.5449 21.6909 27.3331 21.6909Z" fill="#440A29"/>
<path d="M27.3331 24.1484H21.902C21.6903 24.1484 21.5186 24.3201 21.5186 24.5319C21.5186 24.7436 21.6903 24.9154 21.902 24.9154H27.3331C27.5449 24.9154 27.7166 24.7436 27.7166 24.5319C27.7166 24.3201 27.5449 24.1484 27.3331 24.1484Z" fill="#440A29"/>
<path d="M27.3331 26.6064H21.902C21.6903 26.6064 21.5186 26.7782 21.5186 26.9899C21.5186 27.2017 21.6903 27.3734 21.902 27.3734H27.3331C27.5449 27.3734 27.7166 27.2017 27.7166 26.9899C27.7166 26.7782 27.5449 26.6064 27.3331 26.6064Z" fill="#440A29"/>
<path d="M6.40975 11.7973C6.06231 11.7973 5.77745 11.5189 5.77099 11.17C5.76446 10.817 6.04531 10.5257 6.3982 10.5192C7.04977 10.5072 7.62502 10.5073 8.26321 10.5192C8.61611 10.5258 8.89683 10.8173 8.89018 11.1703C8.88359 11.5232 8.59038 11.8034 8.23911 11.7972C7.61742 11.7855 7.05686 11.7855 6.4218 11.7972C6.41778 11.7972 6.4137 11.7973 6.40975 11.7973Z" fill="white"/>
<path d="M3.62471 11.7973H3.24107C2.88811 11.7973 2.60193 11.5111 2.60193 11.1582C2.60193 10.8052 2.88811 10.519 3.24107 10.519H3.62471C3.97767 10.519 4.26379 10.8052 4.26379 11.1582C4.26379 11.5111 3.97761 11.7973 3.62471 11.7973Z" fill="white"/>
<path d="M19.1572 5.10184C19.1572 5.75648 18.6265 6.28717 17.9718 6.28717C17.3172 6.28717 16.7865 5.75648 16.7865 5.10184C16.7865 4.4472 17.3172 3.9165 17.9718 3.9165C18.6265 3.9165 19.1572 4.4472 19.1572 5.10184Z" fill="#FFE266"/>
<path d="M3.16088 1.48681C3.16088 1.76408 2.93614 1.98882 2.65893 1.98882C2.38166 1.98882 2.15692 1.76408 2.15692 1.48681C2.15692 1.20954 2.38166 0.984863 2.65893 0.984863C2.93614 0.984863 3.16088 1.2096 3.16088 1.48681Z" fill="#FFE266"/>
<path d="M23.5364 0.11998L23.9391 1.25228C23.9563 1.30073 23.9904 1.3392 24.0335 1.35859L25.0395 1.81184C25.1816 1.87585 25.1816 2.10229 25.0395 2.16637L24.0335 2.61961C23.9905 2.63901 23.9563 2.67741 23.9391 2.72593L23.5364 3.85823C23.4795 4.0182 23.2783 4.0182 23.2214 3.85823L22.8187 2.72593C22.8015 2.67741 22.7674 2.63901 22.7243 2.61961L21.7183 2.16637C21.5762 2.10235 21.5762 1.87592 21.7183 1.81184L22.7243 1.35859C22.7673 1.3392 22.8015 1.30079 22.8187 1.25228L23.2214 0.11998C23.2783 -0.0399933 23.4795 -0.0399933 23.5364 0.11998Z" fill="#FEF2A8"/>
<path d="M11.5241 1.08312L12.0773 2.60954C12.1011 2.67488 12.148 2.72672 12.2071 2.75289L13.5894 3.36391C13.7847 3.4502 13.7847 3.75553 13.5894 3.84182L12.2071 4.45284C12.148 4.47901 12.1011 4.53079 12.0773 4.59612L11.5241 6.12255C11.4459 6.33819 11.1695 6.33819 11.0913 6.12255L10.538 4.59612C10.5143 4.53079 10.4674 4.47895 10.4082 4.45284L9.02594 3.84182C8.83063 3.75553 8.83063 3.4502 9.02594 3.36391L10.4082 2.75289C10.4674 2.72672 10.5143 2.67494 10.538 2.60954L11.0913 1.08312C11.1695 0.867477 11.4459 0.867477 11.5241 1.08312Z" fill="#FEF2A8"/>
</svg>
