<svg width="30" height="32" viewBox="0 0 30 32" fill="none" xmlns="http://www.w3.org/2000/svg">
<path d="M23.3818 28.0256L18.358 28.7921C17.8031 28.7085 17.3899 28.2101 17.4473 27.652C17.5086 27.056 18.0537 26.6385 18.6394 26.7266L22.8697 26.1043C23.2774 26.0443 23.598 25.7248 23.6593 25.3173L24.8917 17.1373C24.9752 16.5823 25.4737 16.1691 26.0318 16.2265C26.6278 16.2878 27.0453 16.833 26.9572 17.4186L25.7108 25.6921C25.5295 26.8961 24.5855 27.8419 23.3818 28.0256Z" fill="#B2E7F1"/>
<path d="M26.0882 20.1802L24.8998 20.0011C24.2061 19.8966 23.7285 19.2496 23.833 18.5559L24.1404 16.5152C24.2449 15.8215 24.892 15.3439 25.5856 15.4484L26.7741 15.6275C27.4678 15.732 27.9454 16.3791 27.8409 17.0727L27.5335 19.1134C27.4289 19.8071 26.7818 20.2847 26.0882 20.1802Z" fill="#EF8BBD"/>
<path d="M18.492 31.3715H6.61509C5.56997 31.3715 4.72278 30.5243 4.72278 29.4792V25.4758C4.72278 24.4307 5.57003 23.5835 6.61509 23.5835H18.4919C19.537 23.5835 20.3842 24.4307 20.3842 25.4758V29.4792C20.3843 30.5243 19.537 31.3715 18.492 31.3715Z" fill="#FFA585"/>
<path d="M18.492 23.5835H15.8842C16.6492 23.5835 17.2693 24.2037 17.2693 24.9687V27.4074C17.2693 28.1724 16.6492 28.7926 15.8842 28.7926H6.10797C5.34297 28.7926 4.72278 28.1724 4.72278 27.4074V29.4792C4.72278 30.5244 5.57003 31.3716 6.61509 31.3716H18.4919C19.537 31.3716 20.3842 30.5243 20.3842 29.4792V25.4759C20.3843 24.4307 19.537 23.5835 18.492 23.5835Z" fill="#EF7C85"/>
<path d="M18.9237 21.8073C22.4435 18.2875 22.4435 12.5807 18.9237 9.06087C15.4039 5.54105 9.69711 5.54105 6.17728 9.06087C2.65746 12.5807 2.65746 18.2875 6.17728 21.8073C9.69711 25.3271 15.4039 25.3271 18.9237 21.8073Z" fill="#FFE266"/>
<path d="M12.5535 6.41992C12.2609 6.41992 11.9717 6.43436 11.6863 6.46161C15.383 6.85348 18.2632 9.98124 18.2632 13.782C18.2632 17.8479 14.9671 21.144 10.9011 21.144C7.10044 21.144 3.97269 18.2639 3.58075 14.567C3.5535 14.8525 3.539 15.1417 3.539 15.4343C3.539 20.4129 7.57494 24.4487 12.5534 24.4487C17.5319 24.4487 21.5679 20.4129 21.5679 15.4343C21.5679 10.4558 17.5321 6.41992 12.5535 6.41992Z" fill="#EFAA66"/>
<path d="M13.2787 17.1662C14.2363 16.7693 14.6909 15.6712 14.2939 14.7135C13.897 13.7558 12.7988 13.3013 11.8412 13.6982C10.8835 14.0952 10.429 15.1933 10.8259 16.151C11.2229 17.1087 12.321 17.5632 13.2787 17.1662Z" fill="#EF8BBD"/>
<path d="M28.1127 15.7554C27.8115 15.3472 27.3693 15.0809 26.8677 15.0053L25.6793 14.8263C25.1778 14.7508 24.6768 14.875 24.2687 15.1763C23.8605 15.4776 23.5941 15.9197 23.5186 16.4213L23.2112 18.462C23.1356 18.9635 23.2598 19.4646 23.5612 19.8727C23.6339 19.9712 23.715 20.0613 23.8031 20.1427L23.0377 25.2233C23.0175 25.3581 22.9132 25.462 22.7784 25.4818L21.0133 25.7415V25.4752C21.0133 24.1145 19.9295 23.0028 18.58 22.9562C20.7835 21.1874 22.1969 18.4728 22.1969 15.4338C22.1969 10.1165 17.8709 5.79053 12.5536 5.79053C7.23622 5.79053 2.91028 10.1165 2.91028 15.4338C2.91028 18.4728 4.32372 21.1874 6.52722 22.9562C5.17772 23.0028 4.09397 24.1145 4.09397 25.4752V29.4786C4.09397 30.8688 5.22503 31.9998 6.61522 31.9998H18.492C19.8822 31.9998 21.0133 30.8688 21.0133 29.4786V29.023L23.4769 28.647C24.9615 28.4205 26.1092 27.2705 26.3329 25.7856L27.1096 20.63C27.6513 20.3648 28.0589 19.8471 28.1554 19.2068L28.4628 17.1661C28.5383 16.6645 28.414 16.1635 28.1127 15.7554ZM4.16797 15.4338C4.16797 10.8101 7.92972 7.04828 12.5535 7.04828C17.1773 7.04828 20.9391 10.81 20.9391 15.4338C20.9391 20.0577 17.1773 23.8194 12.5535 23.8194C7.92972 23.8193 4.16797 20.0576 4.16797 15.4338ZM19.7554 29.4786C19.7554 30.1752 19.1886 30.742 18.492 30.742H6.61515C5.91853 30.742 5.35172 30.1752 5.35172 29.4786V25.4752C5.35172 24.7786 5.91853 24.2118 6.61515 24.2118H8.56259C9.7794 24.7672 11.1309 25.0772 12.5535 25.0772C13.9762 25.0772 15.3277 24.7673 16.5445 24.2118H18.492C19.1886 24.2118 19.7554 24.7786 19.7554 25.4752V29.4786ZM25.089 25.5983C24.9479 26.5352 24.2237 27.2607 23.287 27.4037L21.0132 27.7507V27.0128L22.9613 26.7262C23.6475 26.6253 24.178 26.0967 24.2814 25.4108L24.9983 20.6518L25.8157 20.7749L25.089 25.5983ZM27.2189 16.9787L26.9115 19.0194C26.8588 19.3691 26.531 19.6105 26.1818 19.558L24.9934 19.379C24.824 19.3535 24.6747 19.2635 24.573 19.1257C24.4713 18.9879 24.4293 18.8187 24.4548 18.6493L24.7623 16.6086C24.7878 16.4393 24.8777 16.29 25.0155 16.1883C25.1533 16.0866 25.3222 16.0445 25.4918 16.0701L26.6803 16.2491C26.8497 16.2746 26.999 16.3645 27.1007 16.5023C27.2025 16.6402 27.2445 16.8093 27.2189 16.9787Z" fill="#440A29"/>
<path d="M12.5536 17.6876C13.7964 17.6876 14.8075 16.6764 14.8075 15.4336C14.8075 14.1908 13.7964 13.1797 12.5536 13.1797C11.3107 13.1797 10.2996 14.1908 10.2996 15.4336C10.2996 16.6764 11.3107 17.6876 12.5536 17.6876ZM12.5536 13.9343C13.3802 13.9343 14.0528 14.6069 14.0528 15.4336C14.0528 16.2603 13.3802 16.9328 12.5536 16.9328C11.7269 16.9328 11.0543 16.2603 11.0543 15.4336C11.0543 14.6069 11.7269 13.9343 12.5536 13.9343Z" fill="#440A29"/>
<path d="M9.68438 20.4774C9.74319 20.5108 9.80719 20.5266 9.87031 20.5266C10.0018 20.5266 10.1294 20.4579 10.1988 20.3355C10.3017 20.1542 10.2382 19.9239 10.0569 19.8211C8.65131 19.0233 7.70831 17.5843 7.53438 15.9716C7.512 15.7644 7.32531 15.6147 7.11875 15.637C6.9115 15.6593 6.76175 15.8454 6.78406 16.0526C6.98388 17.906 8.06813 19.5601 9.68438 20.4774Z" fill="#440A29"/>
<path d="M12.5536 20.4808C12.3452 20.4808 12.1763 20.6497 12.1763 20.8581C12.1763 21.0665 12.3452 21.2354 12.5536 21.2354C15.7525 21.2354 18.355 18.6329 18.355 15.434C18.355 15.2256 18.1861 15.0566 17.9777 15.0566C17.7693 15.0566 17.6004 15.2256 17.6004 15.434C17.6003 18.2168 15.3364 20.4808 12.5536 20.4808Z" fill="#440A29"/>
<path d="M15.3751 11.2487C15.6761 11.4521 15.956 11.6886 16.2068 11.9517C16.281 12.0294 16.3803 12.0686 16.48 12.0686C16.5735 12.0686 16.6672 12.0341 16.7403 11.9644C16.8911 11.8206 16.8968 11.5817 16.753 11.4309C16.4648 11.1286 16.1433 10.8569 15.7976 10.6233C15.6247 10.5066 15.3902 10.5521 15.2736 10.7247C15.157 10.8974 15.2024 11.132 15.3751 11.2487Z" fill="#440A29"/>
<path d="M17.4421 25.9038C17.2337 25.9038 17.0648 26.0727 17.0648 26.2811V27.0421C17.0648 27.2504 17.2337 27.4194 17.4421 27.4194C17.6504 27.4194 17.8194 27.2504 17.8194 27.0421V26.2811C17.8194 26.0728 17.6504 25.9038 17.4421 25.9038Z" fill="#440A29"/>
<path d="M15.8133 28.1743C15.605 28.1743 15.436 28.3433 15.436 28.5516V29.3126C15.436 29.5209 15.605 29.6899 15.8133 29.6899C16.0217 29.6899 16.1907 29.5209 16.1907 29.3126V28.5516C16.1907 28.3433 16.0217 28.1743 15.8133 28.1743Z" fill="#440A29"/>
<path d="M12.9015 26.665C12.6931 26.665 12.5242 26.834 12.5242 27.0424V27.8033C12.5242 28.0117 12.6931 28.1806 12.9015 28.1806C13.1099 28.1806 13.2788 28.0117 13.2788 27.8033V27.0424C13.2788 26.834 13.1099 26.665 12.9015 26.665Z" fill="#440A29"/>
<path d="M9.36605 9.81453C9.13723 9.81453 8.91661 9.68922 8.80542 9.47147C8.64748 9.16209 8.77023 8.78328 9.07961 8.62541C9.38461 8.46972 9.70255 8.33341 10.0247 8.22028C10.3525 8.10515 10.7114 8.27759 10.8264 8.60528C10.9414 8.93297 10.7691 9.29197 10.4414 9.40703C10.1722 9.50153 9.90649 9.61547 9.65148 9.74559C9.55992 9.79241 9.46223 9.81453 9.36605 9.81453Z" fill="white"/>
<path d="M5.79471 14.186C5.73915 14.186 5.68265 14.1786 5.62646 14.163C5.29178 14.0702 5.09559 13.7237 5.18834 13.3891C5.53984 12.1202 6.22109 10.9558 7.15852 10.0214C7.40446 9.77618 7.80271 9.77681 8.0479 10.0228C8.29315 10.2688 8.29246 10.667 8.04646 10.9122C7.26303 11.6931 6.69384 12.6657 6.4004 13.7249C6.32321 14.0034 6.07028 14.186 5.79471 14.186Z" fill="white"/>
<path d="M26.9546 6.86227L27.4887 8.36426C27.5116 8.42858 27.5569 8.47952 27.6141 8.50527L28.9486 9.10651C29.1371 9.19145 29.1371 9.49183 28.9486 9.57676L27.6141 10.178C27.5569 10.2038 27.5116 10.2547 27.4887 10.319L26.9546 11.821C26.8791 12.0332 26.6122 12.0332 26.5367 11.821L26.0026 10.319C25.9797 10.2547 25.9344 10.2038 25.8772 10.178L24.5427 9.57676C24.3542 9.49183 24.3542 9.19145 24.5427 9.10651L25.8772 8.50527C25.9344 8.47952 25.9797 8.42858 26.0026 8.36426L26.5367 6.86227C26.6122 6.65008 26.8791 6.65008 26.9546 6.86227Z" fill="#FEF2A8"/>
<path d="M24.8201 4.47216C24.8736 3.82992 24.3962 3.26594 23.754 3.21247C23.1117 3.159 22.5477 3.63629 22.4942 4.27853C22.4407 4.92077 22.9181 5.48475 23.5603 5.53822C24.2026 5.59169 24.7666 5.1144 24.8201 4.47216Z" fill="#FFE266"/>
<path d="M11.0818 2.78739C11.0818 3.06021 10.8607 3.28133 10.5879 3.28133C10.3151 3.28133 10.0939 3.06014 10.0939 2.78739C10.0939 2.51458 10.3151 2.29346 10.5879 2.29346C10.8607 2.29339 11.0818 2.51458 11.0818 2.78739Z" fill="#FFE266"/>
<path d="M18.0296 0.118078L18.4258 1.23227C18.4428 1.27995 18.4764 1.31777 18.5188 1.33689L19.5086 1.78289C19.6485 1.84589 19.6485 2.0687 19.5086 2.1317L18.5188 2.5777C18.4764 2.59683 18.4428 2.63458 18.4258 2.68233L18.0296 3.79652C17.9736 3.95389 17.7756 3.95389 17.7196 3.79652L17.3234 2.68233C17.3065 2.63464 17.2728 2.59683 17.2305 2.5777L16.2406 2.1317C16.1007 2.0687 16.1007 1.84589 16.2406 1.78289L17.2305 1.33689C17.2728 1.31777 17.3065 1.28002 17.3234 1.23227L17.7196 0.118078C17.7756 -0.0393594 17.9736 -0.0393594 18.0296 0.118078Z" fill="#FEF2A8"/>
</svg>
