<svg width="60" height="60" viewBox="0 0 60 60" fill="none" xmlns="http://www.w3.org/2000/svg">
<rect opacity="0.2" width="60" height="60" rx="10" fill="#E6E8EC"/>
<path d="M39.371 33.6735C38.9609 34.0709 38.7725 34.6457 38.8659 35.2093L40.2735 42.9993C40.3922 43.6596 40.1135 44.3277 39.561 44.7093C39.0195 45.1052 38.299 45.1527 37.7085 44.836L30.6959 41.1785C30.452 41.0487 30.1813 40.979 29.9042 40.9711H29.4751C29.3263 40.9932 29.1806 41.0407 29.0476 41.1136L22.0335 44.7885C21.6867 44.9627 21.294 45.0244 20.9093 44.9627C19.972 44.7853 19.3465 43.8923 19.5001 42.9502L20.9093 35.1602C21.0027 34.5918 20.8143 34.0139 20.4042 33.6102L14.6868 28.0685C14.2086 27.6046 14.0424 26.9079 14.2609 26.2793C14.473 25.6523 15.0145 25.1947 15.6685 25.0918L23.5376 23.9502C24.1361 23.8885 24.6618 23.5243 24.931 22.986L28.3985 15.8768C28.4808 15.7185 28.5869 15.5728 28.7151 15.4493L28.8576 15.3385C28.932 15.2562 29.0175 15.1881 29.1125 15.1327L29.2851 15.0693L29.5543 14.9585H30.2209C30.8162 15.0202 31.3403 15.3765 31.6142 15.9085L35.1276 22.986C35.381 23.5037 35.8734 23.8632 36.4418 23.9502L44.311 25.0918C44.976 25.1868 45.5317 25.646 45.7518 26.2793C45.9592 26.9142 45.7803 27.6109 45.2926 28.0685L39.371 33.6735Z" fill="#23262F"/>
</svg>
