<svg width="60" height="60" viewBox="0 0 60 60" fill="none" xmlns="http://www.w3.org/2000/svg">
<rect opacity="0.2" width="60" height="60" rx="10" fill="#E6E8EC"/>
<path d="M44.25 26.8332H41.0834V17.3332H42.6667V14.1665H17.3334V17.3332H18.9167V26.8332H15.75C15.3301 26.8332 14.9274 27 14.6304 27.2969C14.3335 27.5939 14.1667 27.9966 14.1667 28.4165V42.6665H45.8334V28.4165C45.8334 27.9966 45.6665 27.5939 45.3696 27.2969C45.0727 27 44.6699 26.8332 44.25 26.8332ZM33.1667 39.4998V33.1665H26.8334V39.4998H22.0834V17.3332H37.9167V39.4998H33.1667Z" fill="#FF872B"/>
<path d="M25.25 20.5H28.4167V23.6667H25.25V20.5ZM31.5833 20.5H34.75V23.6667H31.5833V20.5ZM25.25 26.8333H28.4167V30H25.25V26.8333ZM31.5833 26.8333H34.75V30H31.5833V26.8333Z" fill="#FF872B"/>
</svg>
