<svg width="32" height="32" viewBox="0 0 32 32" fill="none" xmlns="http://www.w3.org/2000/svg">
<g clip-path="url(#clip0)">
<path d="M11.7003 21.0688V29.8305C11.7003 30.6682 12.3793 31.3473 13.217 31.3473C14.0547 31.3473 14.7338 30.6682 14.7338 29.8305V21.0688H11.7003Z" fill="#C49A8B"/>
<path d="M19.0049 10.0723H7.42851C4.83438 10.0723 2.73151 12.1752 2.73151 14.7693V20.1928C2.73151 20.6768 3.12388 21.0692 3.60794 21.0692H22.8255C23.3096 21.0692 23.7019 20.6768 23.7019 20.1928V14.7693C23.702 12.1752 21.5991 10.0723 19.0049 10.0723Z" fill="#FAF1A9"/>
<path d="M4.73381 15.6695C4.70518 15.6695 4.67618 15.6675 4.64693 15.6635C4.30506 15.6159 4.06643 15.3002 4.11393 14.9583C4.21312 14.2448 4.49643 13.5638 4.93325 12.989C5.14212 12.7142 5.53418 12.6608 5.80906 12.8696C6.08387 13.0785 6.13731 13.4705 5.9285 13.7454C5.62112 14.1498 5.42181 14.6288 5.35206 15.1305C5.30862 15.4432 5.04081 15.6695 4.73381 15.6695Z" fill="white"/>
<path d="M6.85294 12.8718C6.61232 12.8718 6.383 12.7321 6.28019 12.4976C6.14157 12.1815 6.28544 11.8129 6.60163 11.6742C6.70057 11.6309 6.80213 11.5909 6.90369 11.5555C7.2295 11.4419 7.586 11.6139 7.69963 11.9398C7.81332 12.2657 7.64125 12.6221 7.31538 12.7358C7.24425 12.7606 7.173 12.7886 7.10357 12.8191C7.02188 12.8549 6.93669 12.8718 6.85294 12.8718Z" fill="white"/>
<path d="M10.6022 15.8552C10.7574 15.1829 10.3381 14.5121 9.6658 14.357C8.99348 14.2018 8.32267 14.6211 8.16752 15.2934C8.01237 15.9657 8.43162 16.6365 9.10395 16.7917C9.77627 16.9468 10.4471 16.5276 10.6022 15.8552Z" fill="white"/>
<path d="M9.17948 7.83199H5.67423C5.32392 7.83199 5.03992 7.54799 5.03992 7.19768V6.16068C5.03992 5.81037 5.32392 5.52637 5.67423 5.52637H9.17942V7.83199H9.17948Z" fill="#D789B9"/>
<path d="M20.787 17.9632H17.1519C16.7234 17.9632 16.3759 17.6158 16.3759 17.1872V15.0333C16.3759 14.6048 16.7234 14.2573 17.1519 14.2573H20.787C21.2156 14.2573 21.563 14.6048 21.563 15.0333V17.1872C21.563 17.6158 21.2156 17.9632 20.787 17.9632Z" fill="white"/>
<path d="M19.0051 10.0723H16.0769C18.2043 10.0723 19.9288 11.7968 19.9288 13.9241V14.2573H20.7871C21.2156 14.2573 21.5631 14.6048 21.5631 15.0333V17.1872C21.5631 17.6158 21.2156 17.9631 20.7871 17.9631H19.9288V18.3717C19.9288 18.7686 19.607 19.0905 19.2101 19.0905H3.45032C3.05338 19.0905 2.73157 18.7686 2.73157 18.3717V20.1927C2.73157 20.6767 3.12394 21.0691 3.608 21.0691H22.8256C23.3097 21.0691 23.7021 20.6767 23.7021 20.1927V14.7693C23.7021 12.1752 21.5992 10.0723 19.0051 10.0723Z" fill="#DFB5A7"/>
<path d="M21.563 17.1872V15.0333C21.563 14.6048 21.2156 14.2573 20.787 14.2573H19.9288V17.9632H20.787C21.2156 17.9632 21.563 17.6158 21.563 17.1872Z" fill="#E1BDFC"/>
<path opacity="0.3" d="M11.7576 21.0522H14.7335V24.0281H11.7576V21.0522Z" fill="#AF30FA"/>
<path d="M27.7783 5.93065L28.3143 7.43778C28.3373 7.50228 28.3827 7.55347 28.44 7.57928L29.779 8.18259C29.9682 8.26784 29.9682 8.56922 29.779 8.65446L28.44 9.25772C28.3827 9.28353 28.3373 9.33465 28.3143 9.39921L27.7783 10.9063C27.7026 11.1193 27.4348 11.1193 27.3591 10.9063L26.8231 9.39921C26.8001 9.33465 26.7547 9.28353 26.6974 9.25772L25.3584 8.65446C25.1692 8.56922 25.1692 8.26784 25.3584 8.18259L26.6974 7.57928C26.7547 7.55347 26.8001 7.50234 26.8231 7.43778L27.3591 5.93065C27.4348 5.71778 27.7026 5.71778 27.7783 5.93065Z" fill="#FAF1A9"/>
<path d="M16.0771 0.118453L16.4746 1.23639C16.4916 1.28427 16.5254 1.3222 16.5679 1.34133L17.5611 1.78883C17.7014 1.85208 17.7014 2.07564 17.5611 2.13883L16.5679 2.58633C16.5254 2.60552 16.4916 2.64345 16.4746 2.69127L16.0771 3.8092C16.0209 3.96714 15.8222 3.96714 15.7661 3.8092L15.3684 2.69127C15.3514 2.64339 15.3177 2.60545 15.2752 2.58633L14.2819 2.13883C14.1416 2.07558 14.1416 1.85202 14.2819 1.78883L15.2752 1.34133C15.3177 1.32214 15.3514 1.2842 15.3684 1.23639L15.7661 0.118453C15.8222 -0.0394844 16.0209 -0.0394844 16.0771 0.118453Z" fill="#FAF1A9"/>
<path d="M25.2164 2.64788C25.8628 2.64788 26.3868 2.12388 26.3868 1.4775C26.3868 0.831124 25.8628 0.307129 25.2164 0.307129C24.57 0.307129 24.046 0.831124 24.046 1.4775C24.046 2.12388 24.57 2.64788 25.2164 2.64788Z" fill="#F6E06E"/>
<path d="M19.8937 6.07183C20.0565 5.84541 20.005 5.52986 19.7786 5.36702C19.5522 5.20418 19.2366 5.25572 19.0738 5.48213C18.9109 5.70854 18.9625 6.0241 19.1889 6.18694C19.4153 6.34978 19.7309 6.29824 19.8937 6.07183Z" fill="#F6E06E"/>
<path d="M19.0052 9.41965H10.0243V5.52652C10.0243 5.16615 9.73216 4.87402 9.37179 4.87402C9.33904 4.87402 9.30704 4.87721 9.2756 4.8819C9.2441 4.87721 9.21216 4.87402 9.17935 4.87402H5.67416C4.9646 4.87402 4.38735 5.45127 4.38735 6.16084V7.19784C4.38735 7.9074 4.9646 8.48471 5.67416 8.48471H8.71929V9.41971H7.4286C4.47885 9.41971 2.0791 11.8195 2.0791 14.7692V20.1927C2.0791 21.0357 2.76498 21.7216 3.60804 21.7216H11.0476V29.8308C11.0476 31.0269 12.0207 32 13.2169 32C14.413 32 15.3861 31.0269 15.3861 29.8308V21.7215H22.8257C23.6687 21.7215 24.3546 21.0357 24.3546 20.1926V14.7691C24.3547 11.8194 21.9549 9.41965 19.0052 9.41965ZM5.69235 7.17959V6.17896H8.71929V7.17959H5.69235ZM3.38416 20.1926V14.7691C3.38416 12.539 5.19854 10.7246 7.42866 10.7246H8.71935V14.0663C8.13885 14.3191 7.73179 14.8981 7.73179 15.5706C7.73179 16.4749 8.46754 17.2107 9.37185 17.2107C10.2762 17.2107 11.0119 16.475 11.0119 15.5706C11.0119 14.8981 10.6049 14.3191 10.0244 14.0663V10.7246H15.3785C14.2441 11.7063 13.5243 13.1548 13.5243 14.7691V20.1926C13.5243 20.2687 13.53 20.3434 13.5409 20.4165H3.6081C3.4846 20.4165 3.38416 20.3161 3.38416 20.1926ZM9.37179 14.7135C9.84435 14.7135 10.2289 15.098 10.2289 15.5706C10.2289 16.0432 9.84441 16.4276 9.37179 16.4276C8.89916 16.4276 8.51473 16.0432 8.51473 15.5706C8.51473 15.098 8.89923 14.7135 9.37179 14.7135ZM13.2169 30.695C12.7404 30.695 12.3527 30.3073 12.3527 29.8307V21.7215H14.0811V29.8307C14.0811 30.3073 13.6934 30.695 13.2169 30.695ZM23.0497 20.1926C23.0497 20.3161 22.9492 20.4165 22.8257 20.4165H15.0532C14.9297 20.4165 14.8293 20.3161 14.8293 20.1926V14.7691C14.8293 12.539 16.6437 10.7246 18.8738 10.7246H19.0052C21.2353 10.7246 23.0497 12.539 23.0497 14.7691V20.1926Z" fill="#3C122C"/>
<path d="M20.7871 13.8657H17.1519C16.5082 13.8657 15.9845 14.3895 15.9845 15.0332V17.1871C15.9845 17.8309 16.5082 18.3545 17.1519 18.3545H20.7871C21.4308 18.3545 21.9546 17.8308 21.9546 17.1871V15.0332C21.9546 14.3895 21.4308 13.8657 20.7871 13.8657ZM20.5763 14.6487L19.1226 15.6873C19.031 15.7527 18.9079 15.7527 18.8164 15.6873L17.3627 14.6487H20.5763ZM20.7871 17.5716H17.1519C16.9399 17.5716 16.7675 17.3992 16.7675 17.1872V15.1858L18.3612 16.3244C18.5432 16.4544 18.7564 16.5194 18.9696 16.5194C19.1827 16.5194 19.3959 16.4544 19.5778 16.3244L21.1716 15.1858V17.1872C21.1716 17.3991 20.9991 17.5716 20.7871 17.5716Z" fill="#3C122C"/>
<path d="M5.69137 16.832C5.47518 16.832 5.29987 17.0073 5.29987 17.2235V17.9628C5.29987 18.179 5.47518 18.3543 5.69137 18.3543C5.90755 18.3543 6.08286 18.179 6.08286 17.9628V17.2235C6.08286 17.0073 5.90762 16.832 5.69137 16.832Z" fill="#3C122C"/>
<path d="M7.61886 17.894C7.40267 17.894 7.22736 18.0694 7.22736 18.2855V19.0249C7.22736 19.241 7.40267 19.4164 7.61886 19.4164C7.83504 19.4164 8.01036 19.241 8.01036 19.0249V18.2855C8.01036 18.0693 7.83511 17.894 7.61886 17.894Z" fill="#3C122C"/>
</g>
<defs>
<clipPath id="clip0">
<rect width="32" height="32" fill="white"/>
</clipPath>
</defs>
</svg>
