<svg width="32" height="32" viewBox="0 0 32 32" fill="none" xmlns="http://www.w3.org/2000/svg">
<path d="M15.9917 21.0287C22.798 21.0287 28.3156 18.664 28.3156 15.747C28.3156 12.83 22.798 10.4653 15.9917 10.4653C9.18543 10.4653 3.66785 12.83 3.66785 15.747C3.66785 18.664 9.18543 21.0287 15.9917 21.0287Z" fill="#FEF2A8"/>
<path d="M15.9917 21.0287C22.798 21.0287 28.3156 18.664 28.3156 15.747C28.3156 12.83 22.798 10.4653 15.9917 10.4653C9.18543 10.4653 3.66785 12.83 3.66785 15.747C3.66785 18.664 9.18543 21.0287 15.9917 21.0287Z" fill="#EEB6A8"/>
<path d="M29.1705 4.65099C28.0839 4.14774 26.795 4.62067 26.2918 5.70736L19.2243 22.707L21.7426 23.8733L30.2269 7.52967C30.7301 6.44305 30.2571 5.15417 29.1705 4.65099Z" fill="#B2E7F1"/>
<path d="M11.548 11.4669L10.6796 10.851C9.99681 10.3667 9.83587 9.42063 10.3202 8.73782L10.9361 7.86944C11.4204 7.18663 12.3664 7.02569 13.0492 7.51001L13.9176 8.12588C14.6004 8.61019 14.7613 9.55626 14.277 10.2391L13.6611 11.1074C13.1769 11.7903 12.2308 11.9512 11.548 11.4669Z" fill="#78EAC4"/>
<path d="M19.9958 12.1262L18.6386 12.0409C17.8845 11.9935 17.3116 11.3438 17.3591 10.5896L17.4444 9.2325C17.4918 8.47838 18.1415 7.9055 18.8956 7.95294L20.2528 8.03825C21.0069 8.08563 21.5797 8.73538 21.5324 9.4895L21.4471 10.8466C21.3996 11.6008 20.7499 12.1736 19.9958 12.1262Z" fill="#A183E2"/>
<path d="M11.1053 11.8593L6.89146 16.5508C4.91765 18.7484 6.47727 22.2455 9.43109 22.2455H22.5523C25.5061 22.2455 27.0657 18.7484 25.0919 16.5508L20.8781 11.8593C18.2685 8.9538 13.7151 8.9538 11.1053 11.8593Z" fill="#FFA585"/>
<path d="M25.092 16.5506L20.8782 11.8591C19.5383 10.3673 17.6861 9.64174 15.8477 9.68174C16.0578 9.84356 16.2573 10.0256 16.4415 10.2307L19.2588 13.3674C23.2693 18.0327 15.2795 21.193 7.04996 16.3741L6.89152 16.5505C4.91771 18.748 6.47734 22.2452 9.43115 22.2452H22.5523C25.5062 22.2452 27.0658 18.7481 25.092 16.5506Z" fill="#EF7C85"/>
<path d="M28.3156 15.7466C28.3156 22.7888 3.66785 22.7888 3.66785 15.7466L5.79766 24.6598C6.73653 28.5888 10.2485 31.3605 14.2882 31.3605H17.7115C21.7569 31.3605 25.2723 28.5812 26.2056 24.645L28.3156 15.7466Z" fill="#FEF2A8"/>
<path d="M22.6388 20.2756L21.9967 22.9835C21.2376 26.1847 18.3787 28.4449 15.0888 28.4449H12.3048C9.01959 28.4449 6.16353 26.1909 5.3999 22.9957L5.79759 24.6601C6.73646 28.5892 10.2485 31.3608 14.2882 31.3608H17.7115C21.7568 31.3608 25.2722 28.5815 26.2055 24.6453L28.0069 17.0483C27.262 18.5476 25.2307 19.6235 22.6388 20.2756Z" fill="#EEB6A8"/>
<path d="M7.86158 16.4614L6.79602 16.0549C6.03345 15.764 5.65108 14.91 5.94202 14.1474L6.34852 13.0819C6.63939 12.3193 7.49339 11.9369 8.25595 12.2278L9.32152 12.6343C10.0841 12.9252 10.4665 13.7792 10.1755 14.5417L9.76902 15.6073C9.47814 16.3699 8.62414 16.7523 7.86158 16.4614Z" fill="#A183E2"/>
<path d="M18.3429 17.7074L17.0824 17.8893C16.311 18.0006 15.5954 17.4654 15.4841 16.694L15.3022 15.4336C15.1909 14.6621 15.726 13.9465 16.4974 13.8352L17.7579 13.6533C18.5293 13.542 19.2449 14.0771 19.3562 14.8486L19.5381 16.109C19.6494 16.8804 19.1143 17.5961 18.3429 17.7074Z" fill="#78EAC4"/>
<path d="M30.8951 5.65111C30.6368 4.94699 30.1197 4.38574 29.4391 4.07055C28.7586 3.75536 27.9961 3.72405 27.292 3.98249C26.5879 4.2408 26.0266 4.75793 25.7114 5.43843C25.7079 5.44611 25.7045 5.45386 25.7013 5.46168L23.452 10.872C23.0206 10.7363 22.5724 10.6129 22.1093 10.5026L22.1705 9.52955C22.2041 8.99436 22.0273 8.47811 21.6727 8.07593C21.3181 7.67374 20.828 7.43374 20.2928 7.40005L18.9356 7.31474C17.8836 7.24811 16.9679 8.0093 16.8227 9.03586C16.5481 9.00411 16.2708 8.98743 15.9916 8.98743C15.7158 8.98743 15.4418 9.00368 15.1704 9.03468C15.1686 9.02336 15.1673 9.01205 15.1654 9.00068C15.0689 8.43318 14.7571 7.93718 14.2876 7.60411L13.4193 6.9883C12.4499 6.30055 11.1019 6.53011 10.4144 7.49936L9.79863 8.36768C9.32638 9.03343 9.28676 9.8778 9.62226 10.5641C8.68701 10.7987 7.81395 11.0862 7.02545 11.4241C4.44788 12.5288 3.02832 14.0639 3.02832 15.7466C3.02832 16.1889 3.12738 16.6209 3.31882 17.0377L5.17557 24.8084C5.66295 26.8479 6.83788 28.6865 8.48395 29.9856C10.13 31.2847 12.1913 32.0001 14.2883 32.0001H17.7116C19.8114 32.0001 21.875 31.2829 23.5222 29.9806C25.1694 28.6782 26.3434 26.8358 26.8279 24.7927L28.6293 17.1956C28.6386 17.1566 28.6436 17.1177 28.6454 17.079C28.8496 16.6495 28.9551 16.2036 28.9551 15.7466C28.9551 14.9039 28.5973 14.0985 27.9178 13.3654L30.7944 7.82411C30.7988 7.81555 30.8031 7.80693 30.8071 7.79818C31.1223 7.11774 31.1534 6.35518 30.8951 5.65111ZM22.6516 12.7973L21.782 11.8291C21.7985 11.8029 21.8144 11.7763 21.8296 11.7494C22.2184 11.8424 22.5953 11.9452 22.9594 12.0571L22.6516 12.7973ZM18.0826 9.27268C18.1068 8.88718 18.4281 8.5898 18.8093 8.5898C18.8246 8.5898 18.8399 8.59024 18.8554 8.59124L20.2126 8.67655C20.4068 8.68874 20.5847 8.77586 20.7134 8.92186C20.8421 9.06786 20.9063 9.25518 20.8941 9.44949L20.8088 10.8066C20.8086 10.8096 20.808 10.8126 20.8078 10.8156C20.0168 10.1149 19.0846 9.59761 18.0811 9.29568L18.0826 9.27268ZM20.3631 12.3217L24.5769 17.0132C24.9655 17.4459 25.1961 17.9672 25.2598 18.5107C25.0086 18.643 24.7403 18.7711 24.4542 18.8937C22.2043 19.8579 19.199 20.3889 15.9918 20.3889C12.7846 20.3889 9.77932 19.8579 7.52938 18.8937C7.24345 18.7711 6.97513 18.6431 6.72407 18.5109C6.78776 17.9674 7.01801 17.4459 7.40663 17.0132L7.43413 16.9826L7.6337 17.0587C7.87901 17.1523 8.13432 17.1989 8.38926 17.1989C8.68345 17.1989 8.97701 17.1367 9.25357 17.0129C9.7697 16.7818 10.165 16.3635 10.3666 15.8351L10.773 14.7696C10.9599 14.2798 10.9592 13.7498 10.7741 13.2639L11.6204 12.3216C12.7332 11.0828 14.3265 10.3722 15.9917 10.3722C17.657 10.3723 19.2503 11.0828 20.3631 12.3217ZM7.02401 15.4572C6.59213 15.2925 6.37476 14.8071 6.53951 14.3752L6.94595 13.3097C7.07338 12.9758 7.39238 12.7701 7.7302 12.7701C7.82932 12.7701 7.93007 12.7878 8.02801 12.8252L9.09357 13.2316C9.30282 13.3115 9.46845 13.468 9.56001 13.6724C9.65151 13.8767 9.65795 14.1045 9.57807 14.3137L9.17163 15.3793C9.09182 15.5885 8.93532 15.7541 8.73101 15.8457C8.52657 15.9372 8.29876 15.9436 8.08963 15.8638C8.08963 15.8638 8.08963 15.8638 8.08963 15.8637L7.02401 15.4572ZM9.87413 12.1936C9.77138 12.133 9.6632 12.0801 9.54945 12.0367L9.34876 11.9602C9.65907 11.8715 9.97807 11.7892 10.3051 11.7137L9.87413 12.1936ZM10.6928 9.76155C10.6536 9.5308 10.7065 9.29855 10.8419 9.10768L11.4578 8.23936C11.6284 7.9988 11.8991 7.87036 12.1737 7.87036C12.349 7.87036 12.5259 7.92268 12.6794 8.03161L13.5478 8.64743C13.7386 8.78286 13.8654 8.98449 13.9046 9.21524C13.909 9.24086 13.9118 9.26643 13.9139 9.29199C13.2992 9.47586 12.7111 9.74061 12.1656 10.0787C11.7613 10.1337 11.3641 10.1974 10.975 10.2697C10.8259 10.1378 10.7266 9.96061 10.6928 9.76155ZM5.35407 13.8944L5.34451 13.9194C4.9912 14.8458 5.33413 15.8694 6.11357 16.4119C5.82113 16.8094 5.60707 17.2452 5.47526 17.7012C4.71751 17.0815 4.30732 16.4098 4.30732 15.7467C4.30732 15.1199 4.67395 14.4854 5.35407 13.8944ZM25.5834 24.4976C24.7146 28.1619 21.4775 30.7211 17.7116 30.7211H14.2883C10.529 30.7211 7.29332 28.1675 6.41963 24.5112L5.10876 19.0251C5.64957 19.4037 6.29026 19.754 7.02557 20.0691C9.43107 21.1 12.6153 21.6677 15.9918 21.6677C19.3682 21.6677 22.5525 21.1 24.9579 20.0691C25.6968 19.7525 26.3399 19.4003 26.8823 19.0196L25.5834 24.4976ZM27.6761 15.7467C27.6761 16.4098 27.2659 17.0815 26.5081 17.7012C26.4191 17.3932 26.2923 17.0944 26.1295 16.8102L27.2766 14.6006C27.5384 14.9777 27.6761 15.3636 27.6761 15.7467ZM29.6521 7.24893L25.2627 15.7043L23.5984 13.8514L26.8769 5.96536C27.0494 5.60005 27.3529 5.32249 27.7326 5.18318C28.1161 5.04255 28.5313 5.05949 28.9018 5.23111C29.2723 5.40274 29.5538 5.70836 29.6945 6.09174C29.8336 6.47093 29.8184 6.88136 29.6521 7.24893Z" fill="#440A29"/>
<path d="M18.8978 25.8652C18.686 25.8652 18.5142 26.037 18.5142 26.2489V27.3527C18.5142 27.5645 18.686 27.7364 18.8978 27.7364C19.1097 27.7364 19.2815 27.5645 19.2815 27.3527V26.2489C19.2815 26.037 19.1097 25.8652 18.8978 25.8652Z" fill="#440A29"/>
<path d="M21.9862 23.6445C21.7743 23.6445 21.6025 23.8163 21.6025 24.0282V25.132C21.6025 25.3438 21.7743 25.5157 21.9862 25.5157C22.198 25.5157 22.3699 25.3438 22.3699 25.132V24.0282C22.3699 23.8163 22.198 23.6445 21.9862 23.6445Z" fill="#440A29"/>
<path d="M14.8512 16.7851C14.9294 17.3273 15.2141 17.8065 15.6528 18.1346C16.0111 18.4025 16.4371 18.5433 16.8766 18.5433C16.9753 18.5433 17.0745 18.5363 17.1739 18.5219L18.4343 18.34C19.5535 18.1784 20.3326 17.1365 20.1711 16.0173L19.9891 14.7569C19.9109 14.2147 19.6262 13.7355 19.1875 13.4075C18.7488 13.0794 18.2089 12.9415 17.6665 13.0201L16.4061 13.202C15.8639 13.2803 15.3847 13.565 15.0566 14.0036C14.7286 14.4423 14.591 14.9825 14.6693 15.5247L14.8512 16.7851ZM16.0808 14.7696C16.2043 14.6045 16.3847 14.4974 16.5888 14.4679L17.8491 14.286C17.8866 14.2806 17.9239 14.2779 17.961 14.2779C18.1264 14.2779 18.2868 14.3309 18.4216 14.4317C18.5868 14.5552 18.6938 14.7356 18.7233 14.9396L18.9053 16.2C18.966 16.6212 18.6728 17.0133 18.2516 17.0741L16.9912 17.256C16.787 17.2855 16.5838 17.2336 16.4188 17.1102C16.2536 16.9868 16.1465 16.8064 16.1171 16.6023L15.9351 15.342C15.9056 15.138 15.9574 14.9347 16.0808 14.7696Z" fill="#440A29"/>
<path d="M14.7593 24.844C14.7555 24.844 14.7517 24.844 14.7479 24.8439C13.5914 24.8237 12.4146 24.709 11.2501 24.5031C10.9023 24.4416 10.6703 24.1098 10.7317 23.762C10.7932 23.4143 11.1252 23.1825 11.4728 23.2437C12.5713 23.4379 13.6808 23.5461 14.7703 23.5652C15.1234 23.5714 15.4046 23.8627 15.3984 24.2157C15.3923 24.565 15.1072 24.844 14.7593 24.844Z" fill="white"/>
<path d="M8.88512 23.9152C8.82106 23.9152 8.756 23.9055 8.69169 23.8851C8.56369 23.8445 8.44812 23.8054 8.33844 23.7654C8.00662 23.6445 7.83569 23.2775 7.95662 22.9456C8.0775 22.6137 8.44425 22.4427 8.77644 22.5638C8.86894 22.5975 8.96762 22.6309 9.07825 22.666C9.41487 22.7728 9.60125 23.1322 9.4945 23.4689C9.40812 23.7412 9.15637 23.9152 8.88512 23.9152Z" fill="white"/>
<path d="M3.44199 4.17014L3.96724 5.64714C3.98974 5.71039 4.03424 5.76052 4.09043 5.78583L5.40268 6.37708C5.58805 6.46064 5.58805 6.75602 5.40268 6.83952L4.09043 7.4307C4.03424 7.45602 3.98974 7.50614 3.96724 7.56939L3.44199 9.04639C3.3678 9.25508 3.1053 9.25508 3.03112 9.04639L2.5058 7.56939C2.4833 7.50614 2.4388 7.45602 2.38262 7.4307L1.07037 6.83952C0.884992 6.75602 0.884992 6.46058 1.07037 6.37708L2.38262 5.78583C2.4388 5.76052 2.4833 5.71039 2.5058 5.64714L3.03118 4.17014C3.10537 3.96152 3.3678 3.96152 3.44199 4.17014Z" fill="#FFC7B6"/>
<path d="M8.33972 2.89916C8.87881 2.56596 9.0457 1.85883 8.7125 1.31975C8.37929 0.780663 7.67216 0.613765 7.13308 0.946971C6.594 1.28018 6.4271 1.98731 6.7603 2.52639C7.09351 3.06547 7.80064 3.23237 8.33972 2.89916Z" fill="#FFA585"/>
<path d="M16.6894 0.116109L17.079 1.21173C17.0957 1.25867 17.1287 1.2958 17.1704 1.31461L18.1438 1.75317C18.2813 1.81511 18.2813 2.03423 18.1438 2.09617L17.1704 2.53473C17.1287 2.55355 17.0957 2.59067 17.079 2.63761L16.6894 3.73323C16.6343 3.88805 16.4397 3.88805 16.3846 3.73323L15.995 2.63761C15.9783 2.59067 15.9453 2.55355 15.9036 2.53473L14.9302 2.09617C14.7927 2.03423 14.7927 1.81511 14.9302 1.75317L15.9036 1.31461C15.9453 1.2958 15.9783 1.25867 15.995 1.21173L16.3846 0.116109C16.4397 -0.0387031 16.6344 -0.0387031 16.6894 0.116109Z" fill="#FFC7B6"/>
<path d="M21.7639 4.16784C22.0298 4.10499 22.1944 3.83852 22.1315 3.57265C22.0687 3.30679 21.8022 3.14221 21.5363 3.20506C21.2705 3.2679 21.1059 3.53437 21.1687 3.80024C21.2316 4.06611 21.498 4.23069 21.7639 4.16784Z" fill="#FFA585"/>
</svg>
