<svg xmlns="http://www.w3.org/2000/svg" width="26.117" height="23.215" viewBox="0 0 26.117 23.215">
  <path id="Icon_awesome-mail-bulk" data-name="Icon awesome-mail-bulk" d="M7.255,20.313a5.5,5.5,0,0,1-2.9-1.451C1.451,16.831.58,16.105,0,15.67v6.094a1.451,1.451,0,0,0,1.451,1.451H13.058a1.451,1.451,0,0,0,1.451-1.451V15.67c-.58.435-1.451,1.161-4.353,3.192A5.5,5.5,0,0,1,7.255,20.313Zm5.8-8.706H1.451A1.451,1.451,0,0,0,0,13.058v.725c1.161.871,1.016.871,5.223,3.918.435.29,1.306,1.161,2.031,1.161s1.6-.871,2.031-1.016c4.208-3.047,4.063-3.047,5.223-3.918v-.871A1.451,1.451,0,0,0,13.058,11.608ZM24.666,7.255H10.157A1.451,1.451,0,0,0,8.706,8.706v1.451h4.353a2.906,2.906,0,0,1,2.889,2.622l.013-.01v6.094h8.706a1.451,1.451,0,0,0,1.451-1.451V8.706A1.451,1.451,0,0,0,24.666,7.255Zm-1.451,5.8h-2.9v-2.9h2.9ZM7.255,8.706a2.905,2.905,0,0,1,2.9-2.9H20.313V1.451A1.451,1.451,0,0,0,18.862,0H4.353A1.451,1.451,0,0,0,2.9,1.451v8.706H7.255Z" />
</svg>
