<svg xmlns="http://www.w3.org/2000/svg" width="19" height="13" viewBox="0 0 19 13">
  <g id="Group_4961" data-name="Group 4961" transform="translate(-5.925 -9.68)">
    <g id="_face" data-name=" face" transform="translate(5.925 9.68)">
      <g id="_group" data-name=" group" transform="translate(0 0)">
        <path id="Icon" d="M18.137,13H13.663a3.352,3.352,0,0,0,.156-.988V10.53a4.251,4.251,0,0,0-1.667-3.368l-.008-.011a.088.088,0,0,0-.027-.029c.346-.034.62-.049.838-.049C15.064,7.072,19,8.26,19,10.53v1.482A.933.933,0,0,1,18.137,13Zm-6.909,0H.863A1,1,0,0,1,0,11.911V10.276c0-2.5,3.936-3.815,6.045-3.815s6.045,1.31,6.045,3.815v1.634A1,1,0,0,1,11.227,13ZM13.3,5.463a2.844,2.844,0,0,1-2.938-2.731A2.844,2.844,0,0,1,13.3,0,2.844,2.844,0,0,1,16.24,2.732,2.844,2.844,0,0,1,13.3,5.463Zm-7.6,0A2.844,2.844,0,0,1,2.759,2.732,2.844,2.844,0,0,1,5.7,0,2.844,2.844,0,0,1,8.636,2.732,2.844,2.844,0,0,1,5.7,5.463Z" transform="translate(0 0)" />
      </g>
    </g>
  </g>
</svg>
