<svg xmlns="http://www.w3.org/2000/svg" width="20" height="22.857" viewBox="0 0 20 22.857">
  <path id="Icon_awesome-book" data-name="Icon awesome-book" 
  d="M20,16.071v-15A1.069,1.069,0,0,0,18.929,0H4.286A4.287,4.287,0,0,0,0,4.286V18.571a4.287,4.287,0,0,0,4.286,4.286H18.929A1.069,1.069,0,0,0,20,21.786v-.714a1.08,1.08,0,0,0-.4-.835,9.956,9.956,0,0,1,0-3.335A1.064,1.064,0,0,0,20,16.071ZM5.714,5.982a.269.269,0,0,1,.268-.268h9.464a.269.269,0,0,1,.268.268v.893a.269.269,0,0,1-.268.268H5.982a.269.269,0,0,1-.268-.268Zm0,2.857a.269.269,0,0,1,.268-.268h9.464a.269.269,0,0,1,.268.268v.893a.269.269,0,0,1-.268.268H5.982a.269.269,0,0,1-.268-.268ZM17.027,20H4.286a1.429,1.429,0,0,1,0-2.857H17.027A16.072,16.072,0,0,0,17.027,20Z"  />
</svg>
