<svg xmlns="http://www.w3.org/2000/svg" width="24.021" height="28.872" viewBox="0 0 24.021 28.872">
  <g id="bag" transform="translate(-68.557)">
    <g id="Group_14" data-name="Group 14" transform="translate(68.557)">
      <path id="Path_1952" data-name="Path 1952" d="M92.562,24.936l-1.745-16.9a.986.986,0,0,0-1.023-.821H86.718v-1.8a5.077,5.077,0,0,0-1.8-3.833A6.566,6.566,0,0,0,80.567,0c-3.391,0-6.151,2.429-6.151,5.414v1.8H71.34a.983.983,0,0,0-1.021.821l-1.745,16.9A3.356,3.356,0,0,0,69.63,27.7a4.381,4.381,0,0,0,3.028,1.175H88.477A4.381,4.381,0,0,0,91.506,27.7,3.362,3.362,0,0,0,92.562,24.936ZM76.466,5.414a3.883,3.883,0,0,1,4.1-3.609,4.385,4.385,0,0,1,2.905,1.052,3.379,3.379,0,0,1,1.2,2.557v1.8h-8.2ZM89.99,26.481a2.171,2.171,0,0,1-1.515.586H72.658a2.159,2.159,0,0,1-1.513-.588,1.651,1.651,0,0,1-.527-1.38L72.277,9.023h2.139v2.707a1.034,1.034,0,0,0,2.05,0V9.023h8.2v2.707a1.034,1.034,0,0,0,2.05,0V9.023h2.139L90.517,25.1A1.653,1.653,0,0,1,89.99,26.481Z" transform="translate(-68.557)" fill="#fff"/>
    </g>
  </g>
</svg>
