<svg id="Layer_2" data-name="Layer 2" xmlns="http://www.w3.org/2000/svg" width="28.001" height="27" viewBox="0 0 28.001 27">
  <path id="Path_41" data-name="Path 41" d="M5,13a1,1,0,0,0-1,1V26a3,3,0,0,0,3,3H25a3,3,0,0,0,3-3V15a1,1,0,0,0-2,0V26a1,1,0,0,1-1,1H21V24a3,3,0,0,0-3-3H14a3,3,0,0,0-3,3v3H7a1,1,0,0,1-1-1V14A1,1,0,0,0,5,13Zm8,11a1,1,0,0,1,1-1h4a1,1,0,0,1,1,1v3H13Z" transform="translate(-2 -2)" fill="#fff"/>
  <path id="Path_42" data-name="Path 42" d="M29,12a1,1,0,0,0,.525-1.852l-13-8a1,1,0,0,0-1.049,0l-13,8a1,1,0,1,0,1.049,1.7L16,4.174l12.476,7.678A1,1,0,0,0,29,12Z" transform="translate(-2 -2)" fill="#fff"/>
</svg>
