<svg width="357" height="109" viewBox="0 0 357 109" fill="none" xmlns="http://www.w3.org/2000/svg">
<path d="M129.64 7.49407H147.217C150.199 7.26623 153.158 8.15551 155.499 9.98296C156.476 10.8962 157.24 12.0074 157.736 13.2396C158.232 14.4717 158.449 15.7951 158.372 17.1178C158.372 21.1 156.682 23.5889 153.302 24.7504C157.696 26.0778 159.893 29.2304 159.893 34.0422C159.893 38.8541 158.879 40.0156 156.851 41.5089C154.084 43.2363 150.827 44.0502 147.555 43.8319H129.64V7.49407ZM137.583 14.297V22.0956H146.034C148.907 22.0956 150.428 20.7681 150.428 18.2793C150.485 17.7279 150.414 17.1711 150.219 16.651C150.024 16.1309 149.711 15.6611 149.304 15.2774C148.897 14.8936 148.406 14.6059 147.869 14.436C147.331 14.2662 146.762 14.2186 146.203 14.297H137.583ZM151.611 32.8807C151.611 29.8941 149.921 28.4007 146.71 28.4007H137.583V37.0289H146.879C148.198 37.1271 149.512 36.7755 150.597 36.0333C150.977 35.6042 151.264 35.1028 151.438 34.5605C151.613 34.0182 151.672 33.4464 151.611 32.8807Z" fill="white"/>
<path d="M186.597 21.5978C187.615 24.187 188.076 26.9554 187.949 29.7282V43.8319H180.851V41.6748C178.699 43.646 175.85 44.7172 172.907 44.6615C170.441 44.7203 168.037 43.8944 166.146 42.3385C165.313 41.5172 164.628 40.5635 164.118 39.5178C163.622 38.3064 163.392 37.0061 163.442 35.7015C163.42 34.151 163.767 32.6169 164.456 31.2215C165.097 30.0142 166.1 29.0295 167.329 28.4008C168.525 27.7143 169.845 27.2634 171.217 27.0733C172.599 26.735 174.018 26.5678 175.442 26.5756H177.977L180.344 26.9074V26.2437C180.381 25.6583 180.261 25.0735 179.993 24.5489C179.726 24.0242 179.322 23.5785 178.822 23.2571C177.655 22.5556 176.303 22.2092 174.935 22.2615H172.738L170.541 22.7593L168.344 23.423L166.653 24.2526L164.625 18.7771C167.973 16.7488 171.847 15.7118 175.78 15.7904C181.189 16.1222 184.738 17.9474 186.597 21.5978ZM174.428 13.7993C174.409 13.2413 174.466 12.6833 174.597 12.14C174.684 11.7826 174.85 11.4485 175.084 11.1616C175.317 10.8747 175.613 10.6422 175.949 10.4808C176.287 10.1489 176.794 9.98298 176.963 9.65113C177.132 9.31928 177.301 9.15335 177.301 8.8215C177.301 8.48965 177.301 8.48965 176.963 8.32372H176.287C175.221 8.36899 174.204 8.77999 173.414 9.4852L171.048 7.16224L173.414 5.83483C174.359 5.37805 175.403 5.15045 176.456 5.17113C178.018 5.00274 179.586 5.41738 180.851 6.33261C181.257 6.6159 181.591 6.98831 181.826 7.42031C182.061 7.85232 182.19 8.33206 182.203 8.8215C182.19 9.28293 182.075 9.73607 181.865 10.1489C181.699 10.5165 181.471 10.8534 181.189 11.1445L180.513 11.8082L179.667 12.3059L179.16 12.9696C179.038 13.1043 178.945 13.2621 178.887 13.4332C178.829 13.6044 178.807 13.7854 178.822 13.9652L174.428 13.7993ZM174.597 38.1904C176.68 38.3308 178.739 37.677 180.344 36.3652V32.0511H176.118C172.907 32.0511 171.217 33.2126 171.217 35.5356C171.217 37.8585 172.4 38.1904 174.597 38.1904Z" fill="white"/>
<path d="M206.372 44.6615C204.514 44.7568 202.657 44.4495 200.934 43.7613C199.211 43.073 197.663 42.0208 196.4 40.6793C193.913 37.8258 192.642 34.1415 192.851 30.3919C192.677 26.6469 193.944 22.9747 196.4 20.1045C199.078 17.5698 202.652 16.1535 206.372 16.1535C210.091 16.1535 213.666 17.5698 216.344 20.1045C218.8 22.9747 220.067 26.6469 219.893 30.3919C220.101 34.1415 218.83 37.8258 216.344 40.6793C215.081 42.0208 213.533 43.073 211.81 43.7613C210.086 44.4495 208.23 44.7568 206.372 44.6615ZM202.484 36.1993C202.939 36.7839 203.528 37.2541 204.204 37.5714C204.88 37.8887 205.623 38.044 206.372 38.0245C207.145 38.0441 207.912 37.8898 208.615 37.5735C209.319 37.2571 209.939 36.7871 210.428 36.1993C211.409 34.4203 211.876 32.4124 211.78 30.3919C211.894 28.3699 211.425 26.3573 210.428 24.5845C209.921 24.0195 209.296 23.567 208.597 23.2571C207.898 22.9471 207.139 22.7868 206.372 22.7868C205.604 22.7868 204.846 22.9471 204.147 23.2571C203.447 23.567 202.823 24.0195 202.315 24.5845C201.239 26.3268 200.765 28.3636 200.963 30.3919C200.828 32.4373 201.36 34.4719 202.484 36.1993Z" fill="white"/>
<path d="M257.414 7.49408H265.527V43.8319H257.414V28.5667H241.189V43.8319H233.076V7.49408H241.189V21.5978H257.414V7.49408Z" fill="white"/>
<path d="M272.456 13.7993V8.15779H280.4V13.7993H272.456ZM272.456 43.8319V17.1178H280.4V43.8319H272.456Z" fill="white"/>
<path d="M310.484 28.5667C310.491 30.129 310.321 31.6872 309.977 33.2126H293.583C293.754 34.7691 294.54 36.1975 295.773 37.1905C297.006 38.1835 298.586 38.6617 300.175 38.5223C302.706 38.5055 305.175 37.7551 307.273 36.3652L309.639 41.5089C306.646 43.6383 303.025 44.7457 299.33 44.6615C297.44 44.7228 295.556 44.4172 293.787 43.7623C292.018 43.1074 290.398 42.1161 289.02 40.8452C287.712 39.4671 286.696 37.8486 286.029 36.083C285.361 34.3174 285.057 32.4396 285.132 30.5578C284.952 26.7831 286.287 23.0896 288.851 20.2704C290.03 18.9061 291.511 17.8235 293.18 17.1047C294.849 16.386 296.663 16.05 298.484 16.1223C300.116 16.0667 301.742 16.3481 303.256 16.9484C304.77 17.5486 306.138 18.4543 307.273 19.6067C308.396 20.8107 309.259 22.2251 309.811 23.7648C310.363 25.3045 310.592 26.9379 310.484 28.5667ZM291.555 13.6334L296.118 6.99634H301.865L306.428 13.6334H301.02L298.991 10.8126L296.963 13.6334H291.555ZM303.048 28.0689C303.134 27.7425 303.19 27.4094 303.217 27.0734C303.21 25.7896 302.73 24.5517 301.865 23.5889C301.438 23.1343 300.913 22.7792 300.328 22.5495C299.743 22.3198 299.113 22.2214 298.484 22.2615C297.842 22.2418 297.204 22.3661 296.619 22.6249C296.033 22.8836 295.515 23.2701 295.104 23.7549C294.019 24.9396 293.417 26.4757 293.414 28.0689H303.048ZM304.569 8.6556C304.55 8.0976 304.607 7.53964 304.738 6.99634C304.98 6.30631 305.457 5.71989 306.09 5.33708C306.597 5.00523 306.935 4.8393 307.104 4.50745C307.266 4.43861 307.403 4.32153 307.494 4.17271C307.585 4.02388 307.626 3.85079 307.611 3.67782C307.611 3.51189 307.442 3.34597 307.273 3.18004H306.428C305.361 3.22531 304.345 3.63631 303.555 4.34152L301.189 2.01856C301.956 1.44505 302.812 0.996817 303.724 0.69115C304.656 0.199028 305.709 -0.0306538 306.766 0.0274468C308.273 -0.114796 309.779 0.299315 310.992 1.18893C311.398 1.47222 311.732 1.84462 311.967 2.27663C312.202 2.70864 312.331 3.18838 312.344 3.67782C312.331 4.13925 312.216 4.59238 312.006 5.00522L311.499 6.00078L310.653 6.66448L309.808 7.16226L309.301 7.82597C309.132 7.99189 309.132 8.32374 309.132 8.82152L304.569 8.6556Z" fill="white"/>
<path d="M315.217 17.1178H321.977L322.484 20.2704C323.498 19.014 324.78 17.9913 326.24 17.2746C327.701 16.5578 329.303 16.1645 330.935 16.1222C332.403 16.0612 333.86 16.4011 335.143 17.1041C336.426 17.8072 337.485 18.8458 338.203 20.1045C339.344 18.8362 340.749 17.8241 342.324 17.1369C343.899 16.4497 345.606 16.1037 347.33 16.1222C348.65 16.0595 349.969 16.2793 351.195 16.7663C352.42 17.2534 353.524 17.9961 354.428 18.943C356.159 21.362 356.994 24.2897 356.794 27.2393V43.8319H348.851V28.2348C348.925 26.858 348.634 25.4858 348.006 24.2526C347.612 23.8013 347.117 23.4464 346.56 23.2159C346.002 22.9855 345.398 22.8859 344.794 22.9252C343.84 22.9564 342.905 23.196 342.057 23.6265C341.21 24.0571 340.47 24.6677 339.893 25.4141C340.027 25.6088 340.087 25.8439 340.062 26.0778V43.8319H332.118V27.903C332.118 24.5845 330.766 22.9252 328.4 22.9252C327.373 23.004 326.375 23.2962 325.471 23.7825C324.568 24.2688 323.78 24.9381 323.161 25.746V43.8319H315.217V17.1178Z" fill="white"/>
<path d="M143.837 61.7519C146.242 61.6232 148.648 62.0008 150.892 62.8593C153.137 63.7178 155.168 65.0374 156.851 66.7296C160.016 70.4344 161.646 75.1733 161.414 80.0037C161.689 84.7896 160.052 89.4919 156.851 93.1119C155.168 94.8041 153.137 96.1237 150.892 96.9822C148.648 97.8407 146.242 98.2183 143.837 98.0896H129.64V82.8244H127.104V77.3489H129.64V61.7519H143.837ZM143.837 91.2867C145.109 91.3587 146.38 91.1417 147.553 90.6524C148.726 90.1632 149.767 89.4149 150.597 88.4659C152.294 85.9689 153.123 83.001 152.964 80.0037C153.175 77.0012 152.34 74.0173 150.597 71.5415C149.813 70.5304 148.784 69.7277 147.603 69.2061C146.422 68.6846 145.128 68.4607 143.837 68.5548H137.752V77.3489H144.175V82.8244H137.752V91.2867H143.837Z" fill="white"/>
<path d="M166.823 68.0571V62.4156H174.766V68.0571H166.823ZM166.823 98.0897V71.3756H174.766V98.0897H166.823Z" fill="white"/>
<path d="M205.02 82.8245C204.96 84.3374 204.734 85.8396 204.344 87.3045H187.949C188.013 88.0899 188.235 88.8552 188.601 89.5562C188.967 90.2572 189.472 90.8801 190.084 91.3891C190.697 91.898 191.406 92.2829 192.171 92.5217C192.936 92.7604 193.741 92.8482 194.541 92.78C197.115 92.7058 199.623 91.9614 201.808 90.623L204.006 95.7667C200.971 97.8143 197.378 98.9133 193.696 98.9193C191.791 98.9873 189.892 98.6688 188.118 97.9836C186.344 97.2984 184.733 96.2613 183.386 94.9371C182.084 93.5894 181.069 91.9998 180.401 90.2617C179.734 88.5235 179.427 86.6719 179.499 84.8156C179.41 81.0044 180.731 77.2906 183.217 74.3623C184.461 73.0427 185.981 72.0034 187.673 71.3159C189.366 70.6285 191.19 70.3092 193.02 70.38C194.611 70.3261 196.197 70.5928 197.679 71.1635C199.162 71.7342 200.509 72.597 201.639 73.6985C203.946 76.1852 205.16 79.4643 205.02 82.8245ZM185.921 67.8911L190.484 61.0882H196.231L200.794 67.8911H195.386L193.358 64.9045L191.329 67.8911H185.921ZM197.414 82.1608C197.583 82.1608 197.583 81.8289 197.583 81.3311C197.609 80.0706 197.191 78.8398 196.4 77.8467C195.954 77.4173 195.425 77.0789 194.845 76.8511C194.265 76.6233 193.644 76.5105 193.02 76.5193C192.353 76.4984 191.689 76.6212 191.076 76.8792C190.463 77.1372 189.915 77.5241 189.47 78.0126C188.41 79.1465 187.809 80.6219 187.78 82.1608H197.414ZM189.47 108.377V102.404H196.738V108.377H189.47Z" fill="white"/>
<path d="M234.935 98.0896H226.992V83.1563C227.073 81.6185 226.783 80.0836 226.146 78.6763C225.805 78.1593 225.324 77.7457 224.757 77.482C224.19 77.2182 223.559 77.1147 222.935 77.183C221.859 77.2339 220.81 77.5303 219.871 78.0487C218.933 78.5672 218.13 79.2934 217.527 80.1696V98.0896H209.583V71.3756H216.513L217.02 74.6941C218.069 73.3819 219.401 72.3144 220.921 71.5685C222.44 70.8225 224.11 70.4166 225.808 70.38C227.079 70.3204 228.347 70.5431 229.517 71.0315C230.688 71.5199 231.731 72.2614 232.569 73.2007C234.275 75.5686 235.109 78.4359 234.935 81.3311V98.0896Z" fill="white"/>
<path d="M279.048 61.7519V68.7208H267.893V98.0897H259.78V68.7208H248.794V61.7519H279.048Z" fill="white"/>
<path d="M302.541 71.3756C302.965 71.3395 303.373 71.1989 303.728 70.9669C304.082 70.7349 304.372 70.4189 304.569 70.0482C304.797 69.1811 304.91 68.2889 304.907 67.3934H310.484C310.519 68.1715 310.462 68.951 310.315 69.7163C310.269 70.5304 310.038 71.3241 309.639 72.0393C309.288 72.7128 308.831 73.3286 308.287 73.8645C307.536 74.3915 306.666 74.733 305.752 74.86V98.0897H298.822L298.484 94.7712C296.213 97.2199 293.062 98.7071 289.696 98.9193C288.442 98.9661 287.193 98.754 286.028 98.2967C284.864 97.8394 283.81 97.147 282.935 96.2645C281.289 93.938 280.513 91.1242 280.738 88.3V71.3756H288.513V87.1386C288.513 90.4571 289.865 92.1163 292.569 92.1163C293.641 92.0626 294.682 91.7459 295.598 91.1952C296.513 90.6444 297.273 89.8772 297.808 88.9637V71.3756H302.541ZM291.217 68.0571C291.189 67.4988 291.246 66.9396 291.386 66.3978C291.627 65.7078 292.105 65.1214 292.738 64.7386L293.752 63.9089C293.914 63.8401 294.05 63.723 294.141 63.5742C294.232 63.4254 294.274 63.2523 294.259 63.0793C294.259 62.7475 294.09 62.5815 293.921 62.5815H293.076C292.009 62.6268 290.992 63.0378 290.203 63.743L287.836 61.42C288.576 60.7677 289.437 60.2607 290.372 59.9267C291.344 59.5713 292.377 59.4023 293.414 59.4289C294.894 59.319 296.371 59.6672 297.639 60.4245C298.034 60.7559 298.357 61.1616 298.589 61.6176C298.821 62.0735 298.958 62.5706 298.991 63.0793C299.032 63.5285 298.975 63.9812 298.822 64.4067C298.54 64.6978 298.311 65.0346 298.146 65.4023L297.301 66.066L296.625 66.5637C296.325 66.6968 296.085 66.9328 295.949 67.2275C295.78 67.3934 295.78 67.7252 295.78 68.223L291.217 68.0571Z" fill="white"/>
<path d="M45.9774 104.561C43.6701 104.583 41.3972 104.011 39.3858 102.901C35.4686 101.013 31.83 98.6134 28.5689 95.7667L26.8788 94.4393L22.8224 90.9548C17.9837 86.1039 13.8336 80.6343 10.4844 74.6941C6.19679 66.9806 3.22776 58.6286 1.69566 49.9711C1.12973 47.4051 0.79044 44.7959 0.681576 42.1726V40.6793C0.343548 36.1993 0.174534 31.5533 0.00552004 27.0733V24.2526C-0.163494 17.4496 3.55482 12.9696 10.3154 11.8081L15.0478 10.9785C17.0759 10.6467 19.1041 10.4807 20.9633 9.98295C25.6958 9.04371 30.2934 7.53918 34.6534 5.50295L39.8928 3.01407C41.7977 2.03981 43.914 1.5311 46.0619 1.5311C48.2098 1.5311 50.326 2.03981 52.2309 3.01407C55.9582 4.89497 59.796 6.55715 63.7238 7.99184C68.0604 9.42741 72.5339 10.4281 77.0759 10.9785L80.4562 11.6422H82.1464C85.1492 12.1329 87.8498 13.7256 89.7013 16.0978C91.5528 18.47 92.4168 21.4444 92.1182 24.4185V27.903C91.9779 28.6692 91.9213 29.4479 91.9492 30.2259C91.7802 34.54 91.6112 38.6881 91.2731 43.1681C90.8204 48.7972 89.7436 54.3609 88.0619 59.7607C85.2752 68.7868 80.805 77.2263 74.8788 84.6496C71.6656 88.5548 68.0397 92.1144 64.0619 95.2689C61.3074 97.7188 58.306 99.887 55.1041 101.74L53.245 102.57L52.5689 103.067C50.5219 104.067 48.2636 104.579 45.9774 104.561ZM46.1464 5.33703C44.6227 5.32909 43.1181 5.66996 41.752 6.33258L36.3435 8.9874C31.6723 11.0588 26.8034 12.6706 21.8083 13.7993L15.5548 14.7948L10.9914 15.6244C6.09003 16.4541 3.72383 19.2748 3.72383 24.2526V27.0733C3.89284 31.3874 4.06186 36.0333 4.39989 40.5133V42.0067C4.52412 44.4004 4.80641 46.7836 5.24496 49.1415C6.747 57.4156 9.66119 65.3814 13.8647 72.703C16.9998 78.3987 20.9879 83.6003 25.6957 88.1341C26.8088 89.3694 28.0556 90.4821 29.414 91.4526L31.1041 92.9459C34.1514 95.5345 37.4984 97.7622 41.0759 99.583C42.5459 100.397 44.2051 100.825 45.8928 100.825C47.5806 100.825 49.2398 100.397 50.7097 99.583L51.5548 99.2511C52.0623 98.8763 52.635 98.5952 53.245 98.4215C56.1832 96.6794 58.9551 94.6802 61.5266 92.4481C65.2949 89.4164 68.7483 86.0261 71.8365 82.3267C77.4732 75.2505 81.7149 67.2035 84.3436 58.5993C85.9695 53.4767 86.9902 48.1877 87.3858 42.8363C87.7238 38.5222 87.8928 34.3741 88.0619 30.06C88.0399 29.2821 88.0965 28.504 88.2309 27.737V24.2526C88.4296 22.2407 87.8418 20.2298 86.5864 18.6277C85.331 17.0255 83.5021 15.9519 81.4703 15.6244L79.9492 15.2926H79.7802L76.5689 14.7948C71.7971 14.2076 67.0975 13.1514 62.5407 11.6422C58.1464 9.98295 53.921 7.99184 50.3717 6.33258C49.0589 5.68916 47.6137 5.34864 46.1464 5.33703Z" fill="white"/>
<path d="M80.4562 21.5978L78.597 21.266C77.6587 21.0058 76.6961 20.8391 75.7238 20.7682C70.5328 20.1005 65.4319 18.8764 60.5125 17.1178C56.1231 15.5465 51.8337 13.718 47.6675 11.6422L45.9773 11.3104L44.4562 11.6422L38.8787 14.2971C33.7865 16.607 28.4616 18.3866 22.9914 19.6067L16.5689 20.7682L12.1745 21.4319C10.1463 21.7637 9.8083 22.2615 9.8083 24.0867V26.5756L10.3153 39.8497C10.4538 40.3351 10.5109 40.8395 10.4844 41.343C10.6534 43.5 10.8224 45.6571 11.1604 47.8141C12.5611 55.4185 15.1855 62.7557 18.9351 69.5504C21.8299 74.7885 25.4724 79.5936 29.752 83.82L33.1322 86.8067L34.9914 88.3C37.6868 90.6816 40.7005 92.6913 43.9492 94.2734C44.5281 94.7155 45.2439 94.9497 45.9773 94.9371C46.6298 94.927 47.2691 94.7558 47.8365 94.4393L48.8506 93.9415L50.2027 93.1119C52.8967 91.6523 55.3949 89.8687 57.6393 87.8022C61.1077 85.1464 64.2298 82.0814 66.9351 78.6763C72.1653 72.231 76.0688 64.8485 78.428 56.94C79.9829 52.2615 80.9478 47.4135 81.3013 42.5045C81.6393 38.1904 81.8083 34.0422 81.9773 29.8941C82.1175 29.1838 82.1742 28.4601 82.1463 27.7371C82.1184 26.4075 82.1748 25.0775 82.3153 23.7548C82.3385 23.4932 82.3087 23.2296 82.2276 22.9793C82.1466 22.729 82.0159 22.497 81.8431 22.2965C81.6702 22.096 81.4587 21.931 81.2207 21.8111C80.9827 21.6912 80.7229 21.6187 80.4562 21.5978ZM23.4984 53.7874C23.2506 53.7972 23.0034 53.7582 22.7711 53.6727C22.5389 53.5872 22.3265 53.457 22.1463 53.2897C21.9325 53.1019 21.7616 52.8716 21.6451 52.6142C21.5285 52.3568 21.4689 52.078 21.4703 51.7963C21.513 51.2849 21.7552 50.8093 22.1463 50.4689C22.3265 50.3016 22.5389 50.1714 22.7711 50.0859C23.0034 50.0004 23.2506 49.9614 23.4984 49.9711C24.0194 50.013 24.5038 50.2508 24.8506 50.6348C25.021 50.8117 25.1536 51.0203 25.2407 51.2482C25.3278 51.4762 25.3675 51.719 25.3576 51.9622C25.3576 52.2019 25.3095 52.4393 25.2161 52.6607C25.1226 52.8822 24.9857 53.0834 24.8131 53.2528C24.6404 53.4223 24.4355 53.5568 24.2099 53.6485C23.9843 53.7402 23.7426 53.7874 23.4984 53.7874ZM24.8506 48.6437C24.6704 48.811 24.458 48.9413 24.2257 49.0268C23.9935 49.1123 23.7462 49.1513 23.4984 49.1415C22.9886 49.1432 22.4968 48.9564 22.1209 48.6182C21.7451 48.2799 21.5128 47.8151 21.4703 47.3163C21.4553 47.0564 21.5099 46.7972 21.6284 46.5643C21.747 46.3315 21.9256 46.1331 22.1463 45.9889C22.2932 45.7722 22.4953 45.5969 22.7325 45.4805C22.9696 45.3641 23.2337 45.3105 23.4984 45.3252C23.7462 45.3155 23.9935 45.3545 24.2257 45.44C24.458 45.5254 24.6704 45.6557 24.8506 45.823C25.1915 46.2477 25.3708 46.7758 25.3576 47.3163C25.3458 47.8022 25.1671 48.27 24.8506 48.6437ZM23.4984 44.4956C23.2506 44.5053 23.0034 44.4663 22.7711 44.3808C22.5389 44.2953 22.3265 44.1651 22.1463 43.9978C21.7839 43.5714 21.5498 43.0543 21.4703 42.5045C21.5128 42.0057 21.7451 41.5409 22.1209 41.2026C22.4968 40.8644 22.9886 40.6775 23.4984 40.6793C23.7462 40.6695 23.9935 40.7085 24.2257 40.794C24.458 40.8795 24.6704 41.0098 24.8506 41.1771C25.1915 41.6017 25.3708 42.1299 25.3576 42.6704C25.3576 43.1545 25.1617 43.6187 24.8131 43.961C24.4644 44.3033 23.9915 44.4956 23.4984 44.4956ZM25.3576 37.8585C25.3462 38.3952 25.1695 38.9159 24.8506 39.3519C24.6704 39.5192 24.458 39.6494 24.2257 39.7349C23.9935 39.8204 23.7462 39.8594 23.4984 39.8497C22.9605 39.8497 22.4447 39.6399 22.0643 39.2665C21.684 38.8931 21.4703 38.3866 21.4703 37.8585C21.38 37.5614 21.3618 37.2476 21.4169 36.9423C21.472 36.6369 21.599 36.3484 21.7878 36.0998C21.9766 35.8512 22.2219 35.6493 22.5042 35.5102C22.7866 35.3711 23.0981 35.2987 23.4139 35.2987C23.7298 35.2987 24.0413 35.3711 24.3236 35.5102C24.606 35.6493 24.8513 35.8512 25.0401 36.0998C25.2288 36.3484 25.3558 36.6369 25.411 36.9423C25.4661 37.2476 25.4478 37.5614 25.3576 37.8585ZM28.2308 58.5993C27.9661 58.614 27.702 58.5604 27.4649 58.444C27.2277 58.3276 27.0256 58.1523 26.8787 57.9356C26.5337 57.6285 26.2969 57.2218 26.2027 56.7741C26.2027 56.5126 26.2551 56.2537 26.3571 56.0121C26.459 55.7706 26.6084 55.5511 26.7967 55.3662C26.985 55.1813 27.2086 55.0346 27.4547 54.9346C27.7008 54.8345 27.9645 54.783 28.2308 54.783C28.6494 54.9055 29.0166 55.1574 29.2776 55.5012C29.5386 55.845 29.6797 56.2623 29.6797 56.6911C29.6797 57.1199 29.5386 57.5373 29.2776 57.8811C29.0166 58.2249 28.6494 58.4768 28.2308 58.5993ZM29.583 48.6437C29.4028 48.811 29.1903 48.9413 28.9581 49.0268C28.7259 49.1123 28.4786 49.1513 28.2308 49.1415C27.6929 49.1415 27.1771 48.9317 26.7967 48.5583C26.4163 48.1849 26.2027 47.6785 26.2027 47.1504C26.2786 46.6649 26.5209 46.2194 26.8897 45.8876C27.2585 45.5557 27.7316 45.3573 28.2308 45.3252C28.4956 45.3105 28.7596 45.3641 28.9968 45.4805C29.234 45.5969 29.4361 45.7722 29.583 45.9889C29.9155 46.354 30.0994 46.8266 30.0994 47.3163C30.0994 47.8061 29.9155 48.2787 29.583 48.6437ZM30.09 51.9622C30.1166 52.2083 30.0868 52.4572 30.0028 52.6905C29.9188 52.9238 29.7827 53.1357 29.6044 53.3107C29.4262 53.4857 29.2103 53.6193 28.9726 53.7018C28.735 53.7843 28.4815 53.8136 28.2308 53.7874C27.7316 53.7553 27.2585 53.5569 26.8897 53.2251C26.5209 52.8932 26.2786 52.4477 26.2027 51.9622C26.2454 51.4508 26.4876 50.9752 26.8787 50.6348C27.0256 50.4181 27.2277 50.2428 27.4649 50.1264C27.702 50.01 27.9661 49.9565 28.2308 49.9711C28.4956 49.9565 28.7596 50.01 28.9968 50.1264C29.234 50.2428 29.4361 50.4181 29.583 50.6348C29.7534 50.8117 29.886 51.0203 29.9731 51.2482C30.0602 51.4762 30.0999 51.719 30.09 51.9622ZM29.583 43.9978C29.4028 44.1651 29.1903 44.2953 28.9581 44.3808C28.7259 44.4663 28.4786 44.5053 28.2308 44.4956C27.6929 44.4956 27.1771 44.2858 26.7967 43.9124C26.4163 43.539 26.2027 43.0325 26.2027 42.5045C26.2452 42.0057 26.4775 41.5409 26.8533 41.2026C27.2291 40.8644 27.721 40.6775 28.2308 40.6793C28.4786 40.6695 28.7259 40.7085 28.9581 40.794C29.1903 40.8795 29.4028 41.0098 29.583 41.1771C29.9019 41.6131 30.0786 42.1337 30.09 42.6704C30.0999 42.9137 30.0602 43.1564 29.9731 43.3844C29.886 43.6124 29.7534 43.8209 29.583 43.9978ZM28.2308 39.8497C27.721 39.8514 27.2291 39.6645 26.8533 39.3263C26.4775 38.9881 26.2452 38.5233 26.2027 38.0245C26.1877 37.7646 26.2423 37.5053 26.3608 37.2725C26.4794 37.0396 26.658 36.8413 26.8787 36.6971C27.0256 36.4803 27.2277 36.3051 27.4649 36.1886C27.702 36.0722 27.9661 36.0187 28.2308 36.0334C28.4786 36.0236 28.7259 36.0626 28.9581 36.1481C29.1903 36.2336 29.4028 36.3638 29.583 36.5311C29.7664 36.7332 29.906 36.9698 29.9932 37.2265C30.0804 37.4833 30.1133 37.7548 30.09 38.0245C30.09 38.5085 29.8941 38.9728 29.5455 39.3151C29.1968 39.6574 28.7239 39.8497 28.2308 39.8497ZM28.2308 35.2037C27.983 35.2135 27.7358 35.1745 27.5035 35.089C27.2713 35.0035 27.0589 34.8733 26.8787 34.706C26.6648 34.5182 26.494 34.2879 26.3775 34.0305C26.2609 33.7731 26.2013 33.4943 26.2027 33.2126C26.2452 32.7138 26.4775 32.249 26.8533 31.9108C27.2291 31.5725 27.721 31.3857 28.2308 31.3874C28.4786 31.3777 28.7259 31.4167 28.9581 31.5022C29.1903 31.5877 29.4028 31.7179 29.583 31.8852C29.7664 32.0872 29.906 32.3238 29.9932 32.5806C30.0804 32.8374 30.1133 33.1089 30.09 33.3785C30.09 33.6182 30.0419 33.8556 29.9485 34.077C29.855 34.2985 29.7181 34.4997 29.5455 34.6691C29.3728 34.8386 29.1679 34.9731 28.9423 35.0648C28.7167 35.1565 28.475 35.2037 28.2308 35.2037ZM34.1463 62.5815C33.7996 62.9655 33.3152 63.2033 32.7942 63.2452C32.5501 63.2452 32.3083 63.198 32.0828 63.1063C31.8572 63.0146 31.6522 62.8801 31.4796 62.7106C31.307 62.5411 31.17 62.3399 31.0766 62.1185C30.9832 61.8971 30.9351 61.6597 30.9351 61.42C30.8783 61.0339 30.949 60.64 31.137 60.2962C31.3249 59.9524 31.6201 59.6768 31.9793 59.5098C32.3384 59.3428 32.7427 59.2931 33.1327 59.3681C33.5227 59.4432 33.8779 59.6389 34.1463 59.9267C34.3562 60.0812 34.5266 60.2817 34.644 60.5121C34.7613 60.7425 34.8224 60.9965 34.8224 61.2541C34.8224 61.5117 34.7613 61.7657 34.644 61.9961C34.5266 62.2265 34.3562 62.427 34.1463 62.5815ZM32.7942 58.5993C32.5501 58.5993 32.3083 58.5521 32.0828 58.4604C31.8572 58.3686 31.6522 58.2342 31.4796 58.0647C31.307 57.8952 31.17 57.694 31.0766 57.4726C30.9832 57.2511 30.9351 57.0138 30.9351 56.7741C30.9464 56.2374 31.1232 55.7168 31.4421 55.2808C31.814 54.9543 32.2953 54.7737 32.7942 54.7737C33.2931 54.7737 33.7745 54.9543 34.1463 55.2808C34.5375 55.6212 34.7797 56.0967 34.8224 56.6082C34.8224 57.1362 34.6087 57.6427 34.2284 58.0161C33.848 58.3895 33.3321 58.5993 32.7942 58.5993ZM31.4421 50.4689C31.6223 50.3016 31.8347 50.1714 32.0669 50.0859C32.2991 50.0004 32.5464 49.9614 32.7942 49.9711C33.059 49.9565 33.323 50.01 33.5602 50.1264C33.7974 50.2428 33.9994 50.4181 34.1463 50.6348C34.35 50.7864 34.5057 50.9916 34.5955 51.2265C34.6852 51.4615 34.7053 51.7166 34.6534 51.9622C34.6534 52.2019 34.6053 52.4393 34.5119 52.6607C34.4184 52.8822 34.2815 53.0834 34.1088 53.2528C33.9362 53.4223 33.7313 53.5568 33.5057 53.6485C33.2801 53.7402 33.0384 53.7874 32.7942 53.7874C32.5464 53.7972 32.2991 53.7582 32.0669 53.6727C31.8347 53.5872 31.6223 53.457 31.4421 53.2897C31.1256 52.9159 30.9469 52.4482 30.9351 51.9622C30.9219 51.4217 31.1012 50.8936 31.4421 50.4689ZM30.9351 47.1504C30.9084 46.9043 30.9382 46.6555 31.0223 46.4222C31.1063 46.1888 31.2424 45.9769 31.4206 45.8019C31.5989 45.6269 31.8148 45.4933 32.0524 45.4108C32.2901 45.3283 32.5435 45.2991 32.7942 45.3252C33.059 45.3105 33.323 45.3641 33.5602 45.4805C33.7974 45.5969 33.9994 45.7722 34.1463 45.9889C34.35 46.1405 34.5057 46.3457 34.5955 46.5806C34.6852 46.8155 34.7053 47.0706 34.6534 47.3163C34.6534 47.8004 34.4575 48.2646 34.1088 48.6069C33.7602 48.9492 33.2873 49.1415 32.7942 49.1415C32.5464 49.1513 32.2991 49.1123 32.0669 49.0268C31.8347 48.9413 31.6223 48.811 31.4421 48.6437C31.1012 48.2191 30.9219 47.6909 30.9351 47.1504ZM34.1463 43.9978C33.9662 44.1651 33.7537 44.2953 33.5215 44.3808C33.2893 44.4663 33.042 44.5053 32.7942 44.4956C32.3011 44.4956 31.8283 44.3033 31.4796 43.961C31.1309 43.6187 30.9351 43.1545 30.9351 42.6704C30.9219 42.1299 31.1012 41.6017 31.4421 41.1771C31.6223 41.0098 31.8347 40.8795 32.0669 40.794C32.2991 40.7085 32.5464 40.6695 32.7942 40.6793C33.2934 40.7114 33.7665 40.9098 34.1353 41.2416C34.5041 41.5735 34.7465 42.019 34.8224 42.5045C34.7428 43.0543 34.5087 43.5714 34.1463 43.9978ZM34.1463 39.3519C33.9662 39.5192 33.7537 39.6494 33.5215 39.7349C33.2893 39.8204 33.042 39.8594 32.7942 39.8497C32.4915 39.9382 32.1719 39.9562 31.8609 39.9021C31.5499 39.8479 31.256 39.7232 31.0028 39.5379C30.7495 39.3526 30.5438 39.1117 30.4022 38.8346C30.2605 38.5574 30.1867 38.2516 30.1867 37.9415C30.1867 37.6314 30.2605 37.3256 30.4022 37.0484C30.5438 36.7713 30.7495 36.5304 31.0028 36.3451C31.256 36.1598 31.5499 36.0351 31.8609 35.981C32.1719 35.9268 32.4915 35.9448 32.7942 36.0334C33.3041 36.0316 33.7959 36.2185 34.1718 36.5567C34.5476 36.8949 34.7799 37.3597 34.8224 37.8585C34.7428 38.4083 34.5087 38.9255 34.1463 39.3519ZM34.1463 34.706C33.9662 34.8733 33.7537 35.0035 33.5215 35.089C33.2893 35.1745 33.042 35.2135 32.7942 35.2037C32.5271 35.2359 32.256 35.205 32.0035 35.1135C31.751 35.0221 31.5244 34.8728 31.3425 34.678C31.1607 34.4833 31.0288 34.2487 30.958 33.9938C30.8871 33.7389 30.8792 33.4711 30.9351 33.2126C30.9351 32.7286 31.1309 32.2643 31.4796 31.922C31.8283 31.5797 32.3011 31.3874 32.7942 31.3874C33.3041 31.3857 33.7959 31.5725 34.1718 31.9108C34.5476 32.249 34.7799 32.7138 34.8224 33.2126C34.7747 33.7709 34.5365 34.2971 34.1463 34.706ZM42.09 36.0334C42.3769 36.0321 42.6609 36.0905 42.9231 36.2049C43.1853 36.3194 43.4198 36.4871 43.6111 36.6971C43.9156 37.0126 44.0954 37.4245 44.1182 37.8585C44.1182 38.3866 43.9045 38.8931 43.5241 39.2665C43.1438 39.6399 42.6279 39.8497 42.09 39.8497C41.8252 39.8643 41.5612 39.8108 41.324 39.6944C41.0868 39.578 40.8848 39.4027 40.7379 39.186C40.5675 39.0091 40.4348 38.8005 40.3477 38.5726C40.2606 38.3446 40.2209 38.1018 40.2308 37.8585C40.2308 37.6189 40.2789 37.3815 40.3724 37.1601C40.4658 36.9386 40.6027 36.7374 40.7754 36.5679C40.948 36.3985 41.153 36.264 41.3785 36.1723C41.6041 36.0806 41.8458 36.0334 42.09 36.0334ZM43.4421 62.5815C43.2952 62.7982 43.0932 62.9735 42.856 63.0899C42.6188 63.2063 42.3547 63.2599 42.09 63.2452C41.7873 63.3338 41.4677 63.3517 41.1567 63.2976C40.8456 63.2435 40.5518 63.1188 40.2985 62.9335C40.0453 62.7481 39.8396 62.5073 39.6979 62.2301C39.5563 61.953 39.4825 61.6472 39.4825 61.3371C39.4825 61.027 39.5563 60.7211 39.6979 60.444C39.8396 60.1668 40.0453 59.926 40.2985 59.7407C40.5518 59.5553 40.8456 59.4306 41.1567 59.3765C41.4677 59.3224 41.7873 59.3403 42.09 59.4289C42.5999 59.4272 43.0917 59.614 43.4675 59.9523C43.8434 60.2905 44.0757 60.7553 44.1182 61.2541C44.1331 61.514 44.0786 61.7732 43.96 62.0061C43.8414 62.2389 43.6629 62.4373 43.4421 62.5815ZM44.1182 65.9C44.1182 66.4281 43.9045 66.9345 43.5241 67.308C43.1438 67.6814 42.6279 67.8911 42.09 67.8911C41.8458 67.8911 41.6041 67.8439 41.3785 67.7522C41.153 67.6605 40.948 67.526 40.7754 67.3566C40.6027 67.1871 40.4658 66.9859 40.3724 66.7644C40.2789 66.543 40.2308 66.3056 40.2308 66.066C40.2209 65.8227 40.2606 65.5799 40.3477 65.3519C40.4348 65.124 40.5675 64.9154 40.7379 64.7385C40.8848 64.5218 41.0868 64.3465 41.324 64.2301C41.5612 64.1137 41.8252 64.0602 42.09 64.0748C42.3378 64.0651 42.5851 64.1041 42.8173 64.1896C43.0495 64.2751 43.2619 64.4053 43.4421 64.5726C43.7666 64.9593 43.9978 65.4131 44.1182 65.9ZM42.09 58.5993C41.8309 58.6003 41.5745 58.5482 41.3372 58.4463C41.0999 58.3444 40.8869 58.1949 40.7118 58.0074C40.5368 57.82 40.4036 57.5987 40.3207 57.3577C40.2379 57.1167 40.2073 56.8614 40.2308 56.6082C40.2308 56.1241 40.4267 55.6599 40.7754 55.3176C41.124 54.9753 41.5969 54.783 42.09 54.783C42.3378 54.7732 42.5851 54.8122 42.8173 54.8977C43.0495 54.9832 43.2619 55.1135 43.4421 55.2808C43.7666 55.6675 43.9978 56.1213 44.1182 56.6082C44.1182 57.1362 43.9045 57.6427 43.5241 58.0161C43.1438 58.3895 42.6279 58.5993 42.09 58.5993ZM42.09 49.1415C41.8252 49.1562 41.5612 49.1026 41.324 48.9862C41.0868 48.8698 40.8848 48.6945 40.7379 48.4778C40.4334 48.1623 40.2536 47.7504 40.2308 47.3163C40.2209 47.073 40.2606 46.8303 40.3477 46.6023C40.4348 46.3743 40.5675 46.1658 40.7379 45.9889C40.8848 45.7722 41.0868 45.5969 41.324 45.4805C41.5612 45.3641 41.8252 45.3105 42.09 45.3252C42.6279 45.3252 43.1438 45.535 43.5241 45.9084C43.9045 46.2818 44.1182 46.7882 44.1182 47.3163C44.0423 47.8018 43.7999 48.2473 43.4311 48.5791C43.0623 48.911 42.5892 49.1094 42.09 49.1415ZM44.1182 51.9622C44.0757 52.4611 43.8434 52.9259 43.4675 53.2641C43.0917 53.6023 42.5999 53.7892 42.09 53.7874C41.595 53.7758 41.1186 53.6004 40.7379 53.2897C40.4053 52.9246 40.2214 52.452 40.2214 51.9622C40.2214 51.4725 40.4053 50.9999 40.7379 50.6348C40.8848 50.4181 41.0868 50.2428 41.324 50.1264C41.5612 50.01 41.8252 49.9565 42.09 49.9711C42.6035 50.0392 43.08 50.2709 43.4464 50.6306C43.8128 50.9903 44.0488 51.4581 44.1182 51.9622ZM43.4421 43.9978C43.2619 44.1651 43.0495 44.2953 42.8173 44.3808C42.5851 44.4663 42.3378 44.5053 42.09 44.4956C41.5969 44.4956 41.124 44.3033 40.7754 43.961C40.4267 43.6187 40.2308 43.1545 40.2308 42.6704C40.2177 42.1299 40.397 41.6017 40.7379 41.1771C40.918 41.0098 41.1305 40.8795 41.3627 40.794C41.5949 40.7085 41.8422 40.6695 42.09 40.6793C42.348 40.6562 42.608 40.6862 42.8535 40.7675C43.0989 40.8488 43.3243 40.9796 43.5153 41.1515C43.7063 41.3233 43.8585 41.5324 43.9623 41.7654C44.0662 41.9984 44.1192 42.2502 44.1182 42.5045C44.0386 43.0543 43.8045 43.5714 43.4421 43.9978ZM38.8787 67.2274C38.532 67.6115 38.0476 67.8492 37.5266 67.8911C37.2619 67.9058 36.9978 67.8523 36.7606 67.7359C36.5235 67.6194 36.3214 67.4442 36.1745 67.2274C35.9954 67.0567 35.857 66.8491 35.7693 66.6196C35.6816 66.39 35.6469 66.1443 35.6675 65.9C35.6408 65.6539 35.6706 65.4051 35.7547 65.1718C35.8387 64.9385 35.9748 64.7265 36.153 64.5516C36.3313 64.3766 36.5472 64.2429 36.7848 64.1604C37.0225 64.078 37.2759 64.0487 37.5266 64.0748C38.0197 64.0748 38.4926 64.2671 38.8412 64.6094C39.1899 64.9517 39.3858 65.416 39.3858 65.9C39.3957 66.1433 39.356 66.3861 39.2689 66.614C39.1818 66.842 39.0492 67.0506 38.8787 67.2274ZM38.8787 62.5815C38.532 62.9655 38.0476 63.2033 37.5266 63.2452C37.2788 63.255 37.0315 63.216 36.7993 63.1305C36.5671 63.045 36.3547 62.9147 36.1745 62.7474C35.8336 62.3228 35.6543 61.7946 35.6675 61.2541C35.6408 61.008 35.6706 60.7592 35.7547 60.5259C35.8387 60.2925 35.9748 60.0806 36.153 59.9056C36.3313 59.7306 36.5472 59.597 36.7848 59.5145C37.0225 59.432 37.2759 59.4028 37.5266 59.4289C38.0197 59.4289 38.4926 59.6212 38.8412 59.9635C39.1899 60.3058 39.3858 60.77 39.3858 61.2541C39.4377 61.4998 39.4176 61.7549 39.3279 61.9898C39.2381 62.2248 39.0824 62.4299 38.8787 62.5815ZM37.5266 58.5993C37.2759 58.6254 37.0225 58.5962 36.7848 58.5137C36.5472 58.4312 36.3313 58.2976 36.153 58.1226C35.9748 57.9476 35.8387 57.7357 35.7547 57.5023C35.6706 57.269 35.6408 57.0202 35.6675 56.7741C35.6442 56.5044 35.6771 56.2329 35.7643 55.9762C35.8515 55.7194 35.991 55.4828 36.1745 55.2808C36.3547 55.1135 36.5671 54.9832 36.7993 54.8977C37.0315 54.8122 37.2788 54.7732 37.5266 54.783C37.7857 54.7819 38.0421 54.834 38.2794 54.936C38.5167 55.0379 38.7298 55.1874 38.9048 55.3748C39.0798 55.5623 39.213 55.7836 39.2959 56.0246C39.3787 56.2655 39.4093 56.5208 39.3858 56.7741C39.3858 57.2582 39.1899 57.7224 38.8412 58.0647C38.4926 58.407 38.0197 58.5993 37.5266 58.5993ZM36.1745 50.4689C36.3547 50.3016 36.5671 50.1714 36.7993 50.0859C37.0315 50.0004 37.2788 49.9614 37.5266 49.9711C37.7914 49.9565 38.0554 50.01 38.2926 50.1264C38.5298 50.2428 38.7318 50.4181 38.8787 50.6348C39.0492 50.8117 39.1818 51.0203 39.2689 51.2482C39.356 51.4762 39.3957 51.719 39.3858 51.9622C39.3858 52.2019 39.3377 52.4393 39.2443 52.6607C39.1508 52.8822 39.0139 53.0834 38.8412 53.2528C38.6686 53.4223 38.4636 53.5568 38.2381 53.6485C38.0125 53.7402 37.7708 53.7874 37.5266 53.7874C37.2788 53.7972 37.0315 53.7582 36.7993 53.6727C36.5671 53.5872 36.3547 53.457 36.1745 53.2897C35.858 52.9159 35.6793 52.4482 35.6675 51.9622C35.6543 51.4217 35.8336 50.8936 36.1745 50.4689ZM35.6675 47.1504C35.6408 46.9043 35.6706 46.6555 35.7547 46.4222C35.8387 46.1888 35.9748 45.9769 36.153 45.8019C36.3313 45.6269 36.5472 45.4933 36.7848 45.4108C37.0225 45.3283 37.2759 45.2991 37.5266 45.3252C37.7914 45.3105 38.0554 45.3641 38.2926 45.4805C38.5298 45.5969 38.7318 45.7722 38.8787 45.9889C39.0492 46.1658 39.1818 46.3743 39.2689 46.6023C39.356 46.8303 39.3957 47.073 39.3858 47.3163C39.3858 47.556 39.3377 47.7934 39.2443 48.0148C39.1508 48.2362 39.0139 48.4374 38.8412 48.6069C38.6686 48.7764 38.4636 48.9108 38.2381 49.0026C38.0125 49.0943 37.7708 49.1415 37.5266 49.1415C37.2788 49.1513 37.0315 49.1123 36.7993 49.0268C36.5671 48.9413 36.3547 48.811 36.1745 48.6437C35.8336 48.2191 35.6543 47.6909 35.6675 47.1504ZM37.5266 44.4956C37.2619 44.5103 36.9978 44.4567 36.7606 44.3403C36.5235 44.2239 36.3214 44.0486 36.1745 43.8319C35.8984 43.5768 35.7084 43.2449 35.6299 42.8808C35.5514 42.5166 35.5882 42.1376 35.7353 41.7946C35.8825 41.4516 36.1329 41.1609 36.4531 40.9615C36.7732 40.7622 37.1478 40.6637 37.5266 40.6793C38.0476 40.7212 38.532 40.959 38.8787 41.343C39.0824 41.4946 39.2381 41.6997 39.3279 41.9347C39.4176 42.1696 39.4377 42.4247 39.3858 42.6704C39.3858 43.1545 39.1899 43.6187 38.8412 43.961C38.4926 44.3033 38.0197 44.4956 37.5266 44.4956ZM38.8787 39.3519C38.6986 39.5192 38.4861 39.6494 38.2539 39.7349C38.0217 39.8204 37.7744 39.8594 37.5266 39.8497C37.2825 39.8497 37.0407 39.8024 36.8151 39.7107C36.5896 39.619 36.3846 39.4846 36.212 39.3151C36.0394 39.1456 35.9024 38.9444 35.809 38.7229C35.7155 38.5015 35.6675 38.2642 35.6675 38.0245C35.6439 37.7712 35.6745 37.5159 35.7574 37.2749C35.8402 37.034 35.9734 36.8127 36.1484 36.6252C36.3235 36.4377 36.5365 36.2883 36.7738 36.1863C37.0112 36.0844 37.2676 36.0323 37.5266 36.0334C38.0197 36.0334 38.4926 36.2257 38.8412 36.5679C39.1899 36.9102 39.3858 37.3745 39.3858 37.8585C39.5548 38.3563 39.2168 38.8541 38.8787 39.3519ZM37.5266 35.2037C37.2788 35.2135 37.0315 35.1745 36.7993 35.089C36.5671 35.0035 36.3547 34.8733 36.1745 34.706C35.991 34.5039 35.8515 34.2673 35.7643 34.0106C35.6771 33.7538 35.6442 33.4823 35.6675 33.2126C35.6408 32.9665 35.6706 32.7177 35.7547 32.4844C35.8387 32.2511 35.9748 32.0391 36.153 31.8641C36.3313 31.6891 36.5472 31.5555 36.7848 31.473C37.0225 31.3905 37.2759 31.3613 37.5266 31.3874C38.0365 31.3857 38.5283 31.5725 38.9042 31.9108C39.28 32.249 39.5123 32.7138 39.5548 33.2126C39.5548 33.7407 39.3411 34.2471 38.9607 34.6205C38.5804 34.994 38.0645 35.2037 37.5266 35.2037ZM43.4421 72.0393C43.2619 72.2066 43.0495 72.3368 42.8173 72.4223C42.5851 72.5078 42.3378 72.5468 42.09 72.5371C41.8422 72.5468 41.5949 72.5078 41.3627 72.4223C41.1305 72.3368 40.918 72.2066 40.7379 72.0393C40.4494 71.6501 40.2742 71.1913 40.2308 70.7119C40.2073 70.4586 40.2379 70.2033 40.3207 69.9624C40.4036 69.7214 40.5368 69.5001 40.7118 69.3126C40.8869 69.1251 41.0999 68.9757 41.3372 68.8737C41.5745 68.7718 41.8309 68.7197 42.09 68.7208C42.6279 68.7208 43.1438 68.9305 43.5241 69.304C43.9045 69.6774 44.1182 70.1838 44.1182 70.7119C44.1331 70.9718 44.0786 71.231 43.96 71.4639C43.8414 71.6967 43.6629 71.8951 43.4421 72.0393ZM45.1323 41.1771C45.5764 40.864 46.1067 40.6904 46.6534 40.6793C46.9594 40.6048 47.279 40.6014 47.5866 40.6693C47.8942 40.7373 48.1815 40.8747 48.4256 41.0707C48.6697 41.2667 48.8638 41.5158 48.9927 41.7984C49.1215 42.0809 49.1814 42.3891 49.1677 42.6984C49.154 43.0076 49.0671 43.3095 48.9138 43.58C48.7604 43.8505 48.545 44.0822 48.2845 44.2567C48.024 44.4311 47.7257 44.5436 47.4132 44.585C47.1007 44.6265 46.7827 44.5959 46.4844 44.4956C46.2253 44.4966 45.9689 44.4445 45.7316 44.3426C45.4942 44.2407 45.2812 44.0912 45.1062 43.9037C44.9311 43.7163 44.7979 43.495 44.7151 43.254C44.6323 43.013 44.6017 42.7577 44.6252 42.5045C44.6371 42.0186 44.8157 41.5508 45.1323 41.1771ZM48.5125 70.7119C48.5125 71.1959 48.3167 71.6602 47.968 72.0025C47.6193 72.3448 47.1465 72.5371 46.6534 72.5371C46.3954 72.5602 46.1353 72.5301 45.8899 72.4488C45.6445 72.3675 45.419 72.2367 45.2281 72.0649C45.0371 71.893 44.8848 71.6839 44.781 71.4509C44.6772 71.2179 44.6241 70.9662 44.6252 70.7119C44.6103 70.452 44.6648 70.1927 44.7834 69.9599C44.902 69.727 45.0805 69.5287 45.3013 69.3845C45.6393 68.8867 46.1463 68.8867 46.6534 68.7208C46.9124 68.7197 47.1688 68.7718 47.4062 68.8737C47.6435 68.9757 47.8565 69.1251 48.0316 69.3126C48.2066 69.5001 48.3398 69.7214 48.4226 69.9624C48.5055 70.2033 48.5361 70.4586 48.5125 70.7119ZM46.4844 49.1415C46.222 49.1415 45.9632 49.0815 45.7285 48.9663C45.4938 48.8511 45.2897 48.6839 45.1323 48.4778C44.8391 48.2143 44.6397 47.8656 44.5633 47.4827C44.4869 47.0998 44.5374 46.7029 44.7076 46.3503C44.8777 45.9977 45.1585 45.7079 45.5086 45.5234C45.8588 45.3389 46.26 45.2695 46.6534 45.3252C46.9181 45.3105 47.1822 45.3641 47.4194 45.4805C47.6565 45.5969 47.8586 45.7722 48.0055 45.9889C48.2986 46.2524 48.498 46.6012 48.5744 46.984C48.6509 47.3669 48.6003 47.7638 48.4302 48.1164C48.26 48.469 47.9793 48.7588 47.6291 48.9433C47.2789 49.1278 46.8777 49.1972 46.4844 49.1415ZM48.5125 51.9622C48.5136 52.2166 48.4605 52.4683 48.3567 52.7013C48.2529 52.9343 48.1006 53.1434 47.9097 53.3153C47.7187 53.4871 47.4933 53.6179 47.2478 53.6992C47.0024 53.7805 46.7423 53.8106 46.4844 53.7874C46.2366 53.7972 45.9893 53.7582 45.7571 53.6727C45.5249 53.5872 45.3124 53.457 45.1323 53.2897C44.8133 52.8536 44.6366 52.333 44.6252 51.7963C44.6241 51.542 44.6772 51.2903 44.781 51.0573C44.8848 50.8243 45.0371 50.6152 45.2281 50.4433C45.419 50.2715 45.6445 50.1407 45.8899 50.0594C46.1353 49.9781 46.3954 49.948 46.6534 49.9711C46.9181 49.9565 47.1822 50.01 47.4194 50.1264C47.6565 50.2428 47.8586 50.4181 48.0055 50.6348C48.1759 50.8117 48.3086 51.0203 48.3956 51.2482C48.4827 51.4762 48.5225 51.719 48.5125 51.9622ZM45.1323 55.2808C45.5041 54.9543 45.9855 54.7737 46.4844 54.7737C46.9832 54.7737 47.4646 54.9543 47.8365 55.2808C48.0572 55.425 48.2358 55.6233 48.3544 55.8562C48.4729 56.089 48.5275 56.3483 48.5125 56.6082C48.5361 56.8614 48.5055 57.1167 48.4226 57.3577C48.3398 57.5987 48.2066 57.82 48.0316 58.0074C47.8565 58.1949 47.6435 58.3444 47.4062 58.4463C47.1688 58.5482 46.9124 58.6003 46.6534 58.5993C46.3954 58.6224 46.1353 58.5923 45.8899 58.511C45.6445 58.4297 45.419 58.2989 45.2281 58.1271C45.0371 57.9553 44.8848 57.7461 44.781 57.5131C44.6772 57.2801 44.6241 57.0284 44.6252 56.7741C44.6366 56.2374 44.8133 55.7168 45.1323 55.2808ZM48.5125 61.42C48.5136 61.6743 48.4605 61.9261 48.3567 62.1591C48.2529 62.3921 48.1006 62.6012 47.9097 62.773C47.7187 62.9449 47.4933 63.0756 47.2478 63.157C47.0024 63.2383 46.7423 63.2683 46.4844 63.2452C45.9913 63.2452 45.5184 63.0529 45.1697 62.7106C44.8211 62.3683 44.6252 61.9041 44.6252 61.42C44.6252 60.892 44.8389 60.3855 45.2192 60.0121C45.5996 59.6387 46.1155 59.4289 46.6534 59.4289C46.9124 59.4279 47.1688 59.48 47.4062 59.5819C47.6435 59.6838 47.8565 59.8333 48.0316 60.0208C48.2066 60.2082 48.3398 60.4295 48.4226 60.6705C48.5055 60.9115 48.5361 61.1668 48.5125 61.42ZM45.3013 64.5726C45.5365 64.4116 45.8065 64.3061 46.0902 64.2645C46.3739 64.223 46.6635 64.2464 46.9364 64.333C47.2093 64.4196 47.4581 64.567 47.6634 64.7637C47.8686 64.9604 48.0247 65.201 48.1195 65.4668C48.2142 65.7326 48.245 66.0162 48.2095 66.2956C48.174 66.5751 48.0732 66.8426 47.9148 67.0774C47.7565 67.3122 47.545 67.5078 47.2968 67.649C47.0486 67.7901 46.7706 67.873 46.4844 67.8911C46.2196 67.9058 45.9556 67.8523 45.7184 67.7359C45.4812 67.6194 45.2791 67.4442 45.1323 67.2274C44.9618 67.0506 44.8292 66.842 44.7421 66.614C44.655 66.3861 44.6153 66.1433 44.6252 65.9C44.6103 65.6401 44.6648 65.3809 44.7834 65.148C44.902 64.9152 45.0805 64.7168 45.3013 64.5726ZM47.8365 77.0171C47.6883 77.1799 47.5056 77.3089 47.3012 77.3949C47.0968 77.4809 46.8757 77.5218 46.6534 77.5148H46.4844C46.1783 77.5893 45.8588 77.5928 45.5511 77.5248C45.2435 77.4569 44.9562 77.3194 44.7121 77.1235C44.4681 76.9275 44.2739 76.6783 44.1451 76.3957C44.0163 76.1132 43.9563 75.805 43.97 75.4958C43.9837 75.1865 44.0707 74.8846 44.224 74.6141C44.3773 74.3436 44.5928 74.1119 44.8532 73.9375C45.1137 73.763 45.4121 73.6506 45.7245 73.6091C46.037 73.5676 46.3551 73.5982 46.6534 73.6985C46.9124 73.6975 47.1688 73.7496 47.4062 73.8515C47.6435 73.9534 47.8565 74.1029 48.0316 74.2904C48.2066 74.4779 48.3398 74.6992 48.4226 74.9401C48.5055 75.1811 48.5361 75.4364 48.5125 75.6897C48.5275 75.9496 48.4729 76.2088 48.3544 76.4416C48.2358 76.6745 48.0572 76.8728 47.8365 77.0171ZM51.0477 36.0334C51.4411 35.9776 51.8423 36.0471 52.1925 36.2316C52.5427 36.4161 52.8234 36.7059 52.9935 37.0585C53.1637 37.4111 53.2142 37.8079 53.1378 38.1908C53.0614 38.5737 52.862 38.9225 52.5689 39.186C52.3776 39.3959 52.1431 39.5637 51.8809 39.6781C51.6186 39.7925 51.3347 39.851 51.0477 39.8497C50.5396 39.8079 50.0662 39.5799 49.7217 39.2109C49.3771 38.8419 49.1868 38.3591 49.1886 37.8585C49.1886 37.3745 49.3845 36.9102 49.7331 36.5679C50.0818 36.2257 50.5547 36.0334 51.0477 36.0334ZM51.2168 63.2452H51.0477C50.783 63.2599 50.5189 63.2063 50.2818 63.0899C50.0446 62.9735 49.8425 62.7982 49.6956 62.5815C49.5252 62.4046 49.3925 62.1961 49.3055 61.9681C49.2184 61.7401 49.1786 61.4974 49.1886 61.2541C49.2272 60.7827 49.4355 60.3401 49.7761 60.0057C50.1168 59.6713 50.5675 59.4668 51.0477 59.4289C51.2955 59.4192 51.5428 59.4582 51.775 59.5437C52.0072 59.6291 52.2197 59.7594 52.3999 59.9267C52.6206 60.0709 52.7991 60.2693 52.9177 60.5021C53.0363 60.735 53.0909 60.9942 53.0759 61.2541C53.0995 61.5074 53.0688 61.7627 52.986 62.0036C52.9032 62.2446 52.77 62.4659 52.5949 62.6534C52.4199 62.8408 52.2069 62.9903 51.9695 63.0922C51.7322 63.1942 51.4758 63.2463 51.2168 63.2452ZM53.0759 66.066C53.077 66.3203 53.0239 66.572 52.9201 66.805C52.8163 67.038 52.664 67.2471 52.473 67.419C52.2821 67.5908 52.0567 67.7216 51.8112 67.8029C51.5658 67.8842 51.3057 67.9143 51.0477 67.8911C50.7887 67.8922 50.5323 67.8401 50.295 67.7382C50.0576 67.6362 49.8446 67.4868 49.6696 67.2993C49.4945 67.1118 49.3613 66.8905 49.2785 66.6495C49.1957 66.4086 49.165 66.1533 49.1886 65.9C49.2113 65.466 49.3911 65.0541 49.6956 64.7385C50.0424 64.3545 50.5268 64.1168 51.0477 64.0748C51.3347 64.0735 51.6186 64.132 51.8809 64.2464C52.1431 64.3608 52.3776 64.5286 52.5689 64.7385C52.7393 64.9154 52.8719 65.124 52.959 65.3519C53.0461 65.5799 53.0858 65.8227 53.0759 66.066ZM52.5689 57.9356C52.422 58.1523 52.2199 58.3276 51.9827 58.444C51.7456 58.5604 51.4815 58.614 51.2168 58.5993H51.0477C50.783 58.614 50.5189 58.5604 50.2818 58.444C50.0446 58.3276 49.8425 58.1523 49.6956 57.9356C49.5252 57.7587 49.3925 57.5501 49.3055 57.3222C49.2184 57.0942 49.1786 56.8514 49.1886 56.6082C49.1886 56.1241 49.3845 55.6599 49.7331 55.3176C50.0818 54.9753 50.5547 54.783 51.0477 54.783C51.5576 54.7812 52.0494 54.9681 52.4253 55.3063C52.8011 55.6446 53.0334 56.1094 53.0759 56.6082C53.0858 56.8514 53.0461 57.0942 52.959 57.3222C52.8719 57.5501 52.7393 57.7587 52.5689 57.9356ZM49.6956 50.6348C49.8425 50.4181 50.0446 50.2428 50.2818 50.1264C50.5189 50.01 50.783 49.9565 51.0477 49.9711C51.5856 49.9711 52.1015 50.1809 52.4819 50.5543C52.8622 50.9277 53.0759 51.4342 53.0759 51.9622C53.0332 52.4737 52.791 52.9492 52.3999 53.2897C52.2197 53.457 52.0072 53.5872 51.775 53.6727C51.5428 53.7582 51.2955 53.7972 51.0477 53.7874C50.8036 53.7874 50.5618 53.7402 50.3363 53.6485C50.1107 53.5568 49.9058 53.4223 49.7331 53.2528C49.5605 53.0834 49.4235 52.8822 49.3301 52.6607C49.2367 52.4393 49.1886 52.2019 49.1886 51.9622C49.1786 51.719 49.2184 51.4762 49.3055 51.2482C49.3925 51.0203 49.5252 50.8117 49.6956 50.6348ZM49.1886 47.3163C49.165 47.0631 49.1957 46.8078 49.2785 46.5668C49.3613 46.3258 49.4945 46.1045 49.6696 45.9171C49.8446 45.7296 50.0576 45.5801 50.295 45.4782C50.5323 45.3763 50.7887 45.3242 51.0477 45.3252C51.2966 45.305 51.5469 45.3391 51.7807 45.4252C52.0145 45.5113 52.2259 45.6471 52.3999 45.823C52.816 46.2145 53.0588 46.7508 53.0759 47.3163C53.0759 47.8141 52.7379 48.146 52.3999 48.6437C52.2197 48.811 52.0072 48.9413 51.775 49.0268C51.5428 49.1123 51.2955 49.1513 51.0477 49.1415C50.5675 49.1036 50.1168 48.8992 49.7761 48.5647C49.4355 48.2303 49.2272 47.7878 49.1886 47.3163ZM52.3999 43.9978C52.2197 44.1651 52.0072 44.2953 51.775 44.3808C51.5428 44.4663 51.2955 44.5053 51.0477 44.4956C50.5396 44.4539 50.0662 44.2258 49.7217 43.8568C49.3771 43.4879 49.1868 43.005 49.1886 42.5045C49.3305 42.0978 49.6026 41.7471 49.9643 41.5048C50.3261 41.2625 50.758 41.1417 51.1954 41.1604C51.6329 41.179 52.0525 41.3362 52.3915 41.6084C52.7304 41.8806 52.9705 42.2531 53.0759 42.6704C53.0909 42.9303 53.0363 43.1895 52.9177 43.4224C52.7991 43.6552 52.6206 43.8536 52.3999 43.9978ZM52.5689 72.0393C52.1247 72.3524 51.5944 72.5259 51.0477 72.5371C50.6292 72.4146 50.262 72.1627 50.001 71.8189C49.7399 71.4751 49.5989 71.0577 49.5989 70.6289C49.5989 70.2001 49.7399 69.7828 50.001 69.4389C50.262 69.0951 50.6292 68.8433 51.0477 68.7208C51.3141 68.7208 51.5778 68.7723 51.8239 68.8723C52.07 68.9724 52.2935 69.1191 52.4819 69.304C52.6702 69.4888 52.8196 69.7083 52.9215 69.9499C53.0234 70.1915 53.0759 70.4504 53.0759 70.7119C53.0858 70.9552 53.0461 71.1979 52.959 71.4259C52.8719 71.6539 52.7393 71.8624 52.5689 72.0393ZM55.7801 67.8911C55.5138 67.8911 55.2501 67.8396 55.004 67.7396C54.7579 67.6395 54.5343 67.4928 54.346 67.308C54.1577 67.1231 54.0083 66.9036 53.9064 66.662C53.8044 66.4204 53.752 66.1615 53.752 65.9C53.7747 65.466 53.9545 65.0541 54.259 64.7385C54.4503 64.5286 54.6848 64.3608 54.947 64.2464C55.2092 64.132 55.4932 64.0735 55.7801 64.0748C56.2751 64.0865 56.7515 64.2619 57.1322 64.5726C57.4207 64.9618 57.596 65.4206 57.6393 65.9C57.6628 66.1533 57.6322 66.4086 57.5494 66.6495C57.4666 66.8905 57.3334 67.1118 57.1583 67.2993C56.9833 67.4868 56.7703 67.6362 56.5329 67.7382C56.2956 67.8401 56.0392 67.8922 55.7801 67.8911ZM55.7801 63.2452C55.5138 63.2452 55.2501 63.1937 55.004 63.0936C54.7579 62.9936 54.5343 62.8469 54.346 62.662C54.1577 62.4771 54.0083 62.2576 53.9064 62.0161C53.8044 61.7745 53.752 61.5156 53.752 61.2541C53.7947 60.7426 54.0368 60.2671 54.428 59.9267C54.6082 59.7594 54.8206 59.6291 55.0528 59.5437C55.285 59.4582 55.5323 59.4192 55.7801 59.4289C56.0449 59.4142 56.3089 59.4678 56.5461 59.5842C56.7833 59.7006 56.9854 59.8759 57.1322 60.0926C57.3027 60.2695 57.4353 60.4781 57.5224 60.706C57.6095 60.934 57.6492 61.1768 57.6393 61.42C57.6393 61.9041 57.4434 62.3683 57.0948 62.7106C56.7461 63.0529 56.2732 63.2452 55.7801 63.2452ZM55.7801 58.5993C55.3868 58.655 54.9856 58.5856 54.6354 58.4011C54.2852 58.2166 54.0045 57.9268 53.8343 57.5742C53.6642 57.2216 53.6136 56.8247 53.6901 56.4418C53.7665 56.0589 53.9659 55.7102 54.259 55.4467C54.6057 55.0627 55.0901 54.8249 55.6111 54.783C55.9094 54.6827 56.2275 54.6521 56.54 54.6935C56.8524 54.735 57.1508 54.8474 57.4113 55.0219C57.6717 55.1964 57.8872 55.428 58.0405 55.6986C58.1938 55.9691 58.2808 56.2709 58.2945 56.5802C58.3082 56.8895 58.2482 57.1976 58.1194 57.4802C57.9906 57.7627 57.7964 58.0119 57.5524 58.2079C57.3083 58.4039 57.021 58.5413 56.7134 58.6093C56.4057 58.6772 56.0862 58.6738 55.7801 58.5993ZM54.259 50.6348C54.6057 50.2508 55.0901 50.013 55.6111 49.9711H55.7801C56.0392 49.9701 56.2956 50.0222 56.5329 50.1241C56.7703 50.226 56.9833 50.3755 57.1583 50.563C57.3334 50.7505 57.4666 50.9718 57.5494 51.2127C57.6322 51.4537 57.6628 51.709 57.6393 51.9622C57.6007 52.4337 57.3924 52.8762 57.0518 53.2106C56.7111 53.5451 56.2603 53.7495 55.7801 53.7874H55.6111C55.367 53.7874 55.1252 53.7402 54.8997 53.6485C54.6741 53.5568 54.4691 53.4223 54.2965 53.2528C54.1239 53.0834 53.9869 52.8822 53.8935 52.6607C53.8001 52.4393 53.752 52.2019 53.752 51.9622C53.742 51.719 53.7818 51.4762 53.8689 51.2482C53.9559 51.0203 54.0886 50.8117 54.259 50.6348ZM53.752 47.3163C53.742 47.073 53.7818 46.8303 53.8689 46.6023C53.9559 46.3743 54.0886 46.1658 54.259 45.9889C54.4059 45.7722 54.608 45.5969 54.8451 45.4805C55.0823 45.3641 55.3464 45.3105 55.6111 45.3252C55.8691 45.3021 56.1291 45.3321 56.3746 45.4135C56.62 45.4948 56.8455 45.6255 57.0364 45.7974C57.2274 45.9692 57.3797 46.1784 57.4835 46.4114C57.5873 46.6444 57.6404 46.8961 57.6393 47.1504C57.6279 47.687 57.4512 48.2077 57.1322 48.6437C56.7515 48.9545 56.2751 49.1299 55.7801 49.1415H55.6111C55.1309 49.1036 54.6801 48.8992 54.3395 48.5647C53.9988 48.2303 53.7906 47.7878 53.752 47.3163ZM57.1322 43.9978C56.7515 44.3085 56.2751 44.4839 55.7801 44.4956C55.2809 44.4635 54.8078 44.2651 54.439 43.9332C54.0702 43.6013 53.8279 43.1559 53.752 42.6704C53.7284 42.4171 53.759 42.1618 53.8419 41.9209C53.9247 41.6799 54.0579 41.4586 54.2329 41.2711C54.408 41.0837 54.621 40.9342 54.8583 40.8323C55.0957 40.7303 55.3521 40.6782 55.6111 40.6793C55.8858 40.6564 56.1624 40.6888 56.4239 40.7743C56.6855 40.8599 56.9265 40.997 57.1322 41.1771C57.4731 41.6017 57.6525 42.1299 57.6393 42.6704C57.596 43.1498 57.4207 43.6086 57.1322 43.9978ZM53.752 38.0245C53.742 37.7812 53.7818 37.5384 53.8689 37.3105C53.9559 37.0825 54.0886 36.8739 54.259 36.6971C54.4327 36.467 54.664 36.2849 54.9306 36.1686C55.1971 36.0523 55.4898 36.0057 55.7801 36.0334C56.2732 36.0334 56.7461 36.2257 57.0948 36.5679C57.4434 36.9102 57.6393 37.3745 57.6393 37.8585C57.6492 38.1018 57.6095 38.3446 57.5224 38.5726C57.4353 38.8005 57.3027 39.0091 57.1322 39.186C56.941 39.3959 56.7065 39.5637 56.4442 39.6781C56.182 39.7925 55.8981 39.851 55.6111 39.8497C55.1422 39.7829 54.7078 39.5691 54.3728 39.2402C54.0377 38.9113 53.82 38.4848 53.752 38.0245ZM57.1322 34.706L55.7801 35.2037H55.6111C55.103 35.162 54.6296 34.934 54.285 34.565C53.9405 34.196 53.7502 33.7132 53.752 33.2126C53.737 32.9527 53.7915 32.6935 53.9101 32.4606C54.0287 32.2278 54.2073 32.0294 54.428 31.8852C54.6082 31.7179 54.8206 31.5877 55.0528 31.5022C55.285 31.4167 55.5323 31.3777 55.7801 31.3874C56.2732 31.3874 56.7461 31.5797 57.0948 31.922C57.4434 32.2643 57.6393 32.7286 57.6393 33.2126C57.6279 33.7493 57.4512 34.2699 57.1322 34.706ZM60.3435 63.2452C59.83 63.1771 59.3535 62.9454 58.9871 62.5857C58.6207 62.226 58.3847 61.7582 58.3153 61.2541C58.3578 60.7553 58.5901 60.2905 58.966 59.9523C59.3418 59.614 59.8337 59.4272 60.3435 59.4289C60.6026 59.4279 60.859 59.48 61.0963 59.5819C61.3336 59.6838 61.5467 59.8333 61.7217 60.0208C61.8967 60.2082 62.0299 60.4295 62.1128 60.6705C62.1956 60.9115 62.2262 61.1668 62.2027 61.42C62.2027 61.9041 62.0068 62.3683 61.6581 62.7106C61.3095 63.0529 60.8366 63.2452 60.3435 63.2452ZM60.3435 58.5993C60.0772 58.5993 59.8134 58.5478 59.5674 58.4477C59.3213 58.3477 59.0977 58.201 58.9094 58.0161C58.7211 57.8312 58.5717 57.6117 58.4697 57.3701C58.3678 57.1286 58.3153 56.8696 58.3153 56.6082C58.358 56.0967 58.6002 55.6212 58.9914 55.2808C59.1716 55.1135 59.384 54.9832 59.6162 54.8977C59.8484 54.8122 60.0957 54.7732 60.3435 54.783C60.5913 54.7732 60.8386 54.8122 61.0708 54.8977C61.303 54.9832 61.5155 55.1135 61.6956 55.2808C61.8791 55.4828 62.0187 55.7194 62.1059 55.9762C62.193 56.2329 62.226 56.5044 62.2027 56.7741C62.2027 57.2582 62.0068 57.7224 61.6581 58.0647C61.3095 58.407 60.8366 58.5993 60.3435 58.5993ZM61.6956 48.6437C61.3149 48.9545 60.8385 49.1299 60.3435 49.1415H60.1745C59.6664 49.0998 59.193 48.8717 58.8484 48.5028C58.5039 48.1338 58.3136 47.6509 58.3153 47.1504C58.3153 46.6526 58.6534 46.3208 58.9914 45.823C59.1716 45.6557 59.384 45.5254 59.6162 45.44C59.8484 45.3545 60.0957 45.3155 60.3435 45.3252C60.6083 45.3105 60.8723 45.3641 61.1095 45.4805C61.3467 45.5969 61.5487 45.7722 61.6956 45.9889C62.0282 46.354 62.2121 46.8266 62.2121 47.3163C62.2121 47.8061 62.0282 48.2787 61.6956 48.6437ZM62.2027 51.9622C62.2126 52.2055 62.1729 52.4483 62.0858 52.6763C61.9987 52.9042 61.8661 53.1128 61.6956 53.2897C61.3149 53.6004 60.8385 53.7758 60.3435 53.7874H60.1745C59.8684 53.8619 59.5489 53.8653 59.2413 53.7974C58.9336 53.7295 58.6464 53.592 58.4023 53.396C58.1582 53.2 57.964 52.9509 57.8352 52.6683C57.7064 52.3858 57.6464 52.0776 57.6601 51.7684C57.6738 51.4591 57.7608 51.1572 57.9141 50.8867C58.0674 50.6162 58.2829 50.3845 58.5434 50.21C58.8039 50.0356 59.1022 49.9232 59.4147 49.8817C59.7272 49.8402 60.0452 49.8708 60.3435 49.9711C60.6083 49.9565 60.8723 50.01 61.1095 50.1264C61.3467 50.2428 61.5487 50.4181 61.6956 50.6348C61.8661 50.8117 61.9987 51.0203 62.0858 51.2482C62.1729 51.4762 62.2126 51.719 62.2027 51.9622ZM60.3435 44.4956C60.0957 44.5053 59.8484 44.4663 59.6162 44.3808C59.384 44.2953 59.1716 44.1651 58.9914 43.9978C58.629 43.5714 58.3949 43.0543 58.3153 42.5045C58.3143 42.2502 58.3674 41.9984 58.4712 41.7654C58.575 41.5324 58.7273 41.3233 58.9182 41.1515C59.1092 40.9796 59.3346 40.8488 59.58 40.7675C59.8255 40.6862 60.0855 40.6562 60.3435 40.6793C60.7621 40.8018 61.1292 41.0537 61.3903 41.3975C61.6513 41.7413 61.7923 42.1586 61.7923 42.5874C61.7923 43.0162 61.6513 43.4336 61.3903 43.7774C61.1292 44.1212 60.7621 44.3731 60.3435 44.4956ZM60.3435 39.8497C60.0788 39.8643 59.8147 39.8108 59.5775 39.6944C59.3404 39.578 59.1383 39.4027 58.9914 39.186C58.7706 39.0417 58.5921 38.8434 58.4735 38.6105C58.3549 38.3777 58.3004 38.1185 58.3153 37.8585C58.3578 37.3597 58.5901 36.8949 58.966 36.5567C59.3418 36.2185 59.8337 36.0316 60.3435 36.0334C60.5913 36.0236 60.8386 36.0626 61.0708 36.1481C61.303 36.2336 61.5155 36.3638 61.6956 36.5311C62.0365 36.9558 62.2158 37.4839 62.2027 38.0245C62.2027 38.5085 62.0068 38.9728 61.6581 39.3151C61.3095 39.6574 60.8366 39.8497 60.3435 39.8497ZM61.6956 34.706C61.5155 34.8733 61.303 35.0035 61.0708 35.089C60.8386 35.1745 60.5913 35.2135 60.3435 35.2037C59.8337 35.2055 59.3418 35.0186 58.966 34.6804C58.5901 34.3422 58.3578 33.8774 58.3153 33.3785C58.3153 32.8505 58.529 32.344 58.9094 31.9706C59.2897 31.5972 59.8056 31.3874 60.3435 31.3874C60.5942 31.3613 60.8476 31.3905 61.0853 31.473C61.323 31.5555 61.5388 31.6891 61.7171 31.8641C61.8953 32.0391 62.0315 32.2511 62.1155 32.4844C62.1995 32.7177 62.2293 32.9665 62.2027 33.2126C62.2158 33.7532 62.0365 34.2813 61.6956 34.706ZM65.0759 58.5993C64.5549 58.5574 64.0705 58.3196 63.7238 57.9356C63.5534 57.7587 63.4207 57.5501 63.3336 57.3222C63.2466 57.0942 63.2068 56.8514 63.2168 56.6082C63.2168 56.1241 63.4126 55.6599 63.7613 55.3176C64.11 54.9753 64.5828 54.783 65.0759 54.783C65.6138 54.783 66.1297 54.9928 66.51 55.3662C66.8904 55.7396 67.1041 56.246 67.1041 56.7741C67.1052 57.0284 67.0521 57.2801 66.9483 57.5131C66.8444 57.7461 66.6922 57.9553 66.5012 58.1271C66.3103 58.2989 66.0848 58.4297 65.8394 58.511C65.5939 58.5923 65.3339 58.6224 65.0759 58.5993ZM65.0759 49.9711C65.5894 50.0392 66.0659 50.2709 66.4323 50.6306C66.7987 50.9903 67.0347 51.4581 67.1041 51.9622C67.0282 52.4477 66.7858 52.8932 66.417 53.2251C66.0482 53.5569 65.5751 53.7553 65.0759 53.7874C64.8281 53.7972 64.5808 53.7582 64.3486 53.6727C64.1164 53.5872 63.904 53.457 63.7238 53.2897C63.4049 52.8536 63.2281 52.333 63.2168 51.7963C63.2168 51.5566 63.2648 51.3193 63.3583 51.0979C63.4517 50.8764 63.5887 50.6752 63.7613 50.5057C63.9339 50.3362 64.1389 50.2018 64.3644 50.1101C64.59 50.0183 64.8318 49.9711 65.0759 49.9711ZM63.2168 47.1504C63.2168 46.9107 63.2648 46.6734 63.3583 46.4519C63.4517 46.2305 63.5887 46.0293 63.7613 45.8598C63.9339 45.6903 64.1389 45.5559 64.3644 45.4641C64.59 45.3724 64.8318 45.3252 65.0759 45.3252C65.3407 45.3105 65.6047 45.3641 65.8419 45.4805C66.0791 45.5969 66.2811 45.7722 66.428 45.9889C66.6379 46.1435 66.8083 46.3439 66.9257 46.5743C67.043 46.8047 67.1041 47.0587 67.1041 47.3163C67.1041 47.5739 67.043 47.828 66.9257 48.0584C66.8083 48.2888 66.6379 48.4892 66.428 48.6437C66.2479 48.811 66.0354 48.9413 65.8032 49.0268C65.571 49.1123 65.3237 49.1513 65.0759 49.1415C64.8169 49.1426 64.5605 49.0905 64.3231 48.9885C64.0858 48.8866 63.8728 48.7371 63.6977 48.5497C63.5227 48.3622 63.3895 48.1409 63.3066 47.8999C63.2238 47.659 63.1932 47.4037 63.2168 47.1504ZM67.1041 42.6704C67.0616 43.1692 66.8293 43.634 66.4535 43.9722C66.0776 44.3105 65.5858 44.4973 65.0759 44.4956C64.5828 44.4956 64.11 44.3033 63.7613 43.961C63.4126 43.6187 63.2168 43.1545 63.2168 42.6704C63.2036 42.1299 63.3829 41.6017 63.7238 41.1771C63.904 41.0098 64.1164 40.8795 64.3486 40.794C64.5808 40.7085 64.8281 40.6695 65.0759 40.6793C65.3247 40.6591 65.5751 40.6932 65.8088 40.7793C66.0426 40.8653 66.2541 41.0012 66.428 41.1771C66.6419 41.3649 66.8128 41.5951 66.9293 41.8525C67.0458 42.1099 67.1054 42.3887 67.1041 42.6704ZM65.0759 39.8497C64.8169 39.8507 64.5605 39.7986 64.3231 39.6967C64.0858 39.5948 63.8728 39.4453 63.6977 39.2578C63.5227 39.0703 63.3895 38.849 63.3066 38.6081C63.2238 38.3671 63.1932 38.1118 63.2168 37.8585C63.2395 37.4245 63.4193 37.0126 63.7238 36.6971C63.8707 36.4803 64.0728 36.3051 64.3099 36.1886C64.5471 36.0722 64.8112 36.0187 65.0759 36.0334C65.3237 36.0236 65.571 36.0626 65.8032 36.1481C66.0354 36.2336 66.2479 36.3638 66.428 36.5311C66.6512 36.7114 66.8285 36.9402 66.9458 37.1994C67.0632 37.4586 67.1174 37.7411 67.1041 38.0245C67.0616 38.5233 66.8293 38.9881 66.4535 39.3263C66.0776 39.6645 65.5858 39.8514 65.0759 39.8497ZM66.428 34.706C66.2479 34.8733 66.0354 35.0035 65.8032 35.089C65.571 35.1745 65.3237 35.2135 65.0759 35.2037C64.5828 35.2037 64.11 35.0114 63.7613 34.6691C63.4126 34.3269 63.2168 33.8626 63.2168 33.3785C63.1935 33.1089 63.2264 32.8374 63.3136 32.5806C63.4008 32.3238 63.5403 32.0872 63.7238 31.8852C63.904 31.7179 64.1164 31.5877 64.3486 31.5022C64.5808 31.4167 64.8281 31.3777 65.0759 31.3874C65.3339 31.3643 65.5939 31.3944 65.8394 31.4757C66.0848 31.557 66.3103 31.6878 66.5012 31.8596C66.6922 32.0315 66.8444 32.2406 66.9483 32.4736C67.0521 32.7066 67.1052 32.9583 67.1041 33.2126C67.0245 33.7624 66.7904 34.2796 66.428 34.706ZM69.6393 53.7874C69.3803 53.7885 69.1238 53.7364 68.8865 53.6345C68.6492 53.5325 68.4362 53.3831 68.2611 53.1956C68.0861 53.0081 67.9529 52.7868 67.87 52.5458C67.7872 52.3049 67.7566 52.0496 67.7801 51.7963C67.7652 51.5364 67.8197 51.2772 67.9383 51.0443C68.0569 50.8115 68.2354 50.6131 68.4562 50.4689C68.6364 50.3016 68.8488 50.1714 69.081 50.0859C69.3132 50.0004 69.5605 49.9614 69.8083 49.9711C70.3293 50.013 70.8137 50.2508 71.1604 50.6348C71.3308 50.8117 71.4635 51.0203 71.5506 51.2482C71.6377 51.4762 71.6774 51.719 71.6675 51.9622C71.625 52.4611 71.3927 52.9259 71.0168 53.2641C70.641 53.6023 70.1492 53.7892 69.6393 53.7874ZM69.6393 49.1415C69.1443 49.1299 68.6679 48.9545 68.2872 48.6437C67.9463 48.2191 67.767 47.6909 67.7801 47.1504C67.7702 46.9071 67.8099 46.6644 67.897 46.4364C67.9841 46.2084 68.1168 45.9999 68.2872 45.823L69.8083 45.3252C70.0731 45.3105 70.3371 45.3641 70.5743 45.4805C70.8115 45.5969 71.0135 45.7722 71.1604 45.9889C71.3308 46.1658 71.4635 46.3743 71.5506 46.6023C71.6377 46.8303 71.6774 47.073 71.6675 47.3163C71.625 47.8151 71.3927 48.2799 71.0168 48.6182C70.641 48.9564 70.1492 49.1432 69.6393 49.1415ZM70.9914 43.9978C70.8112 44.1651 70.5988 44.2953 70.3666 44.3808C70.1344 44.4663 69.8871 44.5053 69.6393 44.4956C69.3366 44.5842 69.017 44.6021 68.706 44.548C68.3949 44.4939 68.1011 44.3692 67.8478 44.1838C67.5946 43.9985 67.3889 43.7577 67.2472 43.4805C67.1055 43.2033 67.0318 42.8975 67.0318 42.5874C67.0318 42.2773 67.1055 41.9715 67.2472 41.6944C67.3889 41.4172 67.5946 41.1764 67.8478 40.991C68.1011 40.8057 68.3949 40.681 68.706 40.6269C69.017 40.5728 69.3366 40.5907 69.6393 40.6793C69.8973 40.6562 70.1573 40.6862 70.4028 40.7675C70.6482 40.8488 70.8736 40.9796 71.0646 41.1515C71.2556 41.3233 71.4078 41.5324 71.5116 41.7654C71.6155 41.9984 71.6685 42.2502 71.6675 42.5045C71.6807 42.7878 71.6265 43.0703 71.5092 43.3296C71.3918 43.5888 71.2146 43.8176 70.9914 43.9978ZM71.1604 39.186C70.9691 39.3959 70.7346 39.5637 70.4724 39.6781C70.2102 39.7925 69.9262 39.851 69.6393 39.8497C69.1462 39.8497 68.6733 39.6574 68.3247 39.3151C67.976 38.9728 67.7801 38.5085 67.7801 38.0245C67.767 37.4839 67.9463 36.9558 68.2872 36.5311C68.6683 36.2852 69.1227 36.1725 69.5771 36.2113C70.0315 36.2501 70.4592 36.4381 70.7914 36.745C71.1235 37.0519 71.3405 37.4597 71.4075 37.9026C71.4745 38.3455 71.3874 38.7976 71.1604 39.186Z" fill="white"/>
</svg>
