<svg xmlns="http://www.w3.org/2000/svg" width="27.604" height="23.928" viewBox="0 0 27.604 23.928">
  <g id="shop" transform="translate(-17.866)">
    <g id="Group_15" data-name="Group 15" transform="translate(17.866)">
      <path id="Path_1953" data-name="Path 1953" d="M41.135,0H22.2L17.866,5.47V8.215A3.335,3.335,0,0,0,20,11.149V23.928H43.467V11.089a3.3,3.3,0,0,0,2-2.874V5.47ZM23.261,1.561H40.075l2.661,3.357H20.6ZM33.924,22.367h-5.2V15.205h5.2Zm1.935,0V13.645H26.792v8.723H21.934V11.58l.109,0a4.622,4.622,0,0,0,3.209-1.214,4.846,4.846,0,0,0,6.417,0,4.846,4.846,0,0,0,6.417,0,4.622,4.622,0,0,0,3.209,1.214c.08,0,.159,0,.238-.006V22.367H35.86ZM43.535,8.215a2.293,2.293,0,0,1-4.482,0H37.118a2.062,2.062,0,0,1-2.241,1.807,2.062,2.062,0,0,1-2.241-1.807H30.7a2.062,2.062,0,0,1-2.241,1.807,2.062,2.062,0,0,1-2.241-1.807H24.283a2.062,2.062,0,0,1-2.241,1.807A2.062,2.062,0,0,1,19.8,8.215V6.478H43.535V8.215Z" transform="translate(-17.866)" fill="#fff"/>
    </g>
  </g>
</svg>
