<svg xmlns="http://www.w3.org/2000/svg" width="27.728" height="28" viewBox="0 0 27.728 28">
  <g id="Layer_2" data-name="Layer 2" transform="translate(-2 -2)">
    <path id="Path_12" data-name="Path 12" d="M23,30a3,3,0,0,0,3-3V22.953a1,1,0,0,0-2,0V27a1,1,0,0,1-1,1H5a1,1,0,0,1-1-1V5A1,1,0,0,1,5,4H23a1,1,0,0,1,1,1V8.084a1,1,0,0,0,2,0V5a3,3,0,0,0-3-3H5A3,3,0,0,0,2,5V27a3,3,0,0,0,3,3Z" fill="#fff"/>
    <path id="Path_13" data-name="Path 13" d="M7,19a1,1,0,0,0,0,2h4a1,1,0,0,0,0-2Z" fill="#fff"/>
    <path id="Path_14" data-name="Path 14" d="M26.606,10.565a1,1,0,0,0-1.414,0l-9.9,9.9a1,1,0,0,0-.293.707V23H7a1,1,0,0,0,0,2H18.829a1,1,0,0,0,.707-.293l9.9-9.9a1,1,0,0,0,0-1.414ZM18.415,23H17V21.586l8.9-8.9L27.314,14.1Z" fill="#fff"/>
    <path id="Path_15" data-name="Path 15" d="M15,10.5A4.5,4.5,0,1,0,10.5,15,4.5,4.5,0,0,0,15,10.5ZM10.5,13A2.5,2.5,0,1,1,13,10.5,2.5,2.5,0,0,1,10.5,13Z" fill="#fff"/>
  </g>
</svg>
