<svg width="60" height="60" viewBox="0 0 60 60" fill="none" xmlns="http://www.w3.org/2000/svg">
<rect opacity="0.2" width="60" height="60" rx="10" fill="#E6E8EC"/>
<path fill-rule="evenodd" clip-rule="evenodd" d="M21.2917 36.3333H36.3333C39.3189 36.3333 40.8117 36.3333 41.7392 35.4058C42.6667 34.4783 42.6667 32.9856 42.6667 30V22.0833C42.6667 19.0978 42.6667 17.605 41.7392 16.6775C40.8117 15.75 39.3189 15.75 36.3333 15.75H23.6667C20.6811 15.75 19.1883 15.75 18.2608 16.6775C17.3333 17.605 17.3333 19.0978 17.3333 22.0833V40.2917C17.3333 38.1055 19.1055 36.3333 21.2917 36.3333ZM36.1642 25.0809C36.9453 24.2998 36.9453 23.0335 36.1642 22.2525C35.3832 21.4714 34.1168 21.4714 33.3358 22.2525L28.4167 27.1716L26.6642 25.4191C25.8832 24.6381 24.6168 24.6381 23.8358 25.4191C23.0547 26.2002 23.0547 27.4665 23.8358 28.2475L26.2953 30.7071C27.4669 31.8787 29.3664 31.8787 30.538 30.7071L36.1642 25.0809Z" fill="#23262F"/>
<path d="M41.7392 35.4058L41.0321 34.6987L41.0321 34.6987L41.7392 35.4058ZM41.7392 16.6775L41.0321 17.3846L41.0321 17.3846L41.7392 16.6775ZM36.1642 22.2525L35.4571 22.9596L35.4571 22.9596L36.1642 22.2525ZM36.1642 25.0809L35.4571 24.3738L35.4571 24.3738L36.1642 25.0809ZM33.3358 22.2525L32.6287 21.5453V21.5453L33.3358 22.2525ZM28.4167 27.1716L27.7096 27.8787L28.4167 28.5858L29.1238 27.8787L28.4167 27.1716ZM26.6642 25.4191L27.3713 24.712L26.6642 25.4191ZM23.8358 25.4191L23.1287 24.712L23.1287 24.712L23.8358 25.4191ZM23.8358 28.2475L23.1287 28.9547L23.8358 28.2475ZM26.2953 30.7071L27.0024 30H27.0024L26.2953 30.7071ZM30.538 30.7071L31.2451 31.4142V31.4142L30.538 30.7071ZM36.3333 35.3333H21.2917V37.3333H36.3333V35.3333ZM41.0321 34.6987C40.7851 34.9457 40.4262 35.1253 39.6748 35.2263C38.8946 35.3312 37.8544 35.3333 36.3333 35.3333V37.3333C37.7978 37.3333 38.9968 37.3355 39.9413 37.2085C40.9145 37.0776 41.7658 36.7935 42.4463 36.1129L41.0321 34.6987ZM41.6667 30C41.6667 31.5211 41.6645 32.5612 41.5596 33.3414C41.4586 34.0929 41.279 34.4518 41.0321 34.6987L42.4463 36.1129C43.1268 35.4324 43.411 34.5812 43.5418 33.6079C43.6688 32.6635 43.6667 31.4645 43.6667 30H41.6667ZM41.6667 22.0833V30H43.6667V22.0833H41.6667ZM41.0321 17.3846C41.279 17.6316 41.4586 17.9904 41.5596 18.7419C41.6645 19.5221 41.6667 20.5623 41.6667 22.0833H43.6667C43.6667 20.6188 43.6688 19.4198 43.5418 18.4754C43.411 17.5022 43.1268 16.6509 42.4463 15.9704L41.0321 17.3846ZM36.3333 16.75C37.8544 16.75 38.8946 16.7521 39.6748 16.857C40.4262 16.958 40.7851 17.1376 41.0321 17.3846L42.4463 15.9704C41.7658 15.2899 40.9145 15.0057 39.9413 14.8749C38.9968 14.7479 37.7978 14.75 36.3333 14.75V16.75ZM23.6667 16.75H36.3333V14.75H23.6667V16.75ZM18.9679 17.3846C19.2149 17.1376 19.5738 16.958 20.3252 16.857C21.1054 16.7521 22.1456 16.75 23.6667 16.75V14.75C22.2022 14.75 21.0032 14.7479 20.0587 14.8749C19.0855 15.0057 18.2342 15.2899 17.5537 15.9704L18.9679 17.3846ZM18.3333 22.0833C18.3333 20.5623 18.3355 19.5221 18.4403 18.7419C18.5414 17.9904 18.721 17.6316 18.9679 17.3846L17.5537 15.9704C16.8732 16.6509 16.589 17.5022 16.4582 18.4754C16.3312 19.4198 16.3333 20.6188 16.3333 22.0833H18.3333ZM18.3333 40.2917V22.0833H16.3333V40.2917H18.3333ZM21.2917 35.3333C18.5532 35.3333 16.3333 37.5533 16.3333 40.2917H18.3333C18.3333 38.6578 19.6578 37.3333 21.2917 37.3333V35.3333ZM35.4571 22.9596C35.8476 23.3501 35.8476 23.9833 35.4571 24.3738L36.8713 25.788C38.0429 24.6164 38.0429 22.7169 36.8713 21.5453L35.4571 22.9596ZM34.0429 22.9596C34.4334 22.569 35.0666 22.569 35.4571 22.9596L36.8713 21.5453C35.6997 20.3738 33.8002 20.3738 32.6287 21.5453L34.0429 22.9596ZM29.1238 27.8787L34.0429 22.9596L32.6287 21.5453L27.7096 26.4645L29.1238 27.8787ZM25.9571 26.1262L27.7096 27.8787L29.1238 26.4645L27.3713 24.712L25.9571 26.1262ZM24.5429 26.1262C24.9334 25.7357 25.5666 25.7357 25.9571 26.1262L27.3713 24.712C26.1997 23.5404 24.3002 23.5404 23.1287 24.712L24.5429 26.1262ZM24.5429 27.5404C24.1524 27.1499 24.1524 26.5168 24.5429 26.1262L23.1287 24.712C21.9571 25.8836 21.9571 27.7831 23.1287 28.9547L24.5429 27.5404ZM27.0024 30L24.5429 27.5404L23.1287 28.9547L25.5882 31.4142L27.0024 30ZM29.8309 30C29.0498 30.781 27.7835 30.781 27.0024 30L25.5882 31.4142C27.1503 32.9763 29.683 32.9763 31.2451 31.4142L29.8309 30ZM35.4571 24.3738L29.8309 30L31.2451 31.4142L36.8713 25.788L35.4571 24.3738ZM28.4167 43.25H21.2917V45.25H28.4167V43.25ZM16.3333 40.2917C16.3333 43.0301 18.5532 45.25 21.2917 45.25V43.25C19.6578 43.25 18.3333 41.9255 18.3333 40.2917H16.3333Z" fill="#23262F"/>
<path d="M42.6667 44.25H26.8333" stroke="#23262F" stroke-width="2" stroke-linecap="round"/>
</svg>
