<svg width="33" height="33" viewBox="0 0 33 33" fill="none" xmlns="http://www.w3.org/2000/svg">
<path fill-rule="evenodd" clip-rule="evenodd" d="M28.7333 19.3579L27.1916 19.5997C27.1121 19.6132 27.0359 19.6324 26.9631 19.6567C25.8709 20.0218 25.5407 21.5463 26.4688 22.3096L27.6323 23.268L26.2006 25.747L24.7767 25.2138C24.701 25.1854 24.6253 25.1636 24.55 25.148C23.4203 24.9134 22.379 26.0653 22.8004 27.1901L23.3336 28.614L20.8547 30.0457L19.8962 28.8821C19.7936 28.7574 19.6776 28.6555 19.5528 28.5751C18.6791 28.0119 17.3726 28.5019 17.1863 29.605L16.9445 31.1467H15.5066H14.0688L13.827 29.605C13.611 28.3309 11.9298 27.8948 11.117 28.8821L10.1586 30.0457L7.67965 28.614L8.21285 27.1901C8.667 25.979 7.4363 24.7643 6.2366 25.2138L4.81267 25.747L3.38099 23.268L4.54452 22.3096C5.54014 21.4902 5.08547 19.8141 3.8217 19.5997L2.27997 19.3579V16.4821L3.8217 16.2403C5.0958 16.0254 5.53239 14.3437 4.54452 13.5304L3.38099 12.572L4.81267 10.093L6.2366 10.6262C7.44302 11.0783 8.66442 9.85538 8.21285 8.64999L7.67965 7.22606L10.1586 5.79438L11.117 6.95791C11.9323 7.94991 13.6115 7.50403 13.827 6.23509L14.0688 4.69336H15.5066H16.9445L17.1863 6.23509C17.2567 6.65214 17.485 6.9799 17.7888 7.1971C18.4109 7.64185 19.3495 7.62302 19.8962 6.95791L20.8547 5.79438L23.3336 7.22606L22.8004 8.64999C22.7722 8.72539 22.7505 8.80085 22.7349 8.87596C22.5011 10.0026 23.6466 11.0496 24.7767 10.6262L26.2006 10.093L27.6323 12.572L26.4688 13.5304C26.3448 13.6323 26.2432 13.7478 26.163 13.8722C25.6011 14.743 26.0813 16.0532 27.1916 16.2403L28.7333 16.4821V19.3579ZM15.5066 21.795C13.3702 21.795 11.6317 20.0569 11.6317 17.92C11.6317 15.7831 13.3702 14.0451 15.5066 14.045C17.643 14.045 19.3816 15.7831 19.3816 17.92C19.3816 19.7898 18.0506 21.3543 16.2866 21.7162C16.0346 21.7679 15.7737 21.795 15.5067 21.795" fill="#440A29"/>
<path d="M27.1916 19.5997L26.9592 18.1178L26.95 18.1193L26.9409 18.1208L27.1916 19.5997ZM28.7333 19.3579L28.9657 20.8398L30.2333 20.641V19.3579H28.7333ZM26.9631 19.6567L27.4387 21.0793L26.9631 19.6567ZM26.4688 22.3096L27.4224 21.1518L27.4216 21.1512L26.4688 22.3096ZM27.6323 23.268L28.9312 24.0182L29.5666 22.918L28.586 22.1103L27.6323 23.268ZM26.2006 25.747L25.6746 27.1518L26.8642 27.5972L27.4995 26.4972L26.2006 25.747ZM24.7767 25.2138L24.25 26.6183L24.2507 26.6186L24.7767 25.2138ZM24.55 25.148L24.245 26.6166L24.245 26.6167L24.55 25.148ZM22.8004 27.1901L24.2052 26.6641L24.2051 26.6638L22.8004 27.1901ZM23.3336 28.614L24.0838 29.9129L25.1838 29.2776L24.7384 28.088L23.3336 28.614ZM20.8547 30.0457L19.6969 30.9994L20.5046 31.98L21.6048 31.3446L20.8547 30.0457ZM19.8962 28.8821L18.738 29.8353L18.7384 29.8358L19.8962 28.8821ZM19.5528 28.5751L20.3654 27.3142H20.3654L19.5528 28.5751ZM17.1863 29.605L15.7073 29.3552L15.7058 29.3639L15.7044 29.3726L17.1863 29.605ZM16.9445 31.1467V32.6467H18.2276L18.4264 31.3791L16.9445 31.1467ZM14.0688 31.1467L12.5869 31.3791L12.7857 32.6467H14.0688V31.1467ZM13.827 29.605L15.3088 29.3726L15.3074 29.3634L15.3059 29.3543L13.827 29.605ZM11.117 28.8821L12.2748 29.8358L12.2752 29.8354L11.117 28.8821ZM10.1586 30.0457L9.40844 31.3446L10.5086 31.98L11.3164 30.9994L10.1586 30.0457ZM7.67965 28.614L6.27491 28.088L5.82944 29.2776L6.92948 29.9129L7.67965 28.614ZM8.21285 27.1901L6.80836 26.6634L6.80811 26.6641L8.21285 27.1901ZM6.2366 25.2138L6.76262 26.6186L6.76289 26.6185L6.2366 25.2138ZM4.81267 25.747L3.51373 26.4972L4.14904 27.5972L5.33868 27.1518L4.81267 25.747ZM3.38099 23.268L2.4273 22.1103L1.44665 22.918L2.08205 24.0182L3.38099 23.268ZM4.54452 22.3096L3.59129 21.1515L3.59083 21.1518L4.54452 22.3096ZM3.8217 19.5997L4.07261 18.1208L4.06337 18.1193L4.05412 18.1178L3.8217 19.5997ZM2.27997 19.3579H0.779968V20.641L2.04755 20.8398L2.27997 19.3579ZM2.27997 16.4821L2.04755 15.0003L0.779968 15.1991V16.4821H2.27997ZM3.8217 16.2403L4.05412 17.7222L4.06267 17.7209L4.07122 17.7194L3.8217 16.2403ZM4.54452 13.5304L3.59083 14.6882L3.59117 14.6885L4.54452 13.5304ZM3.38099 12.572L2.08205 11.8218L1.44665 12.922L2.4273 13.7298L3.38099 12.572ZM4.81267 10.093L5.33868 8.6883L4.14904 8.24283L3.51373 9.34287L4.81267 10.093ZM6.2366 10.6262L6.76296 9.22163L6.76262 9.2215L6.2366 10.6262ZM8.21285 8.64999L6.80811 9.17601L6.80819 9.17622L8.21285 8.64999ZM7.67965 7.22606L6.92947 5.92712L5.82944 6.56243L6.27491 7.75207L7.67965 7.22606ZM10.1586 5.79438L11.3164 4.84069L10.5086 3.86004L9.40844 4.49544L10.1586 5.79438ZM11.117 6.95791L12.2759 6.00549L12.2748 6.00422L11.117 6.95791ZM13.827 6.23509L15.3058 6.48618L15.3074 6.47685L15.3088 6.46751L13.827 6.23509ZM14.0688 4.69336V3.19336H12.7857L12.5869 4.46095L14.0688 4.69336ZM16.9445 4.69336L18.4264 4.46094L18.2276 3.19336H16.9445V4.69336ZM17.1863 6.23509L15.7044 6.46751L15.7058 6.47607L15.7072 6.48462L17.1863 6.23509ZM17.7888 7.1971L16.9165 8.41735V8.41735L17.7888 7.1971ZM19.8962 6.95791L18.7384 6.00422L18.7375 6.00539L19.8962 6.95791ZM20.8547 5.79438L21.6048 4.49544L20.5046 3.86004L19.6969 4.84069L20.8547 5.79438ZM23.3336 7.22606L24.7384 7.75207L25.1838 6.56243L24.0838 5.92712L23.3336 7.22606ZM22.8004 8.64999L24.205 9.17635L24.2052 9.17601L22.8004 8.64999ZM22.7349 8.87596L21.2662 8.57123L21.2661 8.57124L22.7349 8.87596ZM24.7767 10.6262L24.2507 9.2215L24.2504 9.22158L24.7767 10.6262ZM26.2006 10.093L27.4995 9.34287L26.8642 8.24283L25.6746 8.6883L26.2006 10.093ZM27.6323 12.572L28.586 13.7298L29.5666 12.922L28.9312 11.8218L27.6323 12.572ZM26.4688 13.5304L27.4212 14.6893L27.4224 14.6882L26.4688 13.5304ZM26.163 13.8722L27.4234 14.6854L27.4234 14.6854L26.163 13.8722ZM27.1916 16.2403L26.9422 17.7195L26.9507 17.7209L26.9592 17.7222L27.1916 16.2403ZM28.7333 16.4821H30.2333V15.1991L28.9657 15.0003L28.7333 16.4821ZM15.5066 21.795L15.5066 23.295H15.5066V21.795ZM15.5066 14.045V12.545H15.5066L15.5066 14.045ZM16.2866 21.7162L16.588 23.1856L16.5881 23.1856L16.2866 21.7162ZM27.424 21.0816L28.9657 20.8398L28.5009 17.876L26.9592 18.1178L27.424 21.0816ZM27.4387 21.0793C27.4377 21.0797 27.4387 21.0792 27.4423 21.0786L26.9409 18.1208C26.7856 18.1471 26.6342 18.1851 26.4876 18.2341L27.4387 21.0793ZM27.4216 21.1512C27.418 21.1482 27.42 21.1492 27.4234 21.1543C27.4266 21.159 27.4281 21.163 27.4286 21.1643C27.429 21.1655 27.4247 21.1512 27.43 21.1243C27.4324 21.1119 27.4363 21.1004 27.4409 21.0905C27.4454 21.0808 27.4497 21.0749 27.4518 21.0723C27.4538 21.0699 27.4533 21.071 27.4497 21.0736C27.4456 21.0764 27.4412 21.0785 27.4387 21.0793L26.4876 18.2341C24.3245 18.9572 23.639 21.9243 25.5159 23.4681L27.4216 21.1512ZM28.586 22.1103L27.4224 21.1518L25.5151 23.4674L26.6786 24.4258L28.586 22.1103ZM27.4995 26.4972L28.9312 24.0182L26.3334 22.5179L24.9017 24.9968L27.4995 26.4972ZM24.2507 26.6186L25.6746 27.1518L26.7266 24.3423L25.3027 23.8091L24.2507 26.6186ZM24.245 26.6167C24.2443 26.6165 24.2459 26.6168 24.25 26.6183L25.3034 23.8093C25.1561 23.7541 25.0063 23.7107 24.855 23.6793L24.245 26.6167ZM24.2051 26.6638C24.2032 26.6588 24.2043 26.6599 24.2047 26.6656C24.205 26.6709 24.2045 26.6749 24.2041 26.6765C24.2038 26.6781 24.2067 26.665 24.2231 26.6462C24.2306 26.6376 24.2388 26.6304 24.2466 26.625C24.2543 26.6196 24.2598 26.6173 24.2618 26.6165C24.2636 26.6158 24.2619 26.6167 24.257 26.6171C24.2516 26.6176 24.2469 26.6171 24.245 26.6166L24.855 23.6793C22.6076 23.2126 20.546 25.4483 21.3958 27.7164L24.2051 26.6638ZM24.7384 28.088L24.2052 26.6641L21.3957 27.7161L21.9289 29.14L24.7384 28.088ZM21.6048 31.3446L24.0838 29.9129L22.5834 27.3151L20.1045 28.7467L21.6048 31.3446ZM18.7384 29.8358L19.6969 30.9994L22.0124 29.092L21.054 27.9285L18.7384 29.8358ZM18.7402 29.8359C18.7378 29.8343 18.7362 29.833 18.7354 29.8323C18.7346 29.8316 18.7356 29.8323 18.738 29.8353L21.0545 27.929C20.8534 27.6846 20.6208 27.4788 20.3654 27.3142L18.7402 29.8359ZM18.6654 29.8547C18.666 29.8508 18.6661 29.8527 18.6638 29.8576C18.6616 29.8623 18.6592 29.8657 18.6579 29.8672C18.656 29.8694 18.6632 29.8604 18.6853 29.8512C18.708 29.8418 18.7302 29.8393 18.744 29.8402C18.7553 29.8409 18.751 29.8428 18.7402 29.8359L20.3654 27.3142C18.6577 26.2136 16.0868 27.1077 15.7073 29.3552L18.6654 29.8547ZM18.4264 31.3791L18.6682 29.8374L15.7044 29.3726L15.4626 30.9143L18.4264 31.3791ZM15.5066 32.6467H16.9445V29.6467H15.5066V32.6467ZM14.0688 32.6467H15.5066V29.6467H14.0688V32.6467ZM12.3451 29.8374L12.5869 31.3791L15.5506 30.9143L15.3088 29.3726L12.3451 29.8374ZM12.2752 29.8354C12.2779 29.8321 12.2765 29.8344 12.2709 29.8381C12.2686 29.8396 12.2664 29.8407 12.2646 29.8415C12.2629 29.8423 12.262 29.8425 12.2622 29.8425C12.2626 29.8424 12.2676 29.841 12.2775 29.841C12.2874 29.841 12.2998 29.8424 12.313 29.8459C12.3263 29.8493 12.3373 29.8541 12.3453 29.8587C12.3531 29.8632 12.3561 29.8663 12.3558 29.866C12.3551 29.8652 12.3522 29.862 12.3495 29.8566C12.3464 29.8508 12.3469 29.849 12.348 29.8556L15.3059 29.3543C14.8732 26.8016 11.5814 25.9578 9.95891 27.9289L12.2752 29.8354ZM11.3164 30.9994L12.2748 29.8358L9.95924 27.9285L9.00083 29.092L11.3164 30.9994ZM6.92948 29.9129L9.40844 31.3446L10.9088 28.7467L8.42983 27.3151L6.92948 29.9129ZM6.80811 26.6641L6.27491 28.088L9.0844 29.14L9.6176 27.7161L6.80811 26.6641ZM6.76289 26.6185C6.76807 26.6165 6.76646 26.6178 6.76011 26.6181C6.75434 26.6184 6.7505 26.6176 6.74989 26.6175C6.74977 26.6174 6.75398 26.6185 6.7615 26.6228C6.76917 26.6272 6.77815 26.6338 6.78692 26.6425C6.79568 26.6513 6.80201 26.6599 6.80605 26.6668C6.80998 26.6736 6.81065 26.6769 6.81036 26.6757C6.80993 26.674 6.80913 26.6695 6.80943 26.6635C6.80976 26.657 6.81102 26.6563 6.80836 26.6634L9.61735 27.7168C10.5281 25.2881 8.10381 22.9124 5.71032 23.8092L6.76289 26.6185ZM5.33868 27.1518L6.76262 26.6186L5.71059 23.8091L4.28665 24.3423L5.33868 27.1518ZM2.08205 24.0182L3.51373 26.4972L6.1116 24.9968L4.67992 22.5179L2.08205 24.0182ZM3.59083 21.1518L2.4273 22.1103L4.33467 24.4258L5.49821 23.4674L3.59083 21.1518ZM3.57079 21.0786C3.5757 21.0794 3.57333 21.0795 3.56756 21.0766C3.56519 21.0753 3.56316 21.0741 3.56161 21.0729C3.56009 21.0718 3.55942 21.0712 3.55952 21.0713C3.55981 21.0715 3.56342 21.0752 3.56827 21.0836C3.5732 21.0922 3.57813 21.1035 3.58168 21.1167C3.58522 21.1299 3.58655 21.1419 3.58656 21.1512C3.58658 21.1603 3.58536 21.1645 3.58547 21.1641C3.58573 21.1632 3.58713 21.1591 3.59047 21.1539C3.59413 21.1482 3.59606 21.1475 3.59129 21.1515L5.49774 23.4678C7.49325 21.8254 6.59418 18.5487 4.07261 18.1208L3.57079 21.0786ZM2.04755 20.8398L3.58929 21.0816L4.05412 18.1178L2.51238 17.876L2.04755 20.8398ZM0.779968 16.4821V19.3579H3.77997V16.4821H0.779968ZM3.58929 14.7585L2.04755 15.0003L2.51238 17.964L4.05412 17.7222L3.58929 14.7585ZM3.59117 14.6885C3.59462 14.6913 3.59232 14.69 3.58874 14.6845C3.58549 14.6794 3.58439 14.6759 3.58439 14.6759C3.58453 14.6764 3.58586 14.6815 3.58588 14.6913C3.5859 14.7013 3.58453 14.7136 3.58104 14.7269C3.57754 14.7401 3.57276 14.7511 3.56821 14.759C3.56375 14.7669 3.56069 14.7698 3.56111 14.7694C3.56192 14.7686 3.56528 14.7656 3.57077 14.7628C3.57679 14.7597 3.57865 14.7602 3.57219 14.7612L4.07122 17.7194C6.6262 17.2884 7.46852 13.9946 5.49787 12.3724L3.59117 14.6885ZM2.4273 13.7298L3.59083 14.6882L5.49821 12.3726L4.33467 11.4142L2.4273 13.7298ZM3.51373 9.34287L2.08205 11.8218L4.67992 13.3222L6.1116 10.8432L3.51373 9.34287ZM6.76262 9.2215L5.33868 8.6883L4.28665 11.4978L5.71059 12.031L6.76262 9.2215ZM6.80819 9.17622C6.81052 9.18246 6.80929 9.18141 6.80897 9.17511C6.80868 9.16938 6.80946 9.16528 6.80973 9.1642C6.80987 9.16363 6.80899 9.16739 6.80487 9.17452C6.80066 9.18181 6.79423 9.19058 6.78555 9.19927C6.77687 9.20795 6.76814 9.21435 6.76093 9.21852C6.75387 9.22259 6.75021 9.22343 6.75091 9.22326C6.7521 9.22296 6.75629 9.22218 6.76205 9.22247C6.76839 9.22279 6.76937 9.22403 6.76296 9.22163L5.71025 12.0309C8.12353 12.9352 10.5202 10.5335 9.61752 8.12377L6.80819 9.17622ZM6.27491 7.75207L6.80811 9.17601L9.6176 8.12398L9.0844 6.70005L6.27491 7.75207ZM9.40844 4.49544L6.92947 5.92712L8.42983 8.525L10.9088 7.09331L9.40844 4.49544ZM12.2748 6.00422L11.3164 4.84069L9.00083 6.74806L9.95924 7.9116L12.2748 6.00422ZM12.3481 5.984C12.3471 5.98974 12.3468 5.98773 12.3498 5.98196C12.351 5.9796 12.3523 5.97752 12.3535 5.97588C12.3541 5.9751 12.3546 5.9745 12.3549 5.97409C12.3553 5.97368 12.3555 5.97348 12.3555 5.97348C12.3544 5.97459 12.3403 5.98705 12.311 5.99486C12.2977 5.99839 12.2856 5.99973 12.276 5.99973C12.2666 5.99973 12.2621 5.99846 12.2622 5.99849C12.2628 5.99867 12.2668 6 12.2721 6.00342C12.278 6.00717 12.2791 6.00945 12.2759 6.00549L9.9582 7.91033C11.591 9.89702 14.8754 9.02107 15.3058 6.48618L12.3481 5.984ZM12.5869 4.46095L12.3451 6.00268L15.3088 6.46751L15.5506 4.92577L12.5869 4.46095ZM15.5066 3.19336H14.0688V6.19336H15.5066V3.19336ZM16.9445 3.19336H15.5066V6.19336H16.9445V3.19336ZM18.6682 6.00268L18.4264 4.46094L15.4626 4.92577L15.7044 6.46751L18.6682 6.00268ZM18.6612 5.97686C18.6551 5.97251 18.6569 5.97225 18.661 5.97873C18.663 5.9818 18.6646 5.98496 18.6656 5.98752C18.6666 5.99016 18.6662 5.98994 18.6654 5.98557L15.7072 6.48462C15.8484 7.32134 16.3144 7.98695 16.9165 8.41735L18.6612 5.97686ZM18.7375 6.00539C18.7352 6.00818 18.7352 6.00769 18.7378 6.00563C18.7403 6.00362 18.7434 6.00161 18.7465 6.00001C18.7531 5.99669 18.7534 5.99828 18.7442 5.99906C18.7341 5.99991 18.7182 5.99919 18.6998 5.99414C18.6814 5.9891 18.6682 5.98188 18.6612 5.97686L16.9165 8.41735C18.0744 9.24516 19.9282 9.28118 21.055 7.91043L18.7375 6.00539ZM19.6969 4.84069L18.7384 6.00422L21.054 7.9116L22.0124 6.74806L19.6969 4.84069ZM24.0838 5.92712L21.6048 4.49544L20.1045 7.09331L22.5834 8.525L24.0838 5.92712ZM24.2052 9.17601L24.7384 7.75207L21.9289 6.70005L21.3957 8.12398L24.2052 9.17601ZM24.2036 9.18069C24.2034 9.18145 24.2036 9.18007 24.205 9.17635L21.3958 8.12363C21.3407 8.27072 21.2975 8.42025 21.2662 8.57123L24.2036 9.18069ZM24.2504 9.22158C24.2444 9.22383 24.2451 9.22281 24.2507 9.22242C24.2558 9.22206 24.2601 9.2226 24.262 9.22302C24.2645 9.22356 24.2522 9.22105 24.2338 9.20494C24.2254 9.19753 24.2181 9.18932 24.2126 9.18139C24.2072 9.17352 24.2047 9.16776 24.2037 9.16529C24.2029 9.16309 24.2037 9.16443 24.2041 9.16897C24.2045 9.174 24.204 9.17853 24.2036 9.18068L21.2661 8.57124C20.8025 10.806 23.0209 12.8858 25.3029 12.0309L24.2504 9.22158ZM25.6746 8.6883L24.2507 9.2215L25.3027 12.031L26.7266 11.4978L25.6746 8.6883ZM28.9312 11.8218L27.4995 9.34287L24.9017 10.8432L26.3333 13.3222L28.9312 11.8218ZM27.4224 14.6882L28.586 13.7298L26.6786 11.4142L25.5151 12.3726L27.4224 14.6882ZM27.4234 14.6854C27.4218 14.6879 27.4203 14.6897 27.4194 14.6907C27.4185 14.6918 27.4188 14.6912 27.4212 14.6893L25.5163 12.3716C25.2722 12.5722 25.0668 12.8043 24.9025 13.0589L27.4234 14.6854ZM27.4409 14.7612C27.4358 14.7604 27.4372 14.76 27.4421 14.7623C27.4467 14.7645 27.4503 14.767 27.4523 14.7687C27.4554 14.7713 27.4469 14.765 27.438 14.7434C27.4288 14.721 27.4261 14.6985 27.4271 14.6836C27.428 14.6712 27.4303 14.6747 27.4234 14.6854L24.9025 13.0589C23.8084 14.7547 24.6764 17.3375 26.9422 17.7195L27.4409 14.7612ZM28.9657 15.0003L27.424 14.7585L26.9592 17.7222L28.5009 17.964L28.9657 15.0003ZM30.2333 19.3579V16.4821H27.2333V19.3579H30.2333ZM10.1317 17.92C10.1317 20.8855 12.5419 23.295 15.5066 23.295L15.5067 20.295C14.1985 20.295 13.1317 19.2284 13.1317 17.92H10.1317ZM15.5066 12.545C12.5419 12.5451 10.1317 14.9546 10.1317 17.92H13.1317C13.1317 16.6117 14.1986 15.545 15.5066 15.545L15.5066 12.545ZM20.8816 17.92C20.8816 14.9545 18.4713 12.545 15.5066 12.545V15.545C16.8147 15.545 17.8816 16.6117 17.8816 17.92H20.8816ZM16.5881 23.1856C19.0345 22.6836 20.8816 20.5174 20.8816 17.92H17.8816C17.8816 19.0622 17.0666 20.0249 15.9851 20.2468L16.5881 23.1856ZM15.5067 23.295C15.8757 23.295 16.2375 23.2575 16.588 23.1856L15.9851 20.2468C15.8317 20.2783 15.6718 20.295 15.5067 20.295V23.295ZM15.5067 20.295H15.5066V23.295H15.5067V20.295Z" fill="#440A29"/>
<path d="M28.6579 3.50693C28.6579 3.93873 28.3079 4.28876 27.8761 4.28876C27.4443 4.28876 27.0942 3.93873 27.0942 3.50693C27.0942 3.07513 27.4443 2.7251 27.8761 2.7251C28.3079 2.7251 28.6579 3.07513 28.6579 3.50693Z" fill="#6AA9FF"/>
<path d="M27.4567 7.55024C27.62 7.46796 27.6856 7.26888 27.6033 7.10559C27.5211 6.9423 27.322 6.87664 27.1587 6.95892C26.9954 7.04121 26.9297 7.24028 27.012 7.40357C27.0943 7.56686 27.2934 7.63253 27.4567 7.55024Z" fill="#6AA9FF"/>
<path d="M24.0294 1.35891L24.295 2.10572C24.3064 2.13768 24.3289 2.16305 24.3573 2.17581L25.0208 2.47477C25.1146 2.51702 25.1146 2.66637 25.0208 2.70858L24.3573 3.00754C24.3289 3.02035 24.3064 3.04568 24.295 3.07764L24.0294 3.82444C23.9919 3.92994 23.8592 3.92994 23.8217 3.82444L23.5561 3.07764C23.5447 3.04568 23.5222 3.02031 23.4938 3.00754L22.8303 2.70858C22.7365 2.66633 22.7365 2.51698 22.8303 2.47477L23.4938 2.17581C23.5222 2.163 23.5447 2.13768 23.5561 2.10572L23.8217 1.35891C23.8592 1.25341 23.9919 1.25341 24.0294 1.35891Z" fill="#6AA9FF"/>
<path d="M30.0454 7.86108L30.4104 8.86787C30.426 8.91096 30.457 8.94515 30.496 8.96241L31.4077 9.3654C31.5365 9.42235 31.5365 9.62366 31.4077 9.68061L30.496 10.0836C30.457 10.1009 30.426 10.135 30.4104 10.1781L30.0454 11.1849C29.9939 11.3271 29.8115 11.3271 29.76 11.1849L29.395 10.1781C29.3794 10.135 29.3484 10.1008 29.3094 10.0836L28.3977 9.68061C28.2689 9.62366 28.2689 9.42231 28.3977 9.3654L29.3094 8.96241C29.3485 8.94515 29.3794 8.911 29.395 8.86787L29.76 7.86108C29.8115 7.71883 29.9939 7.71883 30.0454 7.86108Z" fill="#6AA9FF"/>
<g clip-path="url(#clip0)">
<path d="M27.1916 19.5997L28.7333 19.3579V16.4821L27.1916 16.2403C25.9226 16.0264 25.4768 14.3457 26.4688 13.5304L27.6323 12.572L26.2006 10.093L24.7767 10.6262C23.5713 11.0778 22.3483 9.85641 22.8004 8.64999L23.3336 7.22606L20.8547 5.79438L19.8962 6.95791C19.0825 7.94784 17.4007 7.50609 17.1863 6.23509L16.9445 4.69336H14.0688L13.827 6.23509C13.6115 7.50403 11.9323 7.94991 11.117 6.95791L10.1586 5.79438L7.67965 7.22606L8.21285 8.64999C8.66442 9.85538 7.44302 11.0783 6.2366 10.6262L4.81267 10.093L3.38099 12.572L4.54452 13.5304C5.53239 14.3437 5.0958 16.0254 3.8217 16.2403L2.27997 16.4821V19.3579L3.8217 19.5997C5.08547 19.8141 5.54014 21.4902 4.54452 22.3096L3.38099 23.268L4.81267 25.747L6.2366 25.2138C7.4363 24.7643 8.667 25.979 8.21285 27.1901L7.67965 28.614L10.1586 30.0457L11.117 28.8821C11.9298 27.8948 13.611 28.3309 13.827 29.605L14.0688 31.1467H16.9445L17.1863 29.605C17.3992 28.3443 19.0753 27.8845 19.8962 28.8821L20.8547 30.0457L23.3336 28.614L22.8004 27.1901C22.3509 25.9904 23.5656 24.7597 24.7767 25.2138L26.2006 25.747L27.6323 23.268L26.4688 22.3096C25.4788 21.4954 25.9206 19.8152 27.1916 19.5997ZM15.5066 24.3784C11.9453 24.3784 9.0483 21.4814 9.0483 17.92C9.0483 14.3586 11.9453 11.4617 15.5066 11.4617C19.068 11.4617 21.965 14.3586 21.965 17.92C21.965 21.4814 19.068 24.3784 15.5066 24.3784Z" fill="#7ED8F6"/>
<path d="M26.4688 22.3096L27.6323 23.268L26.2006 25.747L24.7767 25.2138C23.5656 24.7597 22.3509 25.9904 22.8004 27.1901L23.3336 28.614L20.8547 30.0457L19.8963 28.8821C19.0753 27.8845 17.3992 28.3443 17.1863 29.605L16.9445 31.1467H15.5067V24.3784C19.068 24.3784 21.965 21.4814 21.965 17.92C21.965 14.3586 19.068 11.4617 15.5067 11.4617V4.69336H16.9445L17.1863 6.23509C17.4008 7.50609 19.0825 7.94784 19.8963 6.95791L20.8547 5.79438L23.3336 7.22606L22.8004 8.64999C22.3484 9.85641 23.5713 11.0778 24.7767 10.6262L26.2006 10.093L27.6323 12.572L26.4688 13.5304C25.4768 14.3457 25.9227 16.0264 27.1916 16.2403L28.7333 16.4821V19.3579L27.1916 19.5997C25.9206 19.8152 25.4788 21.4954 26.4688 22.3096Z" fill="#6AA9FF"/>
<path d="M15.5067 10.9448C11.6606 10.9448 8.53168 14.0738 8.53168 17.9198C8.53168 21.7659 11.6606 24.8948 15.5067 24.8948C19.3527 24.8948 22.4817 21.7659 22.4817 17.9198C22.4817 14.0738 19.3527 10.9448 15.5067 10.9448ZM15.5067 21.7948C13.3703 21.7948 11.6317 20.0568 11.6317 17.9198C11.6317 15.7829 13.3703 14.0448 15.5067 14.0448C17.6431 14.0448 19.3817 15.7829 19.3817 17.9198C19.3817 20.0568 17.6431 21.7948 15.5067 21.7948Z" fill="#6AA9FF"/>
<path d="M22.4817 17.9198C22.4817 21.7659 19.3527 24.8948 15.5067 24.8948V21.7948C17.6431 21.7948 19.3817 20.0568 19.3817 17.9198C19.3817 15.7829 17.6431 14.0448 15.5067 14.0448V10.9448C19.3527 10.9448 22.4817 14.0738 22.4817 17.9198Z" fill="#4895FF"/>
</g>
<path d="M21.76 17.9198C21.76 21.3735 18.9603 24.1732 15.5067 24.1732C12.0531 24.1732 9.25336 21.3735 9.25336 17.9198C9.25336 14.4662 12.0531 11.6665 15.5067 11.6665C18.9603 11.6665 21.76 14.4662 21.76 17.9198Z" stroke="#440A29" stroke-width="2"/>
<path d="M19.2734 17.92C19.2734 20.0003 17.587 21.6867 15.5067 21.6867C13.4264 21.6867 11.7401 20.0003 11.7401 17.92C11.7401 15.8397 13.4264 14.1533 15.5067 14.1533C17.587 14.1533 19.2734 15.8397 19.2734 17.92Z" stroke="#440A29"/>
<defs>
<clipPath id="clip0">
<rect width="26.4533" height="26.4533" fill="white" transform="translate(2.27997 4.69336)"/>
</clipPath>
</defs>
</svg>
