<svg xmlns="http://www.w3.org/2000/svg" width="111.073" height="111.101" viewBox="0 0 111.073 111.101">
  <g id="Icon_ionic-ios-timer" data-name="Icon ionic-ios-timer" transform="translate(-3.938 -3.938)">
    <path id="Path_3087" data-name="Path 3087" d="M59.488,115.038A55.551,55.551,0,0,1,20.936,19.492a4.459,4.459,0,1,1,6.194,6.416,46.62,46.62,0,1,0,36.8-12.832V30.463a4.472,4.472,0,1,1-8.944,0V8.409A4.469,4.469,0,0,1,59.46,3.938a55.55,55.55,0,0,1,.028,111.1Z" transform="translate(0 0)"/>
    <path id="Path_3088" data-name="Path 3088" d="M15.66,11.773,43.3,31.632a8.363,8.363,0,0,1-9.721,13.61A8.075,8.075,0,0,1,31.631,43.3L11.771,15.661a2.786,2.786,0,0,1,3.889-3.889Z" transform="translate(21.58 21.579)"/>
  </g>
</svg>
