<svg width="32" height="32" viewBox="0 0 32 32" fill="none" xmlns="http://www.w3.org/2000/svg">
<g clip-path="url(#clip0)">
<path d="M16.8636 11.4401H15.0678C14.4273 11.4401 13.9081 10.9209 13.9081 10.2804V5.12007C13.9081 4.47964 14.4273 3.96045 15.0678 3.96045H16.8636C17.504 3.96045 18.0232 4.47964 18.0232 5.12007V10.2804C18.0232 10.9209 17.5041 11.4401 16.8636 11.4401Z" fill="#B2E7F1"/>
<path d="M27.9127 30.819H4.08742C2.18279 30.819 0.638794 29.275 0.638794 27.3703V13.4237C0.638794 11.5191 2.18279 9.9751 4.08742 9.9751H27.9126C29.8172 9.9751 31.3612 11.5191 31.3612 13.4237V27.3703C31.3613 29.275 29.8173 30.819 27.9127 30.819Z" fill="#FFE266"/>
<path d="M27.9127 9.9751H24.3549C25.957 9.9751 27.2559 11.2739 27.2559 12.8761V24.0987C27.2559 25.7009 25.957 26.9997 24.3549 26.9997H3.53979C1.93761 26.9997 0.638794 25.701 0.638794 24.0987V27.3703C0.638794 29.275 2.18279 30.8189 4.08742 30.8189H27.9126C29.8172 30.8189 31.3612 29.2749 31.3612 27.3703V13.4237C31.3613 11.5191 29.8173 9.9751 27.9127 9.9751Z" fill="#EFAA66"/>
<path d="M12.6183 24.1252H5.12526C4.3252 24.1252 3.67657 23.4766 3.67657 22.6765V14.3842C3.67657 13.5842 4.32514 12.9355 5.12526 12.9355H12.6183C13.4184 12.9355 14.067 13.5842 14.067 14.3842V22.6766C14.067 23.4766 13.4184 24.1252 12.6183 24.1252Z" fill="white"/>
<path d="M11.5372 24.1835V23.4629C11.5372 21.9907 10.3438 20.7974 8.87168 20.7974C7.39955 20.7974 6.20618 21.9907 6.20618 23.4629V24.1835H11.5372Z" fill="#8BB6EF"/>
<path d="M9.63919 21.8073H8.13481C6.26544 21.8073 4.74994 20.2919 4.74994 18.4225C4.74994 16.553 6.26538 15.0376 8.13481 15.0376H9.63919C11.5086 15.0376 13.0241 16.553 13.0241 18.4225C13.0241 20.2918 11.5086 21.8073 9.63919 21.8073Z" fill="#FFC7B6"/>
<path d="M12.7133 19.8742C13.1175 19.624 13.5028 19.1271 13.508 18.5802V18.1831C13.508 15.9837 11.725 14.2007 9.5256 14.2007H8.21797C6.01853 14.2007 4.23553 15.9837 4.23553 18.1831V18.5802C4.2636 19.2776 4.68066 19.6497 4.97578 19.8935C6.73097 19.0942 8.91372 17.7977 10.5385 16.2878C11.1128 17.6828 11.7693 18.766 12.7133 19.8742Z" fill="#B07676"/>
<path d="M27.9126 9.33659H18.662V5.12015C18.662 4.12853 17.8552 3.32178 16.8636 3.32178H15.0678C14.0762 3.32178 13.2694 4.12853 13.2694 5.12015V9.33659H4.08738C1.83356 9.33659 0 11.1702 0 13.424V27.3706C0 29.6244 1.83356 31.458 4.08738 31.458H27.9126C30.1664 31.458 31.9999 29.6243 31.9999 27.3706V13.424C32 11.1702 30.1664 9.33659 27.9126 9.33659ZM14.5469 5.12015C14.5469 4.83296 14.7806 4.59928 15.0678 4.59928H16.8636C17.1508 4.59928 17.3845 4.83296 17.3845 5.12015V9.33659H14.547V5.12015H14.5469ZM30.7225 27.3706C30.7225 28.92 29.4619 30.1805 27.9126 30.1805H4.08738C2.538 30.1805 1.2775 28.9199 1.2775 27.3706V13.424C1.2775 11.8746 2.538 10.6141 4.08738 10.6141H27.9126C29.4619 10.6141 30.7224 11.8747 30.7224 13.424V27.3706H30.7225Z" fill="#440A29"/>
<path d="M7.21369 20.3089C7.42238 20.3089 7.59157 20.1397 7.59157 19.931C7.59157 19.7223 7.42238 19.5532 7.21369 19.5532C7.005 19.5532 6.83582 19.7224 6.83582 19.931C6.83582 20.1397 7.005 20.3089 7.21369 20.3089Z" fill="#440A29"/>
<path d="M10.5603 20.3089C10.769 20.3089 10.9382 20.1397 10.9382 19.931C10.9382 19.7223 10.769 19.5532 10.5603 19.5532C10.3516 19.5532 10.1824 19.7224 10.1824 19.931C10.1824 20.1397 10.3516 20.3089 10.5603 20.3089Z" fill="#440A29"/>
<path d="M12.6181 24.5084C13.6282 24.5084 14.45 23.6867 14.45 22.6765V14.3842C14.45 13.374 13.6282 12.5522 12.6181 12.5522H5.12503C4.1149 12.5522 3.29315 13.374 3.29315 14.3842V22.6765C3.29315 23.6867 4.1149 24.5084 5.12503 24.5084H12.6181ZM13.1246 18.5579C13.0779 18.9472 12.9424 19.1829 12.7741 19.3477C11.9772 18.3643 11.4053 17.3868 10.8926 16.1415C10.8448 16.0253 10.743 15.9399 10.6203 15.913C10.4975 15.8862 10.3694 15.9211 10.2773 16.0066C8.94103 17.2486 6.9999 18.5202 5.04546 19.4385C4.85709 19.2446 4.68565 18.9776 4.61853 18.5511V18.1827C4.61853 16.1981 6.23315 14.5834 8.21778 14.5834H9.5254C11.51 14.5834 13.1246 16.1981 13.1246 18.1827V18.5579ZM10.3967 16.9282C10.9069 18.0634 11.4882 18.9964 12.272 19.9442C11.7661 20.8898 10.769 21.5347 9.62384 21.5347H8.1194C7.01946 21.5347 6.05659 20.9396 5.53403 20.0546C7.31428 19.2004 9.07471 18.0679 10.3967 16.9282ZM7.01684 22.136C7.36578 22.243 7.73584 22.3012 8.11934 22.3012H9.62378C10.0073 22.3012 10.3774 22.2433 10.7263 22.1362C10.9948 22.5103 11.1538 22.9679 11.1538 23.4626V23.7419H6.58928V23.4626C6.58928 22.9679 6.74828 22.5101 7.01684 22.136ZM12.6181 23.7419H11.9203V23.4626C11.9203 22.8625 11.7454 22.3027 11.4445 21.8306C12.1419 21.4437 12.7042 20.842 13.0418 20.1153C13.3298 19.9121 13.5414 19.6684 13.6835 19.3734V22.6766C13.6835 23.264 13.2055 23.7419 12.6181 23.7419ZM5.12503 13.3187H12.6182C13.2056 13.3187 13.6835 13.7967 13.6835 14.3842V16.8535C13.1198 15.0943 11.4693 13.817 9.5254 13.817H8.21778C6.2739 13.817 4.62334 15.0943 4.05965 16.8535V14.3842C4.05959 13.7967 4.53753 13.3187 5.12503 13.3187ZM4.05959 22.6765V19.3382C4.24903 19.7498 4.51715 20.0115 4.7314 20.1885C4.73353 20.1902 4.73603 20.1914 4.73815 20.1932C5.07921 20.8851 5.62596 21.4582 6.29865 21.8311C5.99796 22.3032 5.82278 22.8626 5.82278 23.4626V23.7419H5.12503C4.53753 23.7419 4.05959 23.264 4.05959 22.6765Z" fill="#440A29"/>
<path d="M26.854 26.3612C25.6296 26.3514 24.3672 26.3449 22.9947 26.3413C22.9942 26.3413 22.9936 26.3413 22.993 26.3413C22.6411 26.3413 22.3552 26.6262 22.3543 26.9784C22.3534 27.3312 22.6386 27.6179 22.9914 27.6188C24.3615 27.6224 25.6216 27.6289 26.8437 27.6387H26.849C27.1994 27.6387 27.4848 27.3561 27.4876 27.0051C27.4904 26.6523 27.2067 26.3641 26.854 26.3612Z" fill="#440A29"/>
<path d="M20.2027 26.3381C19.0142 26.3374 18.501 26.3386 17.485 26.3409L17.003 26.342C16.6503 26.3428 16.3649 26.6294 16.3657 26.9822C16.3665 27.3345 16.6523 27.6195 17.0045 27.6195H17.0059L17.488 27.6184C18.5026 27.6161 19.0156 27.6152 20.2018 27.6156H20.2022C20.5548 27.6156 20.8407 27.3299 20.841 26.9773C20.8412 26.6245 20.5554 26.3384 20.2027 26.3381Z" fill="#440A29"/>
<path d="M14.2148 26.3467C14.2143 26.3467 14.2138 26.3467 14.2133 26.3467C12.8384 26.3499 11.4173 26.3549 9.98958 26.3615C9.63677 26.3631 9.35214 26.6504 9.35377 27.0032C9.35539 27.355 9.64108 27.639 9.99245 27.639H9.99545C11.4223 27.6323 12.8423 27.6274 14.2162 27.6242C14.569 27.6234 14.8543 27.3367 14.8535 26.9839C14.8528 26.6317 14.567 26.3467 14.2148 26.3467Z" fill="#440A29"/>
<path d="M6.86648 26.362C6.26504 26.3351 5.72729 26.335 5.1226 26.362C4.77017 26.3777 4.49723 26.6762 4.51298 27.0286C4.52873 27.3811 4.82842 27.6542 5.1796 27.6382C5.75229 27.6127 6.23967 27.6127 6.80917 27.6382C6.81892 27.6387 6.8286 27.6389 6.83835 27.6389C7.17792 27.6389 7.4606 27.3714 7.47598 27.0287C7.49173 26.6764 7.21885 26.3779 6.86648 26.362Z" fill="#440A29"/>
<path d="M27.2558 14.7368H17.4113C17.1996 14.7368 17.028 14.9084 17.028 15.1201C17.028 15.3317 17.1996 15.5033 17.4113 15.5033H27.2558C27.4674 15.5033 27.639 15.3317 27.639 15.1201C27.639 14.9084 27.4674 14.7368 27.2558 14.7368Z" fill="#440A29"/>
<path d="M27.2558 20.5894H17.4113C17.1996 20.5894 17.028 20.761 17.028 20.9726C17.028 21.1842 17.1996 21.3559 17.4113 21.3559H27.2558C27.4674 21.3559 27.639 21.1842 27.639 20.9726C27.639 20.761 27.4674 20.5894 27.2558 20.5894Z" fill="#440A29"/>
<path d="M17.4113 18.4296H22.993C23.2046 18.4296 23.3763 18.258 23.3763 18.0463C23.3763 17.8347 23.2046 17.6631 22.993 17.6631H17.4113C17.1996 17.6631 17.028 17.8347 17.028 18.0463C17.028 18.258 17.1996 18.4296 17.4113 18.4296Z" fill="#440A29"/>
<path d="M23.4914 2.1862C23.6419 1.54958 23.2478 0.911507 22.6112 0.761022C21.9746 0.610536 21.3365 1.00462 21.186 1.64124C21.0355 2.27786 21.4296 2.91594 22.0662 3.06642C22.7028 3.21691 23.3409 2.82282 23.4914 2.1862Z" fill="#FFE266"/>
<path d="M7.82872 6.20346C7.87305 5.92999 7.6873 5.67236 7.41382 5.62803C7.14035 5.58369 6.88272 5.76945 6.83839 6.04292C6.79406 6.31639 6.97981 6.57402 7.25328 6.61836C7.52676 6.66269 7.78439 6.47693 7.82872 6.20346Z" fill="#FFE266"/>
<path d="M29.1794 4.03397L29.5818 5.16559C29.5991 5.21403 29.6332 5.25241 29.6762 5.27184L30.6817 5.72484C30.8237 5.78884 30.8237 6.01516 30.6817 6.07916L29.6762 6.53216C29.6332 6.55153 29.599 6.58997 29.5818 6.63841L29.1794 7.77003C29.1225 7.92991 28.9215 7.92991 28.8646 7.77003L28.4622 6.63841C28.4449 6.58997 28.4108 6.55159 28.3678 6.53216L27.3623 6.07916C27.2203 6.01516 27.2203 5.78884 27.3623 5.72484L28.3678 5.27184C28.4108 5.25247 28.445 5.21403 28.4622 5.16559L28.8646 4.03397C28.9215 3.87409 29.1225 3.87409 29.1794 4.03397Z" fill="#FEF2A8"/>
<path d="M3.35054 0.703625L3.90354 2.22919C3.92723 2.2945 3.9741 2.34625 4.03323 2.37244L5.41479 2.98312C5.60998 3.06938 5.60998 3.3745 5.41479 3.46075L4.03323 4.07137C3.9741 4.0975 3.92723 4.14931 3.90354 4.21462L3.35054 5.74019C3.27241 5.95569 2.9961 5.95569 2.91798 5.74019L2.36498 4.21462C2.34129 4.14931 2.29441 4.09756 2.23529 4.07137L0.853788 3.46069C0.658601 3.37444 0.658601 3.06931 0.853788 2.98306L2.23529 2.37238C2.29441 2.34625 2.34129 2.29444 2.36498 2.22913L2.91798 0.703563C2.9961 0.488125 3.27241 0.488125 3.35054 0.703625Z" fill="#FEF2A8"/>
</g>
<defs>
<clipPath id="clip0">
<rect width="32" height="32" fill="white"/>
</clipPath>
</defs>
</svg>
