<svg width="32" height="33" viewBox="0 0 32 33" fill="none" xmlns="http://www.w3.org/2000/svg">
<path d="M6.80328 25.3984H28.9187V29.9127H6.80328V25.3984Z" fill="#B2E7F1"/>
<path d="M26.3572 31.8544H5.15587C4.50144 31.8544 3.97095 31.3239 3.97095 30.6694C3.97095 30.015 4.50144 29.4845 5.15587 29.4845H26.3572C27.4277 29.4845 28.2986 28.6136 28.2986 27.5432C28.2986 26.4727 27.4277 25.6018 26.3572 25.6018H5.15587C4.50144 25.6018 3.97095 25.0713 3.97095 24.4169C3.97095 23.7624 4.50144 23.2319 5.15587 23.2319H26.3572C28.7344 23.2319 30.6684 25.166 30.6684 27.5432C30.6684 29.9204 28.7344 31.8544 26.3572 31.8544Z" fill="#FFA585"/>
<path d="M5.15593 25.6014H6.31909V24.9501H4.95338C4.46768 24.9501 4.0653 24.6414 3.98617 24.2363C3.97716 24.2952 3.97107 24.3551 3.97107 24.4165C3.97101 25.0709 4.5015 25.6014 5.15593 25.6014Z" fill="#CB2CFF"/>
<path d="M26.3572 23.2319H22.53C24.5008 23.2319 26.1042 24.6345 26.1042 26.3583C26.1042 28.0821 24.5009 29.4845 22.53 29.4845H5.15581C4.50144 29.4845 3.97095 30.0151 3.97095 30.6694C3.97095 31.3239 4.50144 31.8544 5.15587 31.8544H26.3572C28.7344 31.8544 30.6684 29.9204 30.6684 27.5432C30.6684 25.166 28.7344 23.2319 26.3572 23.2319Z" fill="#A7ADF1"/>
<path d="M30.3291 25.8662C30.1663 25.4821 29.9479 25.1232 29.6827 24.8019C28.8913 23.8434 27.6943 23.2314 26.3572 23.2314H22.53C24.2026 23.2314 25.61 24.2418 25.9978 25.6013H26.3572C27.4277 25.6013 28.2986 26.4722 28.2986 27.5427C28.2986 28.6131 27.4277 29.484 26.3572 29.484H5.15587C4.50144 29.484 3.97095 30.0145 3.97095 30.6689C3.97095 31.3234 4.50144 31.8539 5.15587 31.8539H26.3572C27.4715 31.8539 28.4884 31.4289 29.2544 30.7326C30.5874 29.5677 31.0481 27.4848 30.3291 25.8662Z" fill="#EF7C85"/>
<path d="M6.80328 16.7764H28.9187V21.2907H6.80328V16.7764Z" fill="white"/>
<path d="M26.3572 23.2318H5.15587C4.50144 23.2318 3.97095 22.7013 3.97095 22.0469C3.97095 21.3924 4.50144 20.8619 5.15587 20.8619H26.3572C27.4277 20.8619 28.2986 19.9911 28.2986 18.9206C28.2986 17.8501 27.4277 16.9792 26.3572 16.9792H5.15587C4.50144 16.9792 3.97095 16.4487 3.97095 15.7943C3.97095 15.1399 4.50144 14.6094 5.15587 14.6094H26.3572C28.7344 14.6094 30.6684 16.5434 30.6684 18.9206C30.6684 21.2978 28.7344 23.2318 26.3572 23.2318Z" fill="#A183E2"/>
<path d="M5.15593 16.9788H6.31909V16.3275H4.95338C4.46768 16.3275 4.0653 16.0189 3.98617 15.6138C3.97716 15.6727 3.97107 15.7325 3.97107 15.7939C3.97101 16.4484 4.5015 16.9788 5.15593 16.9788Z" fill="#CB2CFF"/>
<path d="M26.3572 14.6094H22.53C24.5008 14.6094 26.1042 16.0119 26.1042 17.7357C26.1042 19.4596 24.5009 20.8619 22.53 20.8619H5.15581C4.50144 20.862 3.97095 21.3925 3.97095 22.0469C3.97095 22.7013 4.50144 23.2318 5.15587 23.2318H26.3572C28.7344 23.2318 30.6684 21.2978 30.6684 18.9206C30.6684 16.5434 28.7344 14.6094 26.3572 14.6094Z" fill="#FFBFFC"/>
<path d="M30.3291 17.2441C30.1663 16.86 29.9479 16.501 29.6827 16.1799C28.8913 15.2214 27.6943 14.6094 26.3572 14.6094H22.53C24.2026 14.6094 25.61 15.6197 25.9978 16.9792H26.3572C27.4277 16.9792 28.2986 17.8501 28.2986 18.9206C28.2986 19.9911 27.4277 20.8619 26.3572 20.8619H5.15587C4.50144 20.8619 3.97095 21.3924 3.97095 22.0469C3.97095 22.7013 4.50144 23.2318 5.15587 23.2318H26.3572C27.3972 23.2318 28.3524 22.8617 29.0979 22.2461C30.5405 21.1061 31.0808 18.9284 30.3291 17.2441Z" fill="#9762E2"/>
<path d="M3.4682 8.15381H25.5837V12.6681H3.4682V8.15381Z" fill="#FEF2A8"/>
<path d="M23.0221 14.6097H1.82079C1.16636 14.6097 0.635864 14.0792 0.635864 13.4248C0.635864 12.7704 1.16636 12.2399 1.82079 12.2399H23.0221C24.0926 12.2399 24.9635 11.369 24.9635 10.2985C24.9635 9.22803 24.0926 8.35716 23.0221 8.35716H1.82079C1.16636 8.35716 0.635864 7.82666 0.635864 7.17223C0.635864 6.5178 1.16636 5.9873 1.82079 5.9873H23.0221C25.3993 5.9873 27.3333 7.92134 27.3333 10.2985C27.3333 12.6757 25.3993 14.6097 23.0221 14.6097Z" fill="#EF8BBD"/>
<path d="M1.82085 8.35678H2.98401V7.70546H1.61829C1.1326 7.70546 0.730219 7.39681 0.651089 6.9917C0.642078 7.05059 0.635986 7.11043 0.635986 7.17192C0.635923 7.82628 1.16642 8.35678 1.82085 8.35678Z" fill="#CB2CFF"/>
<path d="M23.0221 5.98682H19.195C21.1657 5.98682 22.7692 7.38933 22.7692 9.11313C22.7692 10.837 21.1658 12.2394 19.195 12.2394H1.82073C1.16636 12.2395 0.635864 12.7699 0.635864 13.4243C0.635864 14.0787 1.16636 14.6092 1.82079 14.6092H23.0221C25.3993 14.6092 27.3333 12.6753 27.3333 10.2981C27.3333 7.92085 25.3993 5.98682 23.0221 5.98682Z" fill="#EEB6A8"/>
<path d="M27.0713 8.81724C26.9986 8.61925 26.9119 8.42799 26.8122 8.24479C26.0812 6.90097 24.6564 5.98682 23.022 5.98682H19.1949C20.8675 5.98682 22.2749 6.99717 22.6627 8.35667H23.022C24.0925 8.35667 24.9634 9.22755 24.9634 10.2981C24.9634 11.3685 24.0925 12.2395 23.022 12.2395H1.82079C1.16636 12.2395 0.635864 12.7699 0.635864 13.4244C0.635864 14.0787 1.16636 14.6093 1.82079 14.6093H23.0221C24.2107 14.6093 25.2885 14.1258 26.0692 13.3452C26.3619 13.0525 26.6128 12.7179 26.8122 12.3514C27.3997 11.2943 27.4937 9.94073 27.0713 8.81724Z" fill="#E068BD"/>
<path d="M28.779 23.2313C30.2847 22.3822 31.3042 20.7684 31.3042 18.9201C31.3042 16.1923 29.0849 13.973 26.3571 13.973H26.3292C27.3352 13.0668 27.969 11.755 27.969 10.2977C27.969 7.56985 25.7497 5.35059 23.022 5.35059H1.82076C0.816814 5.35059 0 6.1674 0 7.17135C0 8.17529 0.816814 8.99211 1.82076 8.99211H2.8327V11.6032H1.82076C0.816814 11.6032 0 12.42 0 13.424C0 14.4279 0.816814 15.2447 1.82076 15.2447H3.41993C3.36498 15.4181 3.33515 15.6026 3.33515 15.7938C3.33515 16.7978 4.15197 17.6146 5.15591 17.6146H6.16792V20.2257H5.15585C4.1519 20.2257 3.33509 21.0425 3.33509 22.0465C3.33509 22.4987 3.50122 22.9127 3.77516 23.2313C3.50122 23.5501 3.33509 23.964 3.33509 24.4163C3.33509 25.4202 4.1519 26.237 5.15585 26.237H6.16786V28.8481H5.15585C4.1519 28.8481 3.33509 29.6649 3.33509 30.6689C3.33509 31.6729 4.1519 32.4896 5.15585 32.4896H26.3572C29.085 32.4896 31.3042 30.2704 31.3042 27.5426C31.3042 25.6943 30.2847 24.0805 28.779 23.2313ZM4.10437 10.6792H13.229C13.4397 10.6792 13.6105 10.5083 13.6105 10.2977C13.6105 10.087 13.4397 9.91616 13.229 9.91616H4.10437V8.99211H23.0221C23.7419 8.99211 24.3276 9.57781 24.3276 10.2977C24.3276 11.0176 23.742 11.6033 23.0221 11.6033H4.10437V10.6792ZM1.27167 13.424C1.27167 13.1212 1.51801 12.8749 1.82076 12.8749H23.0221C24.4431 12.8749 25.5992 11.7188 25.5992 10.2977C25.5992 8.87662 24.4431 7.7205 23.0221 7.7205H1.82076C1.51795 7.7205 1.27167 7.47416 1.27167 7.17141C1.27167 6.8686 1.51801 6.62226 1.82076 6.62226H23.0221C25.0487 6.62226 26.6975 8.27105 26.6975 10.2977C26.6975 12.3243 25.0487 13.9731 23.0221 13.9731H5.15585H1.82076C1.51801 13.9731 1.27167 13.7267 1.27167 13.424ZM7.43946 17.6145H26.3572C26.9443 17.6145 27.4419 18.0043 27.6055 18.5386H21.6533C21.4426 18.5386 21.2718 18.7093 21.2718 18.9201C21.2718 19.1308 21.4426 19.3016 21.6533 19.3016H27.6055C27.4419 19.8359 26.9443 20.2256 26.3572 20.2256H7.43946V17.6145ZM5.15585 21.4973H26.3572C27.7782 21.4973 28.9343 20.3412 28.9343 18.9202C28.9343 17.499 27.7782 16.343 26.3572 16.343H5.15585C4.85304 16.343 4.60676 16.0966 4.60676 15.7938C4.60676 15.491 4.8531 15.2447 5.15585 15.2447H23.0221H26.3572C28.3838 15.2447 30.0326 16.8935 30.0326 18.9202C30.0326 20.9466 28.3841 22.5952 26.3577 22.5955C26.3575 22.5955 26.3573 22.5955 26.3571 22.5955H5.15585C5.15572 22.5955 5.1556 22.5955 5.15547 22.5955C4.85285 22.5953 4.60676 22.349 4.60676 22.0464C4.60676 21.7437 4.85304 21.4973 5.15585 21.4973ZM7.43946 27.9241H11.804C12.0147 27.9241 12.1855 27.7532 12.1855 27.5426C12.1855 27.3319 12.0147 27.1611 11.804 27.1611H7.43946V26.237H26.3572C27.077 26.237 27.6627 26.8227 27.6627 27.5426C27.6627 28.2626 27.077 28.8482 26.3572 28.8482H7.43946V27.9241ZM26.3572 31.218H5.15585C4.85304 31.218 4.60676 30.9716 4.60676 30.6689C4.60676 30.3661 4.8531 30.1198 5.15585 30.1198H26.3572C27.7782 30.1198 28.9343 28.9637 28.9343 27.5426C28.9343 26.1215 27.7782 24.9654 26.3572 24.9654H5.15585C4.85304 24.9654 4.60676 24.7191 4.60676 24.4163C4.60676 24.1137 4.85285 23.8674 5.15547 23.8672H5.15585H26.3572H26.3578C28.3841 23.8675 30.0326 25.5163 30.0326 27.5427C30.0326 29.5692 28.3838 31.218 26.3572 31.218Z" fill="#440A29"/>
<path d="M19.0361 18.5386H13.9846C13.7739 18.5386 13.6031 18.7094 13.6031 18.9201C13.6031 19.1308 13.7739 19.3016 13.9846 19.3016H19.0361C19.2467 19.3016 19.4176 19.1308 19.4176 18.9201C19.4175 18.7094 19.2467 18.5386 19.0361 18.5386Z" fill="#440A29"/>
<path d="M24.7752 27.1611H14.5259C14.3152 27.1611 14.1444 27.332 14.1444 27.5426C14.1444 27.7533 14.3152 27.9241 14.5259 27.9241H24.7751C24.9858 27.9241 25.1566 27.7533 25.1566 27.5426C25.1566 27.332 24.9858 27.1611 24.7752 27.1611Z" fill="#440A29"/>
<path d="M31.6671 9.91151C31.6671 10.1873 31.4436 10.4109 31.1677 10.4109C30.892 10.4109 30.6683 10.1874 30.6683 9.91151C30.6683 9.63573 30.8919 9.41211 31.1677 9.41211C31.4436 9.41211 31.6671 9.63567 31.6671 9.91151Z" fill="#A183E2"/>
<path d="M25.7739 1.18056C25.7739 1.45634 25.5503 1.67996 25.2745 1.67996C24.9987 1.67996 24.7751 1.45634 24.7751 1.18056C24.7751 0.904773 24.9986 0.681152 25.2745 0.681152C25.5503 0.681152 25.7739 0.90471 25.7739 1.18056Z" fill="#A183E2"/>
<path d="M20.3163 0.119362L20.7169 1.24578C20.734 1.29401 20.768 1.33221 20.8108 1.35156L21.8116 1.80242C21.953 1.86613 21.953 2.0914 21.8116 2.15511L20.8108 2.60597C20.768 2.62526 20.734 2.66347 20.7169 2.71176L20.3163 3.83817C20.2597 3.99732 20.0595 3.99732 20.0029 3.83817L19.6023 2.71176C19.5852 2.66353 19.5513 2.62533 19.5084 2.60597L18.5076 2.15511C18.3662 2.0914 18.3662 1.86613 18.5076 1.80242L19.5084 1.35156C19.5512 1.33227 19.5851 1.29401 19.6023 1.24578L20.0029 0.119362C20.0595 -0.0397873 20.2597 -0.0397873 20.3163 0.119362Z" fill="#CAB4EF"/>
<path d="M29.7995 1.8406L30.35 3.35911C30.3735 3.42416 30.4202 3.47568 30.4791 3.5017L31.8543 4.10955C32.0486 4.19541 32.0486 4.49911 31.8543 4.58497L30.4791 5.19282C30.4202 5.21884 30.3736 5.27037 30.35 5.33541L29.7995 6.85393C29.7217 7.06847 29.4467 7.06847 29.369 6.85393L28.8185 5.33541C28.7949 5.27043 28.7482 5.2189 28.6894 5.19282L27.3142 4.58497C27.1199 4.49911 27.1199 4.19541 27.3142 4.10955L28.6894 3.5017C28.7482 3.47568 28.7949 3.42416 28.8185 3.35911L29.369 1.8406C29.4467 1.62605 29.7217 1.62605 29.7995 1.8406Z" fill="#CAB4EF"/>
</svg>
