<svg xmlns="http://www.w3.org/2000/svg" width="18.375" height="21" viewBox="0 0 18.375 21">
  <path id="Icon_metro-file-picture" data-name="Icon metro-file-picture" d="M20.249,20.3H7.124V17.678l3.938-6.563,5.394,6.563,3.794-2.625Zm0-8.531A1.969,1.969,0,1,1,18.28,9.8,1.969,1.969,0,0,1,20.249,11.772Zm1.76-5.146a18.6,18.6,0,0,0-1.788-2.045,18.6,18.6,0,0,0-2.045-1.788,3.271,3.271,0,0,0-1.865-.865H6.139A1.643,1.643,0,0,0,4.5,3.569V21.288a1.643,1.643,0,0,0,1.641,1.641H21.233a1.643,1.643,0,0,0,1.641-1.641V8.491a3.271,3.271,0,0,0-.865-1.865ZM19.293,5.509a17.9,17.9,0,0,1,1.488,1.669H17.624V4.021a17.882,17.882,0,0,1,1.669,1.488Zm2.269,15.779a.333.333,0,0,1-.328.328H6.139a.333.333,0,0,1-.328-.328V3.569a.333.333,0,0,1,.328-.328H16.312V7.834a.656.656,0,0,0,.656.656h4.594Z" transform="translate(-4.499 -1.928)" fill="#fff"/>
</svg>
