<svg width="60" height="60" viewBox="0 0 60 60" fill="none" xmlns="http://www.w3.org/2000/svg">
<rect opacity="0.2" width="60" height="60" rx="10" fill="#E6E8EC"/>
<path d="M35.4745 15C36.1113 14.9985 36.6149 15.4933 36.6163 16.1529L36.6178 17.2774C40.7498 17.6012 43.4792 20.4168 43.4837 24.7346L43.5 37.3733C43.5059 42.0809 40.5484 44.9775 35.8077 44.985L24.2278 45C19.5168 45.006 16.5222 42.0405 16.5163 37.3193L16.5 24.8291C16.4941 20.4828 19.1273 17.6747 23.2593 17.2954L23.2578 16.1709C23.2563 15.5113 23.745 15.015 24.3967 15.015C25.0483 15.0135 25.537 15.5083 25.5385 16.1679L25.54 17.2174L34.3371 17.2054L34.3356 16.1559C34.3341 15.4963 34.8229 15.0015 35.4745 15ZM36.0787 36.2878H36.0639C35.3827 36.3043 34.8362 36.8756 34.851 37.5652C34.8525 38.2549 35.4019 38.8231 36.0832 38.8381C36.7778 38.8366 37.3405 38.2654 37.3391 37.5607C37.3391 36.8561 36.7748 36.2878 36.0787 36.2878ZM23.8754 36.2893C23.1941 36.3193 22.6609 36.8905 22.6624 37.5802C22.6935 38.2699 23.2563 38.8096 23.9376 38.7781C24.6055 38.7481 25.1372 38.1769 25.1061 37.4872C25.0913 36.8126 24.5418 36.2878 23.8754 36.2893ZM29.977 36.2818C29.2958 36.3133 28.7641 36.883 28.7641 37.5727C28.7952 38.2624 29.358 38.8006 30.0392 38.7706C30.7057 38.7391 31.2389 38.1694 31.2077 37.4782C31.1929 36.8051 30.6435 36.2803 29.977 36.2818ZM23.868 30.892C23.1867 30.922 22.655 31.4932 22.6565 32.1829C22.6861 32.8726 23.2504 33.4123 23.9316 33.3808C24.5981 33.3508 25.1298 32.7796 25.0987 32.0899C25.0838 31.4153 24.5359 30.8905 23.868 30.892ZM29.9711 30.8396C29.2899 30.8696 28.7567 31.4408 28.7582 32.1304C28.7878 32.8201 29.3521 33.3583 30.0333 33.3283C30.6998 33.2968 31.2314 32.7271 31.2018 32.0375C31.1855 31.3628 30.6376 30.8381 29.9711 30.8396ZM36.0728 30.8471C35.3916 30.8621 34.8584 31.4168 34.8599 32.1064V32.1229C34.8747 32.8126 35.4375 33.3358 36.1202 33.3208C36.7866 33.3043 37.3183 32.7331 37.3035 32.0435C37.2724 31.3838 36.7378 30.8456 36.0728 30.8471ZM34.34 19.5142L25.543 19.5262L25.5444 20.7391C25.5444 21.3853 25.0572 21.8951 24.4056 21.8951C23.7539 21.8966 23.2637 21.3883 23.2637 20.7421L23.2622 19.5877C20.3743 19.8771 18.7763 21.5742 18.7807 24.8261L18.7822 25.2924L41.2044 25.2624V24.7376C41.1408 21.5142 39.5235 19.8231 36.6208 19.5712L36.6223 20.7256C36.6223 21.3703 36.1202 21.8816 35.4834 21.8816C34.8317 21.8831 34.3415 21.3733 34.3415 20.7286L34.34 19.5142Z" fill="#23262F"/>
</svg>
