<svg width="29" height="19" viewBox="0 0 29 19" fill="none" xmlns="http://www.w3.org/2000/svg">
<path d="M26.9974 7.91663H1.501C0.6745 7.91663 0 8.59271 0 9.41921V9.58071C0 10.4072 0.6745 11.0833 1.501 11.0833H26.9974C27.8239 11.0833 28.5 10.4072 28.5 9.58071V9.41921C28.5 8.59271 27.8239 7.91663 26.9974 7.91663" fill="#231F20"/>
<path d="M26.9974 15.8334H1.501C0.6745 15.8334 0 16.5095 0 17.336V17.4975C0 18.324 0.6745 19 1.501 19H26.9974C27.8239 19 28.5 18.324 28.5 17.4975V17.336C28.5 16.5095 27.8239 15.8334 26.9974 15.8334" fill="#231F20"/>
<path d="M26.9974 0H1.501C0.6745 0 0 0.676083 0 1.50258V1.66408C0 2.49058 0.6745 3.16667 1.501 3.16667H26.9974C27.8239 3.16667 28.5 2.49058 28.5 1.66408V1.50258C28.5 0.676083 27.8239 0 26.9974 0" fill="#231F20"/>
</svg>
