<svg width="110" height="34" viewBox="0 0 110 34" fill="none" xmlns="http://www.w3.org/2000/svg">
<path d="M39.8299 2.63127H45.1956C46.1059 2.56042 47.0091 2.83693 47.7237 3.40517C48.0222 3.68912 48.2553 4.03466 48.4067 4.41778C48.5582 4.80089 48.6244 5.21239 48.6008 5.62368C48.6008 6.86192 48.0849 7.63582 47.053 7.99697C48.3944 8.40972 49.0651 9.3384 49.0651 10.8346C49.0651 12.3308 48.7556 12.7436 48.1365 13.2079C47.2918 13.745 46.2975 13.9981 45.2988 13.9302H39.8299V2.63127ZM42.2548 4.695V7.17148H44.8345C45.7116 7.17148 46.1759 6.75873 46.1759 5.93324C46.1933 5.76181 46.1715 5.58867 46.112 5.42694C46.0525 5.26522 45.957 5.11915 45.8327 4.99982C45.7084 4.88049 45.5586 4.79103 45.3946 4.73822C45.2305 4.6854 45.0567 4.67062 44.8861 4.695H42.2548ZM46.5371 10.525C46.5371 9.54477 46.0211 9.08043 45.0409 9.08043H42.2548V11.8149H45.0925C45.4952 11.8454 45.8961 11.7361 46.2275 11.5053C46.4519 11.23 46.5626 10.8793 46.5371 10.525Z" fill="#EE0033"/>
<path d="M57.2169 7.01669C57.5278 7.82179 57.6683 8.6826 57.6297 9.54476V13.9302H55.4627V13.2595C54.8058 13.8724 53.9361 14.2055 53.0379 14.1882C52.6347 14.1743 52.2354 14.1048 51.8512 13.9818C51.5011 13.8689 51.1828 13.6743 50.9225 13.4143C50.6647 13.1726 50.4698 12.8714 50.355 12.5372C50.2031 12.1787 50.1326 11.7911 50.1486 11.4021C50.1291 10.9188 50.2358 10.4387 50.4582 10.0091C50.6537 9.63372 50.9599 9.32752 51.3353 9.13202C51.7002 8.91857 52.1033 8.77837 52.5219 8.71927C52.9437 8.61407 53.377 8.56208 53.8118 8.56449H54.5857L55.308 8.66767V8.4613C55.3195 8.27928 55.2827 8.09744 55.2011 7.9343C55.1195 7.77117 54.9962 7.63257 54.8436 7.53262C54.4873 7.31452 54.0744 7.20681 53.657 7.22306H52.9863L52.3156 7.37784L51.6448 7.58421L51.1289 7.79059L50.5098 6.1396C51.5319 5.50894 52.7142 5.18649 53.9149 5.21092C55.5659 5.31411 56.6494 5.88164 57.2169 7.01669ZM53.5022 4.5918C53.4937 4.41822 53.5111 4.24434 53.5538 4.07587C53.5802 3.96474 53.631 3.86084 53.7023 3.77164C53.7737 3.68244 53.8639 3.61014 53.9665 3.55994L54.2761 3.30197C54.3793 3.25038 54.3793 3.14719 54.3793 3.044C54.3793 2.94082 54.3793 2.88922 54.2761 2.88922H54.0697C53.7441 2.9033 53.4338 3.0311 53.1926 3.25038L52.4703 2.52807C52.6777 2.32666 52.9233 2.16878 53.1926 2.06373C53.4919 1.9626 53.8055 1.91033 54.1213 1.90895C54.59 1.86728 55.0597 1.97569 55.4627 2.21851C55.5832 2.32156 55.6818 2.4477 55.7527 2.58948C55.8236 2.73127 55.8653 2.88581 55.8755 3.044C55.8717 3.18748 55.8365 3.32838 55.7723 3.45675C55.7219 3.57106 55.6521 3.67579 55.5659 3.76631L55.3596 3.97268L55.1016 4.12746L54.9468 4.33384C54.9095 4.37571 54.8811 4.42476 54.8633 4.47799C54.8456 4.53121 54.8389 4.58749 54.8436 4.6434L53.5022 4.5918ZM53.5538 12.176C54.1866 12.1956 54.8066 11.995 55.308 11.6085V10.2671L54.6888 10.1639H54.0181C53.0379 10.1639 52.5219 10.525 52.5219 11.2473C52.5219 11.9696 52.8831 12.176 53.5538 12.176Z" fill="#EE0033"/>
<path d="M63.2534 14.1882C62.6863 14.2178 62.1195 14.1223 61.5934 13.9083C61.0674 13.6943 60.5948 13.3671 60.2094 12.9499C59.4504 12.0627 59.0623 10.9171 59.1259 9.75116C59.0698 8.5706 59.4562 7.41156 60.2094 6.50078C61.0385 5.73572 62.1253 5.31091 63.2534 5.31091C64.3816 5.31091 65.4683 5.73572 66.2974 6.50078C67.0507 7.41156 67.437 8.5706 67.3809 9.75116C67.4445 10.9171 67.0565 12.0627 66.2974 12.9499C65.912 13.3671 65.4395 13.6943 64.9134 13.9083C64.3873 14.1223 63.8206 14.2178 63.2534 14.1882ZM62.0668 11.5053C62.1967 11.6999 62.3735 11.8585 62.5809 11.9667C62.7883 12.075 63.0195 12.1292 63.2534 12.1245C63.4944 12.1286 63.7329 12.0745 63.9485 11.9667C64.164 11.8589 64.3504 11.7006 64.4917 11.5053C64.7973 10.9733 64.9408 10.3636 64.9044 9.75116C64.9391 9.12243 64.796 8.49663 64.4917 7.94539C64.3367 7.76972 64.1462 7.62902 63.9327 7.53265C63.7192 7.43627 63.4877 7.38643 63.2534 7.38643C63.0192 7.38643 62.7876 7.43627 62.5741 7.53265C62.3607 7.62902 62.1701 7.76972 62.0152 7.94539C61.6867 8.48714 61.5419 9.12049 61.6024 9.75116C61.561 10.3709 61.7242 10.9872 62.0668 11.5053Z" fill="#EE0033"/>
<path d="M78.8346 2.63127H81.3111V13.9302H78.8346V9.18362H73.8817V13.9302H71.4052V2.63127H73.8817V7.0167H78.8346V2.63127Z" fill="#EE0033"/>
<path d="M83.4263 4.5918V2.83763H85.8512V4.5918H83.4263ZM83.4263 13.9302V5.62367H85.8512V13.9302H83.4263Z" fill="#EE0033"/>
<path d="M95.0349 9.18361C95.0371 9.65236 94.9852 10.1198 94.8801 10.5766H89.8756C89.8951 10.8208 89.9627 11.0588 90.0745 11.2768C90.1864 11.4947 90.3403 11.6884 90.5273 11.8467C90.7143 12.0049 90.9308 12.1246 91.1643 12.1989C91.3978 12.2731 91.6436 12.3004 91.8877 12.2792C92.6559 12.2472 93.4026 12.016 94.0546 11.6085L94.7769 13.2079C93.8507 13.8446 92.7536 14.1863 91.6297 14.1882C91.0529 14.2072 90.4779 14.1122 89.9379 13.9086C89.3978 13.7049 88.9032 13.3967 88.4825 13.0015C87.6862 12.1301 87.2605 10.9827 87.2959 9.80273C87.2438 8.61385 87.6501 7.45033 88.4309 6.55235C88.8006 6.14328 89.2556 5.82036 89.7637 5.6064C90.2719 5.39245 90.8208 5.29267 91.3718 5.31411C91.8651 5.29926 92.3564 5.38286 92.817 5.56003C93.2777 5.7372 93.6984 6.00438 94.0546 6.34597C94.74 7.12722 95.0919 8.14592 95.0349 9.18361ZM89.2564 4.54021L90.6495 2.42488H92.4036L93.7966 4.54021H92.1457L91.5265 3.61153L90.9074 4.54021H89.2564ZM92.7648 8.97723C92.8003 8.89593 92.8178 8.80796 92.8164 8.71927C92.8231 8.5203 92.7901 8.32198 92.7192 8.13593C92.6483 7.94989 92.5411 7.77986 92.4036 7.63581C92.2733 7.49444 92.113 7.38401 91.9344 7.3126C91.7559 7.24118 91.5637 7.21059 91.3718 7.22306C91.1758 7.21694 90.981 7.25558 90.8022 7.33604C90.6234 7.4165 90.4653 7.53666 90.3399 7.6874C90.0163 8.03996 89.8328 8.49873 89.824 8.97723H92.7648ZM93.2291 2.99241C93.2234 2.81891 93.2408 2.64541 93.2807 2.47648C93.3544 2.26192 93.5003 2.07958 93.6935 1.96054L94.003 1.70258C94.0526 1.68117 94.0941 1.64477 94.1219 1.59849C94.1497 1.55221 94.1622 1.49839 94.1578 1.44461C94.1578 1.39302 94.1062 1.28983 94.0546 1.28983H93.7966C93.471 1.30391 93.1607 1.4317 92.9196 1.65098L92.1973 0.928676C92.4156 0.715818 92.6806 0.556826 92.9712 0.464336C93.2645 0.336174 93.5798 0.26609 93.8998 0.257963C94.3516 0.223784 94.8027 0.332044 95.1897 0.567523C95.3101 0.670576 95.4087 0.796717 95.4796 0.938498C95.5505 1.08028 95.5922 1.23483 95.6024 1.39302C95.5987 1.53649 95.5634 1.67739 95.4992 1.80576L95.3445 2.11532L95.0865 2.3217L94.8285 2.47648L94.6737 2.68285C94.6221 2.73444 94.6221 2.83763 94.6221 2.99241H93.2291Z" fill="#EE0033"/>
<path d="M96.4795 5.62367H98.5433L98.698 6.55235C99.0169 6.17628 99.4114 5.87163 99.8559 5.65828C100.3 5.44492 100.785 5.32765 101.278 5.31411C101.726 5.29513 102.17 5.40082 102.562 5.61942C102.954 5.83802 103.277 6.16097 103.496 6.55235C103.844 6.15799 104.274 5.84328 104.754 5.62961C105.235 5.41594 105.756 5.30833 106.282 5.31411C106.685 5.29461 107.088 5.36294 107.462 5.51438C107.836 5.66583 108.173 5.89676 108.449 6.1912C108.97 6.92748 109.225 7.81902 109.171 8.71927V13.9302H106.747V9.08042C106.769 8.6523 106.68 8.22564 106.489 7.84218C106.378 7.69086 106.228 7.57249 106.056 7.49977C105.883 7.42706 105.694 7.40274 105.508 7.42943C105.217 7.43913 104.932 7.51363 104.673 7.6475C104.414 7.78138 104.188 7.97126 104.012 8.20333C104.053 8.26387 104.071 8.33698 104.064 8.40971V13.9302H101.639V8.92564C101.639 7.94537 101.226 7.42943 100.504 7.42943C100.188 7.4433 99.8793 7.5296 99.6019 7.68168C99.3246 7.83376 99.086 8.04754 98.9044 8.30652V13.9302H96.4795V5.62367Z" fill="#EE0033"/>
<path d="M44.1638 19.5023C44.898 19.4623 45.6324 19.5797 46.3175 19.8466C47.0027 20.1136 47.6229 20.5239 48.1365 21.0501C49.112 22.1969 49.6106 23.6742 49.5295 25.1776C49.6025 26.6642 49.1041 28.1224 48.1365 29.2534C47.6229 29.7796 47.0027 30.1899 46.3175 30.4569C45.6324 30.7238 44.898 30.8412 44.1638 30.8012H39.83V26.0546H39.0561V24.3521H39.83V19.5023H44.1638ZM44.1638 28.6859C44.5579 28.7152 44.9531 28.6456 45.3135 28.4834C45.6739 28.3212 45.9881 28.0716 46.2275 27.7572C46.7558 27.0051 47.0107 26.0947 46.9498 25.1776C47.0062 24.2286 46.7527 23.2871 46.2275 22.4947C45.9742 22.1996 45.6562 21.967 45.2982 21.8148C44.9403 21.6627 44.5521 21.5952 44.1638 21.6176H42.3065V24.3521H44.267V26.0546H42.3065V28.6859H44.1638Z" fill="#EE0033"/>
<path d="M51.1805 21.4113V19.7087H53.6054V21.4113H51.1805ZM51.1805 30.8012V22.4947H53.6054V30.8012H51.1805Z" fill="#EE0033"/>
<path d="M62.8406 26.0546C62.8224 26.5251 62.7532 26.9921 62.6342 27.4476H57.6296C57.6491 27.6919 57.7168 27.9298 57.8286 28.1478C57.9405 28.3658 58.0943 28.5595 58.2813 28.7177C58.4684 28.876 58.6849 28.9956 58.9183 29.0699C59.1518 29.1441 59.3977 29.1714 59.6418 29.1502C60.4364 29.1338 61.2083 28.8825 61.8603 28.4279L62.531 30.0273C61.6173 30.6894 60.5118 31.0338 59.3838 31.0076C58.8056 31.0386 58.2273 30.9491 57.6856 30.7449C57.1438 30.5406 56.6504 30.226 56.2366 29.8209C55.8351 29.3941 55.5233 28.8911 55.3195 28.3417C55.1156 27.7923 55.024 27.2076 55.05 26.6221C55.0211 25.4524 55.4253 24.3133 56.185 23.4234C56.5647 23.013 57.0289 22.6899 57.5455 22.4761C58.062 22.2624 58.6188 22.1631 59.1774 22.1851C59.6632 22.1684 60.1473 22.2513 60.5998 22.4287C61.0524 22.6062 61.4638 22.8745 61.8087 23.217C62.5127 23.9902 62.8835 25.0098 62.8406 26.0546ZM57.0105 21.4112L58.4035 19.2959H60.1577L61.5507 21.4112H59.8997L59.2806 20.4825L58.6615 21.4112H57.0105ZM60.5189 25.8482C60.5704 25.7967 60.5704 25.7451 60.5704 25.5903C60.5784 25.1983 60.4508 24.8156 60.2093 24.5068C60.0814 24.3624 59.9214 24.2498 59.7423 24.1782C59.5631 24.1065 59.3697 24.0777 59.1774 24.0941C58.9739 24.0876 58.7714 24.1258 58.5842 24.206C58.397 24.2862 58.2296 24.4065 58.094 24.5584C57.7703 24.911 57.5868 25.3697 57.578 25.8482H60.5189ZM58.094 34V32.1426H60.3125V34H58.094Z" fill="#EE0033"/>
<path d="M71.9727 30.8012H69.5478V26.1578C69.5731 25.6629 69.4848 25.1688 69.2898 24.7132C69.135 24.4037 68.7739 24.3005 68.3095 24.3005C67.9811 24.3163 67.6609 24.4085 67.3743 24.5697C67.0877 24.7309 66.8426 24.9567 66.6586 25.2292V30.8012H64.2337V22.4947H66.349L66.5038 23.475C66.8266 23.0737 67.2351 22.7496 67.6993 22.5265C68.1634 22.3033 68.6716 22.1867 69.1866 22.1851C69.5745 22.1666 69.9615 22.2359 70.3188 22.3877C70.6761 22.5396 70.9946 22.7702 71.2504 23.0622C71.7788 23.7948 72.0344 24.6891 71.9727 25.5903V30.8012Z" fill="#EE0033"/>
<path d="M85.4385 19.5023V21.6176H82.0333V30.8012H79.5568V21.6176H76.2032V19.5023H85.4385Z" fill="#EE0033"/>
<path d="M92.61 22.4947C92.7395 22.4834 92.8642 22.4397 92.9724 22.3676C93.0806 22.2955 93.1689 22.1972 93.2291 22.0819C93.2987 21.8123 93.3334 21.5349 93.3323 21.2564H95.0349C95.0455 21.4984 95.0282 21.7408 94.9833 21.9787C94.963 22.2308 94.8928 22.4763 94.7769 22.701C94.6687 22.8946 94.5292 23.0689 94.3641 23.217C94.1388 23.3975 93.8734 23.5214 93.5902 23.5781V30.8012H91.4749L91.3717 29.7693C90.6731 30.5161 89.7104 30.9605 88.6889 31.0076C88.3047 31.0363 87.9191 30.9769 87.5614 30.8338C87.2037 30.6907 86.8835 30.4678 86.6251 30.1821C86.1608 29.6661 85.9544 28.8407 85.9544 27.7056V22.4947H88.3277V27.3444C88.3277 28.4279 88.7405 28.9438 89.566 28.9438C89.8958 28.9128 90.2133 28.8029 90.4917 28.6233C90.7701 28.4437 91.0012 28.1997 91.1654 27.912V22.4947H92.61ZM89.1532 21.4112C89.1476 21.2547 89.165 21.0983 89.2048 20.9469C89.2344 20.8371 89.2863 20.7346 89.3573 20.6458C89.4283 20.557 89.5169 20.4839 89.6176 20.4309L89.9271 20.173C90.0303 20.0698 90.0819 20.0182 90.0819 19.915C90.0819 19.875 90.0726 19.8355 90.0547 19.7996C90.0368 19.7638 90.0107 19.7327 89.9787 19.7086H89.7207C89.4008 19.7462 89.0973 19.8711 88.8437 20.0698L88.1214 19.3991C88.3472 19.1962 88.61 19.0386 88.8953 18.9347C89.1921 18.8242 89.5073 18.7717 89.8239 18.78C90.2757 18.7458 90.7268 18.854 91.1138 19.0895C91.2391 19.1882 91.3411 19.3134 91.4124 19.4561C91.4838 19.5988 91.5227 19.7555 91.5265 19.915C91.5349 20.0546 91.5174 20.1945 91.4749 20.3278L91.2685 20.5857L91.0106 20.8437L90.8042 20.9985C90.7126 21.0398 90.6392 21.1132 90.5978 21.2048C90.5488 21.2813 90.5304 21.3734 90.5462 21.4628L89.1532 21.4112Z" fill="#EE0033"/>
<path d="M14.2912 32.8133C13.5869 32.8204 12.8931 32.6425 12.2791 32.2974C11.0833 31.7103 9.97258 30.9641 8.97711 30.0789L8.46117 29.6661L7.22293 28.5311C5.72197 27.0433 4.45244 25.339 3.45662 23.475C2.13994 21.08 1.23314 18.4817 0.773769 15.7875C0.59812 15.0076 0.494497 14.2132 0.464209 13.4143V12.9499C0.361022 11.5569 0.309429 10.1123 0.257835 8.71926V7.79058C0.197921 6.87317 0.490141 5.96744 1.07493 5.25802C1.65971 4.54861 2.49304 4.08893 3.40503 3.97267L4.84964 3.71471L6.65541 3.40515C8.10165 3.09414 9.5049 2.60907 10.8345 1.96054C11.3867 1.74418 11.9215 1.48544 12.4339 1.18664C13.0222 0.906879 13.6655 0.761726 14.317 0.761726C14.9685 0.761726 15.6118 0.906879 16.2002 1.18664C17.3366 1.78949 18.5081 2.32358 19.7085 2.78603C21.0323 3.23241 22.3979 3.54355 23.7844 3.71471L24.8163 3.86949H25.3322C26.2645 4.0102 27.1048 4.50991 27.6736 5.26186C28.2423 6.01381 28.4945 6.95838 28.3762 7.89377V8.92563C28.335 9.18144 28.3178 9.44053 28.3246 9.69953C28.273 11.041 28.2214 12.3308 28.1182 13.6722C27.9899 15.4238 27.661 17.1549 27.138 18.8316C25.8604 23.1786 23.3083 27.0426 19.8117 29.9241C18.971 30.6711 18.0545 31.3281 17.0773 31.8847L16.5097 32.1942L16.3034 32.2974C15.6912 32.6471 14.9961 32.8254 14.2912 32.8133ZM14.3428 1.96054C13.8777 1.95807 13.4184 2.06406 13.0014 2.2701L11.3504 3.044C9.9348 3.72636 8.44624 4.24562 6.91337 4.59179L5.00442 4.90135L3.6114 5.10773C2.11519 5.41729 1.39289 6.29437 1.39289 7.79058V8.66767C1.44448 10.0607 1.49608 11.4537 1.59926 12.8983V13.3111C1.63711 14.0725 1.72327 14.8307 1.85723 15.5812C2.30712 18.1488 3.17879 20.6243 4.43689 22.9074C5.39394 24.6785 6.61134 26.2959 8.04843 27.7056C8.4018 28.0761 8.78111 28.4209 9.18348 28.7375L9.69941 29.2018C10.6296 30.0067 11.6513 30.6994 12.7434 31.2655C13.1921 31.5187 13.6986 31.6517 14.2138 31.6517C14.729 31.6517 15.2355 31.5187 15.6842 31.2655L15.9422 31.1624L16.4581 30.8528C17.3551 30.3307 18.2014 29.7261 18.9862 29.047C20.1541 28.0874 21.2254 27.0161 22.185 25.8482C23.9146 23.6729 25.2107 21.1858 26.0029 18.522C26.4992 16.9292 26.8108 15.2846 26.9316 13.6206C27.0348 12.2792 27.0864 10.9894 27.138 9.64794C27.1313 9.40606 27.1485 9.16411 27.1896 8.92563V7.79058C27.249 7.17093 27.068 6.55213 26.6838 6.06231C26.2996 5.5725 25.7418 5.24918 25.1258 5.15932L24.6615 5.05613H24.6099L23.6296 4.90135C22.1709 4.7034 20.7361 4.35766 19.3474 3.86949C18.0805 3.40547 16.8404 2.87152 15.6326 2.2701C15.2319 2.07003 14.7907 1.96415 14.3428 1.96054Z" fill="#EE0033"/>
<path d="M24.8165 6.96511L24.2489 6.86193L23.3719 6.70715C21.785 6.54041 20.2252 6.17645 18.7285 5.62369C17.3886 5.1351 16.0792 4.56656 14.8074 3.92111C14.6513 3.83136 14.4701 3.79512 14.2914 3.81792C14.1297 3.80272 13.9672 3.83882 13.8271 3.92111L12.1245 4.7466C10.57 5.46486 8.94458 6.01821 7.27475 6.39759L5.3142 6.70715L3.97277 6.96511C3.35365 7.0683 3.25047 7.22308 3.25047 7.79061V8.56451L3.40525 12.692C3.44752 12.8429 3.46495 12.9998 3.45684 13.1563C3.50843 13.827 3.56003 14.4977 3.66321 15.1685C4.09909 17.5308 4.89976 19.8109 6.03651 21.9272C6.90655 23.5492 8.02015 25.0282 9.33848 26.3126C9.65685 26.6653 10.0018 26.993 10.3703 27.2929L10.9379 27.7572C11.7479 28.4758 12.6501 29.083 13.6207 29.563C13.8123 29.6618 14.0243 29.7148 14.2398 29.7178C14.439 29.7146 14.6342 29.6614 14.8074 29.563L15.5297 29.2018C16.3404 28.7299 17.101 28.1768 17.7998 27.5508C18.8589 26.706 19.8117 25.7358 20.6374 24.6616C22.2326 22.6758 23.4243 20.3974 24.1458 17.9545C24.6155 16.4985 24.9099 14.9916 25.0229 13.4659C25.126 12.1244 25.1776 10.8346 25.2292 9.54478C25.272 9.32392 25.2893 9.09888 25.2808 8.87407C25.2723 8.46065 25.2895 8.0471 25.3324 7.63583C25.3366 7.48177 25.2875 7.33099 25.1936 7.20884C25.0996 7.08669 24.9664 7.00062 24.8165 6.96511ZM7.42953 17.0258C7.27049 17.0128 7.12263 16.9388 7.01678 16.8194C6.94939 16.7746 6.89489 16.7129 6.85869 16.6405C6.82249 16.5681 6.80584 16.4875 6.81041 16.4067C6.82344 16.2477 6.89737 16.0998 7.01678 15.9939C7.07178 15.9419 7.13663 15.9014 7.20751 15.8748C7.2784 15.8483 7.35388 15.8361 7.42953 15.8392C7.51034 15.8346 7.59095 15.8512 7.66335 15.8874C7.73575 15.9236 7.79743 15.9781 7.84227 16.0455C7.8943 16.1005 7.93479 16.1654 7.96137 16.2363C7.98796 16.3072 8.00009 16.3826 7.99705 16.4583C7.99705 16.5328 7.98237 16.6066 7.95385 16.6755C7.92533 16.7443 7.88353 16.8069 7.83083 16.8596C7.77813 16.9123 7.71556 16.9541 7.64671 16.9826C7.57785 17.0111 7.50405 17.0258 7.42953 17.0258ZM7.84227 15.3748C7.79743 15.4422 7.73575 15.4967 7.66335 15.5329C7.59095 15.5691 7.51034 15.5858 7.42953 15.5812C7.26928 15.5693 7.11863 15.5002 7.00501 15.3866C6.89138 15.273 6.82232 15.1223 6.81041 14.9621C6.81041 14.882 6.82905 14.803 6.86487 14.7313C6.90069 14.6597 6.9527 14.5974 7.01678 14.5493C7.07178 14.4973 7.13663 14.4568 7.20751 14.4302C7.2784 14.4036 7.35388 14.3915 7.42953 14.3946C7.54516 14.3897 7.65951 14.4203 7.75724 14.4823C7.85497 14.5443 7.93142 14.6347 7.97633 14.7413C8.02124 14.848 8.03247 14.9659 8.00851 15.0791C7.98455 15.1923 7.92654 15.2955 7.84227 15.3748ZM7.42953 14.1366C7.34871 14.1411 7.2681 14.1245 7.1957 14.0883C7.1233 14.0521 7.06162 13.9976 7.01678 13.9302C6.89737 13.8244 6.82344 13.6765 6.81041 13.5175C6.82338 13.3624 6.89429 13.2178 7.00902 13.1127C7.12375 13.0075 7.27389 12.9494 7.42953 12.9499C7.55731 12.988 7.66937 13.0663 7.74906 13.1733C7.82875 13.2802 7.87179 13.4099 7.87179 13.5433C7.87179 13.6766 7.82875 13.8064 7.74906 13.9133C7.66937 14.0202 7.55731 14.0985 7.42953 14.1366ZM7.99705 12.0729C8.00009 12.1485 7.98796 12.224 7.96137 12.2949C7.93479 12.3658 7.8943 12.4306 7.84227 12.4856C7.79743 12.553 7.73575 12.6075 7.66335 12.6437C7.59095 12.6799 7.51034 12.6965 7.42953 12.692C7.26928 12.6801 7.11863 12.611 7.00501 12.4974C6.89138 12.3837 6.82232 12.2331 6.81041 12.0729C6.78286 11.9804 6.77728 11.8829 6.79411 11.7879C6.81094 11.693 6.84971 11.6033 6.90734 11.526C6.96497 11.4487 7.03985 11.3859 7.12603 11.3427C7.21221 11.2994 7.30731 11.2769 7.40373 11.2769C7.50015 11.2769 7.59524 11.2994 7.68142 11.3427C7.7676 11.3859 7.84249 11.4487 7.90012 11.526C7.95774 11.6033 7.99652 11.693 8.01335 11.7879C8.03018 11.8829 8.0246 11.9804 7.99705 12.0729ZM8.87414 18.522C8.71739 18.5008 8.57192 18.4288 8.46008 18.317C8.34823 18.2051 8.27619 18.0596 8.25502 17.9029C8.22748 17.8105 8.2219 17.7129 8.23873 17.618C8.25555 17.523 8.29433 17.4333 8.35195 17.356C8.40958 17.2787 8.48447 17.2159 8.57065 17.1727C8.65683 17.1294 8.75192 17.1069 8.84834 17.1069C8.94477 17.1069 9.03986 17.1294 9.12604 17.1727C9.21222 17.2159 9.2871 17.2787 9.34473 17.356C9.40236 17.4333 9.44113 17.523 9.45796 17.618C9.47479 17.7129 9.46921 17.8105 9.44166 17.9029C9.44221 18.0585 9.38411 18.2087 9.27894 18.3234C9.17377 18.4381 9.02924 18.509 8.87414 18.522ZM9.28689 15.3748C9.24204 15.4422 9.18036 15.4967 9.10796 15.5329C9.03556 15.5691 8.95496 15.5858 8.87414 15.5812C8.79284 15.5812 8.71233 15.5652 8.63721 15.5341C8.5621 15.503 8.49385 15.4574 8.43635 15.3999C8.37886 15.3424 8.33326 15.2741 8.30215 15.199C8.27103 15.1239 8.25502 15.0434 8.25502 14.9621C8.27819 14.8111 8.35218 14.6726 8.46475 14.5694C8.57733 14.4662 8.72175 14.4045 8.87414 14.3946C8.98977 14.3897 9.10412 14.4203 9.20185 14.4823C9.29959 14.5443 9.37603 14.6347 9.42094 14.7413C9.46586 14.848 9.47708 14.9659 9.45312 15.0791C9.42916 15.1923 9.37116 15.2955 9.28689 15.3748ZM9.44166 16.4067C9.4447 16.4823 9.43257 16.5578 9.40599 16.6287C9.37941 16.6996 9.33891 16.7644 9.28689 16.8194C9.24204 16.8868 9.18036 16.9413 9.10796 16.9775C9.03556 17.0137 8.95496 17.0304 8.87414 17.0258C8.71389 17.0139 8.56325 16.9448 8.44962 16.8312C8.33599 16.7176 8.26694 16.5669 8.25502 16.4067C8.25502 16.2519 8.35821 16.1487 8.46139 15.9939C8.51639 15.9419 8.58124 15.9014 8.65212 15.8748C8.72301 15.8483 8.7985 15.8361 8.87414 15.8392C8.95066 15.831 9.02803 15.8401 9.10058 15.8658C9.17313 15.8914 9.23902 15.933 9.29344 15.9874C9.34785 16.0418 9.3894 16.1077 9.41505 16.1803C9.4407 16.2528 9.44979 16.3302 9.44166 16.4067ZM9.28689 13.9818C9.23189 14.0338 9.16704 14.0743 9.09615 14.1009C9.02527 14.1275 8.94978 14.1396 8.87414 14.1366C8.79284 14.1366 8.71233 14.1206 8.63721 14.0895C8.5621 14.0583 8.49385 14.0127 8.43635 13.9552C8.37886 13.8978 8.33326 13.8295 8.30215 13.7544C8.27103 13.6793 8.25502 13.5988 8.25502 13.5175C8.26799 13.3624 8.3389 13.2178 8.45363 13.1127C8.56836 13.0075 8.7185 12.9494 8.87414 12.9499C8.95066 12.9418 9.02803 12.9509 9.10058 12.9766C9.17313 13.0022 9.23902 13.0438 9.29344 13.0982C9.34785 13.1526 9.3894 13.2185 9.41505 13.291C9.4407 13.3636 9.44979 13.4409 9.44166 13.5175C9.44568 13.6855 9.39095 13.8498 9.28689 13.9818ZM8.87414 12.692C8.70994 12.692 8.55246 12.6267 8.43635 12.5106C8.32025 12.3945 8.25502 12.2371 8.25502 12.0729C8.25502 11.9928 8.27367 11.9138 8.30949 11.8421C8.34531 11.7705 8.39732 11.7082 8.46139 11.6601C8.51639 11.6081 8.58124 11.5676 8.65212 11.541C8.72301 11.5144 8.7985 11.5023 8.87414 11.5053C9.00192 11.5434 9.11399 11.6217 9.19367 11.7286C9.27336 11.8355 9.31641 11.9653 9.31641 12.0986C9.31641 12.232 9.27336 12.3618 9.19367 12.4687C9.11399 12.5756 9.00192 12.6539 8.87414 12.692ZM8.87414 11.2474C8.79332 11.2519 8.71271 11.2353 8.64031 11.1991C8.56791 11.1629 8.50623 11.1084 8.46139 11.041C8.394 10.9961 8.3395 10.9345 8.3033 10.8621C8.2671 10.7897 8.25046 10.7091 8.25502 10.6282C8.26799 10.4731 8.3389 10.3286 8.45363 10.2234C8.56836 10.1183 8.7185 10.0602 8.87414 10.0607C9.00192 10.0988 9.11399 10.1771 9.19367 10.284C9.27336 10.3909 9.31641 10.5207 9.31641 10.654C9.31641 10.7874 9.27336 10.9171 9.19367 11.024C9.11399 11.131 9.00192 11.2093 8.87414 11.2474ZM10.6799 19.7603C10.5597 19.8593 10.4186 19.9299 10.2672 19.9666C10.1926 19.9666 10.1188 19.952 10.05 19.9234C9.98112 19.8949 9.91856 19.8531 9.86586 19.8004C9.81316 19.7477 9.77135 19.6851 9.74283 19.6163C9.71431 19.5474 9.69963 19.4736 9.69963 19.3991C9.6823 19.279 9.7039 19.1566 9.76127 19.0497C9.81863 18.9428 9.90875 18.8571 10.0184 18.8051C10.128 18.7532 10.2514 18.7378 10.3705 18.7611C10.4895 18.7844 10.598 18.8453 10.6799 18.9348C10.744 18.9828 10.796 19.0451 10.8318 19.1168C10.8676 19.1884 10.8863 19.2674 10.8863 19.3475C10.8863 19.4276 10.8676 19.5066 10.8318 19.5782C10.796 19.6499 10.744 19.7122 10.6799 19.7603ZM10.2672 18.522C10.1926 18.522 10.1188 18.5073 10.05 18.4788C9.98112 18.4503 9.91856 18.4085 9.86586 18.3558C9.81316 18.3031 9.77135 18.2405 9.74283 18.1717C9.71431 18.1028 9.69963 18.029 9.69963 17.9545C9.69252 17.8706 9.70258 17.7862 9.72919 17.7064C9.7558 17.6265 9.79841 17.553 9.85441 17.4902C9.96792 17.3886 10.1149 17.3325 10.2672 17.3325C10.4194 17.3325 10.5664 17.3886 10.6799 17.4902C10.7993 17.596 10.8732 17.7439 10.8863 17.9029C10.8651 18.0596 10.7931 18.2051 10.6812 18.317C10.5694 18.4288 10.4239 18.5008 10.2672 18.522ZM9.85441 15.9939C9.96792 15.8924 10.1149 15.8363 10.2672 15.8363C10.4194 15.8363 10.5664 15.8924 10.6799 15.9939C10.7831 16.1487 10.8863 16.2519 10.8347 16.4583C10.8229 16.6049 10.7593 16.7425 10.6553 16.8465C10.5514 16.9505 10.4137 17.014 10.2672 17.0258C10.1863 17.0304 10.1057 17.0137 10.0333 16.9775C9.96093 16.9413 9.89925 16.8868 9.85441 16.8194C9.80239 16.7644 9.76189 16.6996 9.73531 16.6287C9.70873 16.5578 9.6966 16.4823 9.69963 16.4067C9.6966 16.331 9.70873 16.2556 9.73531 16.1847C9.76189 16.1138 9.80239 16.0489 9.85441 15.9939ZM9.69963 14.9621C9.69479 14.8464 9.72541 14.7321 9.7874 14.6344C9.84938 14.5366 9.93977 14.4602 10.0464 14.4153C10.1531 14.3704 10.2709 14.3591 10.3842 14.3831C10.4974 14.4071 10.6006 14.4651 10.6799 14.5493C10.7831 14.7041 10.8863 14.8589 10.8347 15.0137C10.8347 15.1642 10.7749 15.3085 10.6685 15.415C10.562 15.5214 10.4177 15.5812 10.2672 15.5812C10.1863 15.5858 10.1057 15.5691 10.0333 15.5329C9.96093 15.4967 9.89925 15.4422 9.85441 15.3748C9.80239 15.3198 9.76189 15.255 9.73531 15.1841C9.70873 15.1132 9.6966 15.0377 9.69963 14.9621ZM10.6799 13.9302C10.5741 14.0496 10.4262 14.1236 10.2672 14.1366C10.1748 14.1641 10.0772 14.1697 9.98225 14.1529C9.8873 14.1361 9.7976 14.0973 9.72029 14.0397C9.64299 13.982 9.58021 13.9071 9.53696 13.821C9.49371 13.7348 9.47119 13.6397 9.47119 13.5433C9.47119 13.4468 9.49371 13.3517 9.53696 13.2656C9.58021 13.1794 9.64299 13.1045 9.72029 13.0469C9.7976 12.9892 9.8873 12.9505 9.98225 12.9336C10.0772 12.9168 10.1748 12.9224 10.2672 12.9499C10.4195 12.9599 10.564 13.0216 10.6765 13.1248C10.7891 13.228 10.8631 13.3665 10.8863 13.5175C10.8732 13.6765 10.7993 13.8244 10.6799 13.9302ZM10.6799 12.4856C10.6351 12.553 10.5734 12.6075 10.501 12.6437C10.4286 12.6799 10.348 12.6965 10.2672 12.692C10.1748 12.7195 10.0772 12.7251 9.98225 12.7083C9.8873 12.6914 9.7976 12.6527 9.72029 12.595C9.64299 12.5374 9.58021 12.4625 9.53696 12.3763C9.49371 12.2902 9.47119 12.1951 9.47119 12.0986C9.47119 12.0022 9.49371 11.9071 9.53696 11.821C9.58021 11.7348 9.64299 11.6599 9.72029 11.6023C9.7976 11.5446 9.8873 11.5059 9.98225 11.489C10.0772 11.4722 10.1748 11.4778 10.2672 11.5053C10.4228 11.5048 10.5729 11.5629 10.6877 11.6681C10.8024 11.7732 10.8733 11.9178 10.8863 12.0729C10.8732 12.2319 10.7993 12.3798 10.6799 12.4856ZM10.6799 11.0926C10.6249 11.1446 10.5601 11.1851 10.4892 11.2117C10.4183 11.2383 10.3428 11.2504 10.2672 11.2474C10.1881 11.2477 10.1098 11.2315 10.0374 11.1998C9.96491 11.1681 9.89989 11.1216 9.84645 11.0633C9.79302 11.005 9.75236 10.9362 9.72707 10.8613C9.70179 10.7864 9.69244 10.707 9.69963 10.6282C9.69151 10.5517 9.7006 10.4744 9.72625 10.4018C9.7519 10.3292 9.79345 10.2634 9.84786 10.2089C9.90227 10.1545 9.96817 10.113 10.0407 10.0873C10.1133 10.0617 10.1906 10.0526 10.2672 10.0607C10.4228 10.0602 10.5729 10.1183 10.6877 10.2234C10.8024 10.3286 10.8733 10.4731 10.8863 10.6282C10.862 10.7992 10.7905 10.96 10.6799 11.0926ZM13.1048 11.5053C13.2717 11.5088 13.4336 11.5628 13.5691 11.6601C13.6658 11.7763 13.7203 11.9218 13.7239 12.0729C13.712 12.2331 13.6429 12.3837 13.5293 12.4974C13.4157 12.611 13.265 12.6801 13.1048 12.692C12.9458 12.6789 12.7979 12.605 12.692 12.4856C12.64 12.4306 12.5995 12.3658 12.5729 12.2949C12.5464 12.224 12.5342 12.1485 12.5373 12.0729C12.5373 11.9983 12.5519 11.9245 12.5805 11.8557C12.609 11.7868 12.6508 11.7243 12.7035 11.6716C12.7562 11.6189 12.8188 11.577 12.8876 11.5485C12.9565 11.52 13.0303 11.5053 13.1048 11.5053ZM13.5175 19.7603C13.4117 19.8797 13.2638 19.9536 13.1048 19.9666C12.9538 19.9435 12.8153 19.8695 12.7121 19.7569C12.6089 19.6443 12.5472 19.4999 12.5373 19.3475C12.5291 19.271 12.5382 19.1936 12.5639 19.1211C12.5895 19.0485 12.6311 18.9826 12.6855 18.9282C12.7399 18.8738 12.8058 18.8323 12.8784 18.8066C12.9509 18.781 13.0283 18.7719 13.1048 18.78C13.2604 18.7794 13.4106 18.8375 13.5253 18.9427C13.64 19.0479 13.7109 19.1924 13.7239 19.3475C13.7285 19.4283 13.7118 19.5089 13.6756 19.5813C13.6394 19.6537 13.5849 19.7154 13.5175 19.7603ZM13.7239 20.7921C13.712 20.9524 13.6429 21.103 13.5293 21.2166C13.4157 21.3303 13.265 21.3993 13.1048 21.4112C13.0257 21.4116 12.9474 21.3954 12.875 21.3637C12.8025 21.332 12.7375 21.2855 12.6841 21.2272C12.6307 21.1689 12.59 21.1001 12.5647 21.0252C12.5394 20.9503 12.5301 20.8709 12.5373 20.7921C12.5409 20.641 12.5954 20.4956 12.692 20.3794C12.8056 20.2779 12.9525 20.2217 13.1048 20.2217C13.2571 20.2217 13.404 20.2779 13.5175 20.3794C13.6369 20.4852 13.7109 20.6331 13.7239 20.7921ZM13.1048 18.522C13.0257 18.5223 12.9474 18.5061 12.875 18.4745C12.8025 18.4428 12.7375 18.3963 12.6841 18.338C12.6307 18.2797 12.59 18.2109 12.5647 18.136C12.5394 18.061 12.5301 17.9816 12.5373 17.9029C12.5373 17.8284 12.5519 17.7546 12.5805 17.6857C12.609 17.6169 12.6508 17.5543 12.7035 17.5016C12.7562 17.4489 12.8188 17.4071 12.8876 17.3786C12.9565 17.35 13.0303 17.3354 13.1048 17.3354C13.1804 17.3323 13.2559 17.3445 13.3268 17.3711C13.3977 17.3976 13.4625 17.4381 13.5175 17.4902C13.6369 17.596 13.7109 17.7439 13.7239 17.9029C13.7239 17.9842 13.7079 18.0647 13.6768 18.1398C13.6457 18.2149 13.6001 18.2832 13.5426 18.3407C13.4851 18.3982 13.4168 18.4438 13.3417 18.4749C13.2666 18.506 13.1861 18.522 13.1048 18.522ZM13.1048 15.5812C12.9458 15.5682 12.7979 15.4942 12.692 15.3748C12.6078 15.2955 12.5498 15.1923 12.5258 15.0791C12.5018 14.9659 12.5131 14.848 12.558 14.7413C12.6029 14.6347 12.6793 14.5443 12.7771 14.4823C12.8748 14.4203 12.9892 14.3897 13.1048 14.3946C13.1835 14.3874 13.2629 14.3967 13.3378 14.422C13.4128 14.4473 13.4816 14.4879 13.5399 14.5414C13.5982 14.5948 13.6447 14.6598 13.6763 14.7323C13.708 14.8047 13.7242 14.883 13.7239 14.9621C13.712 15.1223 13.6429 15.273 13.5293 15.3866C13.4157 15.5002 13.265 15.5693 13.1048 15.5812ZM13.7239 16.4583C13.7007 16.6092 13.6268 16.7478 13.5142 16.851C13.4016 16.9541 13.2572 17.0158 13.1048 17.0258C13.0247 17.0258 12.9457 17.0072 12.8741 16.9713C12.8024 16.9355 12.7401 16.8835 12.692 16.8194C12.64 16.7644 12.5995 16.6996 12.5729 16.6287C12.5464 16.5578 12.5342 16.4823 12.5373 16.4067C12.5409 16.2556 12.5954 16.1102 12.692 15.9939C12.747 15.9419 12.8119 15.9014 12.8828 15.8748C12.9537 15.8483 13.0291 15.8361 13.1048 15.8392C13.1804 15.8361 13.2559 15.8483 13.3268 15.8748C13.3977 15.9014 13.4625 15.9419 13.5175 15.9939C13.5828 16.0523 13.635 16.1239 13.6706 16.204C13.7061 16.284 13.7243 16.3707 13.7239 16.4583ZM13.5175 13.9302C13.4727 13.9976 13.411 14.0521 13.3386 14.0883C13.2662 14.1245 13.1856 14.1411 13.1048 14.1366C12.9497 14.1236 12.8052 14.0527 12.7 13.938C12.5948 13.8232 12.5367 13.6731 12.5373 13.5175C12.5291 13.4409 12.5382 13.3636 12.5639 13.291C12.5895 13.2185 12.6311 13.1526 12.6855 13.0982C12.7399 13.0438 12.8058 13.0022 12.8784 12.9766C12.9509 12.9509 13.0283 12.9418 13.1048 12.9499C13.1835 12.9428 13.2629 12.9521 13.3378 12.9774C13.4128 13.0027 13.4816 13.0433 13.5399 13.0968C13.5982 13.1502 13.6447 13.2152 13.6763 13.2877C13.708 13.3601 13.7242 13.4384 13.7239 13.5175C13.7109 13.6765 13.6369 13.8244 13.5175 13.9302ZM12.1245 21.2049C12.0187 21.3243 11.8708 21.3982 11.7118 21.4112C11.5527 21.3982 11.4049 21.3243 11.299 21.2049C11.2148 21.1255 11.1567 21.0224 11.1328 20.9091C11.1088 20.7959 11.1201 20.6781 11.165 20.5714C11.2099 20.4647 11.2863 20.3743 11.3841 20.3124C11.4818 20.2504 11.5961 20.2198 11.7118 20.2246C11.8623 20.2246 12.0066 20.2844 12.1131 20.3908C12.2195 20.4973 12.2793 20.6416 12.2793 20.7921C12.2823 20.8678 12.2702 20.9433 12.2436 21.0141C12.217 21.085 12.1765 21.1499 12.1245 21.2049ZM12.1245 19.7603C12.0043 19.8593 11.8632 19.9299 11.7118 19.9666C11.5527 19.9536 11.4049 19.8797 11.299 19.7603C11.2148 19.6809 11.1567 19.5777 11.1328 19.4645C11.1088 19.3513 11.1201 19.2334 11.165 19.1268C11.2099 19.0201 11.2863 18.9297 11.3841 18.8678C11.4818 18.8058 11.5961 18.7751 11.7118 18.78C11.8623 18.78 12.0066 18.8398 12.1131 18.9462C12.2195 19.0526 12.2793 19.197 12.2793 19.3475C12.2951 19.4239 12.289 19.5032 12.2616 19.5763C12.2342 19.6493 12.1867 19.7131 12.1245 19.7603ZM11.7118 18.522C11.6194 18.5496 11.5218 18.5551 11.4269 18.5383C11.3319 18.5215 11.2422 18.4827 11.1649 18.4251C11.0876 18.3675 11.0248 18.2926 10.9816 18.2064C10.9383 18.1202 10.9158 18.0251 10.9158 17.9287C10.9158 17.8323 10.9383 17.7372 10.9816 17.651C11.0248 17.5648 11.0876 17.4899 11.1649 17.4323C11.2422 17.3747 11.3319 17.3359 11.4269 17.3191C11.5218 17.3022 11.6194 17.3078 11.7118 17.3354C11.7883 17.3272 11.8657 17.3363 11.9382 17.362C12.0108 17.3876 12.0767 17.4292 12.1311 17.4836C12.1855 17.538 12.227 17.6039 12.2527 17.6765C12.2783 17.749 12.2874 17.8264 12.2793 17.9029C12.2865 17.9816 12.2771 18.061 12.2519 18.136C12.2266 18.2109 12.1859 18.2797 12.1325 18.338C12.079 18.3963 12.014 18.4428 11.9416 18.4745C11.8691 18.5061 11.7908 18.5223 11.7118 18.522ZM11.299 15.9939C11.354 15.9419 11.4189 15.9014 11.4898 15.8748C11.5606 15.8483 11.6361 15.8361 11.7118 15.8392C11.7874 15.8361 11.8629 15.8483 11.9338 15.8748C12.0047 15.9014 12.0695 15.9419 12.1245 15.9939C12.2286 16.126 12.2833 16.2902 12.2793 16.4583C12.2675 16.6049 12.2039 16.7425 12.1 16.8465C11.996 16.9505 11.8584 17.014 11.7118 17.0258C11.631 17.0304 11.5503 17.0137 11.4779 16.9775C11.4055 16.9413 11.3439 16.8868 11.299 16.8194C11.1975 16.7059 11.1414 16.559 11.1414 16.4067C11.1414 16.2544 11.1975 16.1075 11.299 15.9939ZM11.1442 14.9621C11.1394 14.8464 11.17 14.7321 11.232 14.6344C11.294 14.5366 11.3844 14.4602 11.491 14.4153C11.5977 14.3704 11.7155 14.3591 11.8288 14.3831C11.942 14.4071 12.0452 14.4651 12.1245 14.5493C12.2219 14.6849 12.2758 14.8468 12.2793 15.0137C12.2793 15.1642 12.2195 15.3085 12.1131 15.415C12.0066 15.5214 11.8623 15.5812 11.7118 15.5812C11.631 15.5858 11.5503 15.5691 11.4779 15.5329C11.4055 15.4967 11.3439 15.4422 11.299 15.3748C11.247 15.3198 11.2065 15.255 11.1799 15.1841C11.1533 15.1132 11.1412 15.0377 11.1442 14.9621ZM11.7118 14.1366C11.5527 14.1236 11.4049 14.0496 11.299 13.9302C11.2148 13.8509 11.1567 13.7477 11.1328 13.6345C11.1088 13.5212 11.1201 13.4034 11.165 13.2967C11.2099 13.1901 11.2863 13.0997 11.3841 13.0377C11.4818 12.9757 11.5961 12.9451 11.7118 12.9499C11.7926 12.9454 11.8732 12.962 11.9456 12.9982C12.018 13.0344 12.0797 13.0889 12.1245 13.1563C12.1867 13.2034 12.2342 13.2672 12.2616 13.3403C12.289 13.4133 12.2951 13.4927 12.2793 13.5691C12.2793 13.7196 12.2195 13.8639 12.1131 13.9704C12.0066 14.0768 11.8623 14.1366 11.7118 14.1366ZM12.1245 12.4856C12.0797 12.553 12.018 12.6075 11.9456 12.6437C11.8732 12.6799 11.7926 12.6965 11.7118 12.692C11.6327 12.6923 11.5544 12.6761 11.482 12.6444C11.4095 12.6127 11.3445 12.5662 11.2911 12.5079C11.2376 12.4497 11.197 12.3808 11.1717 12.3059C11.1464 12.231 11.1371 12.1516 11.1442 12.0729C11.1361 11.9963 11.1452 11.919 11.1709 11.8464C11.1965 11.7739 11.2381 11.708 11.2925 11.6536C11.3469 11.5991 11.4128 11.5576 11.4853 11.5319C11.5579 11.5063 11.6353 11.4972 11.7118 11.5053C11.8623 11.5053 12.0066 11.5651 12.1131 11.6716C12.2195 11.778 12.2793 11.9223 12.2793 12.0729C12.2951 12.1492 12.289 12.2286 12.2616 12.3016C12.2342 12.3747 12.1867 12.4385 12.1245 12.4856ZM11.7118 11.2474C11.6361 11.2504 11.5606 11.2383 11.4898 11.2117C11.4189 11.1851 11.354 11.1446 11.299 11.0926C11.2017 10.957 11.1477 10.7951 11.1442 10.6282C11.1412 10.5526 11.1533 10.4771 11.1799 10.4062C11.2065 10.3353 11.247 10.2705 11.299 10.2155C11.3462 10.1533 11.41 10.1058 11.483 10.0784C11.5561 10.051 11.6354 10.0449 11.7118 10.0607C11.8674 10.0602 12.0175 10.1183 12.1323 10.2234C12.247 10.3286 12.3179 10.4731 12.3309 10.6282C12.319 10.7885 12.2499 10.9391 12.1363 11.0528C12.0227 11.1664 11.872 11.2354 11.7118 11.2474ZM13.5175 22.7011C13.4625 22.7531 13.3977 22.7936 13.3268 22.8202C13.2559 22.8468 13.1804 22.8589 13.1048 22.8559C13.0291 22.8589 12.9537 22.8468 12.8828 22.8202C12.8119 22.7936 12.747 22.7531 12.692 22.7011C12.5947 22.5655 12.5407 22.4036 12.5373 22.2367C12.5373 22.1622 12.5519 22.0884 12.5805 22.0196C12.609 21.9507 12.6508 21.8881 12.7035 21.8354C12.7562 21.7827 12.8188 21.7409 12.8876 21.7124C12.9565 21.6839 13.0303 21.6692 13.1048 21.6692C13.1835 21.662 13.2629 21.6714 13.3378 21.6967C13.4128 21.7219 13.4816 21.7626 13.5399 21.816C13.5982 21.8695 13.6447 21.9345 13.6763 22.0069C13.708 22.0794 13.7242 22.1577 13.7239 22.2367C13.728 22.3248 13.7114 22.4127 13.6756 22.4933C13.6398 22.5739 13.5857 22.645 13.5175 22.7011ZM14.0335 13.1047C14.169 13.0074 14.3309 12.9534 14.4978 12.9499C14.6483 12.9499 14.7927 13.0097 14.8991 13.1162C15.0055 13.2226 15.0653 13.3669 15.0653 13.5175C15.0653 13.6817 15.0001 13.8391 14.884 13.9552C14.7679 14.0714 14.6104 14.1366 14.4462 14.1366C14.3308 14.1278 14.2202 14.0868 14.127 14.0183C14.0337 13.9499 13.9615 13.8566 13.9185 13.7492C13.8755 13.6418 13.8635 13.5244 13.8838 13.4105C13.9042 13.2966 13.956 13.1907 14.0335 13.1047ZM15.0653 22.2883C15.0653 22.4388 15.0055 22.5832 14.8991 22.6896C14.7927 22.7961 14.6483 22.8559 14.4978 22.8559C14.4191 22.863 14.3397 22.8537 14.2648 22.8284C14.1898 22.8031 14.121 22.7625 14.0627 22.709C14.0044 22.6556 13.9579 22.5906 13.9263 22.5181C13.8946 22.4457 13.8784 22.3674 13.8787 22.2883C13.8746 22.2002 13.8912 22.1124 13.927 22.0318C13.9628 21.9512 14.0169 21.88 14.0851 21.824C14.167 21.7345 14.2754 21.6736 14.3945 21.6503C14.5135 21.627 14.6369 21.6424 14.7466 21.6944C14.8562 21.7463 14.9463 21.832 15.0037 21.9389C15.0611 22.0458 15.0827 22.1683 15.0653 22.2883ZM14.4462 15.5812C14.2914 15.5812 14.1883 15.478 14.0335 15.3748C13.9642 15.2541 13.9376 15.1135 13.958 14.9758C13.9785 14.8381 14.0447 14.7112 14.1461 14.6158C14.2475 14.5204 14.3781 14.4619 14.5168 14.4499C14.6555 14.4378 14.7942 14.4729 14.9106 14.5493C15.0079 14.6849 15.0619 14.8468 15.0653 15.0137C15.0657 15.0927 15.0495 15.171 15.0178 15.2435C14.9861 15.3159 14.9396 15.3809 14.8813 15.4344C14.823 15.4878 14.7542 15.5285 14.6793 15.5538C14.6043 15.579 14.525 15.5884 14.4462 15.5812ZM15.0653 16.4583C15.0657 16.5374 15.0495 16.6156 15.0178 16.6881C14.9861 16.7605 14.9396 16.8256 14.8813 16.879C14.823 16.9324 14.7542 16.9731 14.6793 16.9984C14.6043 17.0237 14.525 17.033 14.4462 17.0258C14.3654 17.0304 14.2848 17.0137 14.2124 16.9775C14.14 16.9413 14.0783 16.8868 14.0335 16.8194C13.9642 16.6987 13.9376 16.5581 13.958 16.4204C13.9785 16.2827 14.0447 16.1559 14.1461 16.0604C14.2475 15.965 14.3781 15.9066 14.5168 15.8945C14.6555 15.8824 14.7942 15.9175 14.9106 15.9939C15.0079 16.1295 15.0619 16.2914 15.0653 16.4583ZM14.0335 17.4902C14.147 17.3886 14.2939 17.3325 14.4462 17.3325C14.5985 17.3325 14.7455 17.3886 14.859 17.4902C14.9264 17.535 14.9809 17.5967 15.0171 17.6691C15.0533 17.7415 15.0699 17.8221 15.0653 17.9029C15.0554 18.0553 14.9937 18.1997 14.8905 18.3123C14.7873 18.4249 14.6488 18.4989 14.4978 18.522C14.3336 18.522 14.1761 18.4568 14.06 18.3407C13.9439 18.2246 13.8787 18.0671 13.8787 17.9029C13.8757 17.8273 13.8878 17.7518 13.9144 17.6809C13.941 17.61 13.9814 17.5451 14.0335 17.4902ZM15.0653 19.3475C15.0653 19.4288 15.0493 19.5093 15.0182 19.5844C14.9871 19.6596 14.9415 19.7278 14.884 19.7853C14.8265 19.8428 14.7583 19.8884 14.6831 19.9195C14.608 19.9506 14.5275 19.9666 14.4462 19.9666C14.2953 19.9435 14.1567 19.8695 14.0536 19.7569C13.9504 19.6443 13.8887 19.4999 13.8787 19.3475C13.8741 19.2667 13.8908 19.1861 13.927 19.1137C13.9632 19.0413 14.0177 18.9796 14.0851 18.9348C14.1382 18.8801 14.2027 18.8378 14.2741 18.8111C14.3454 18.7843 14.4219 18.7737 14.4978 18.78C14.6483 18.78 14.7927 18.8398 14.8991 18.9462C15.0055 19.0526 15.0653 19.197 15.0653 19.3475ZM14.0851 20.3794C14.1401 20.3274 14.2049 20.2869 14.2758 20.2603C14.3467 20.2337 14.4222 20.2216 14.4978 20.2246C14.6483 20.2246 14.7927 20.2844 14.8991 20.3908C15.0055 20.4973 15.0653 20.6416 15.0653 20.7921C15.0653 20.9563 15.0001 21.1138 14.884 21.2299C14.7679 21.346 14.6104 21.4112 14.4462 21.4112C14.2872 21.3982 14.1393 21.3243 14.0335 21.2049C13.9814 21.1499 13.941 21.085 13.9144 21.0141C13.8878 20.9433 13.8757 20.8678 13.8787 20.7921C13.8741 20.7113 13.8908 20.6307 13.927 20.5583C13.9632 20.4859 14.0177 20.4242 14.0851 20.3794ZM14.859 24.2489C14.8137 24.2995 14.758 24.3396 14.6956 24.3664C14.6332 24.3931 14.5657 24.4058 14.4978 24.4037H14.4462C14.2953 24.3805 14.1567 24.3065 14.0536 24.1939C13.9504 24.0813 13.8887 23.9369 13.8787 23.7845C13.9303 23.4234 14.1883 23.1654 14.4978 23.217C14.5743 23.2089 14.6517 23.218 14.7243 23.2436C14.7968 23.2693 14.8627 23.3108 14.9171 23.3652C14.9715 23.4197 15.0131 23.4855 15.0387 23.5581C15.0644 23.6306 15.0735 23.708 15.0653 23.7845C15.0739 23.8732 15.0594 23.9625 15.0233 24.0439C14.9871 24.1252 14.9305 24.1959 14.859 24.2489ZM15.8392 11.5053C15.9593 11.488 16.0818 11.5096 16.1887 11.567C16.2956 11.6243 16.3813 11.7144 16.4332 11.8241C16.4851 11.9337 16.5006 12.0571 16.4773 12.1762C16.4539 12.2952 16.3931 12.4037 16.3036 12.4856C16.171 12.5962 16.0102 12.6677 15.8392 12.692C15.6841 12.679 15.5396 12.6081 15.4344 12.4934C15.3293 12.3786 15.2712 12.2285 15.2717 12.0729C15.2717 11.9223 15.3315 11.778 15.4379 11.6716C15.5444 11.5651 15.6887 11.5053 15.8392 11.5053ZM15.8908 19.9666H15.8392C15.6802 19.9536 15.5323 19.8797 15.4265 19.7603C15.3745 19.7053 15.334 19.6404 15.3074 19.5695C15.2808 19.4986 15.2687 19.4232 15.2717 19.3475C15.2717 19.197 15.3315 19.0526 15.4379 18.9462C15.5444 18.8398 15.6887 18.78 15.8392 18.78C15.9149 18.777 15.9904 18.7891 16.0613 18.8157C16.1321 18.8422 16.197 18.8827 16.252 18.9348C16.3194 18.9796 16.3739 19.0413 16.4101 19.1137C16.4463 19.1861 16.4629 19.2667 16.4584 19.3475C16.4484 19.4999 16.3867 19.6443 16.2835 19.7569C16.1803 19.8695 16.0418 19.9435 15.8908 19.9666ZM16.4584 20.7921C16.4584 20.8734 16.4423 20.9539 16.4112 21.0291C16.3801 21.1042 16.3345 21.1724 16.277 21.2299C16.2195 21.2874 16.1513 21.333 16.0762 21.3641C16.001 21.3952 15.9205 21.4112 15.8392 21.4112C15.6841 21.3983 15.5396 21.3274 15.4344 21.2126C15.3293 21.0979 15.2712 20.9478 15.2717 20.7921C15.2687 20.7165 15.2808 20.641 15.3074 20.5701C15.334 20.4992 15.3745 20.4344 15.4265 20.3794L15.8392 20.2246C16.0061 20.2281 16.168 20.282 16.3036 20.3794C16.4002 20.4956 16.4547 20.641 16.4584 20.7921ZM16.3036 18.3156C16.1833 18.4147 16.0422 18.4853 15.8908 18.522H15.8392C15.6802 18.509 15.5323 18.4351 15.4265 18.3156C15.3745 18.2606 15.334 18.1958 15.3074 18.1249C15.2808 18.054 15.2687 17.9785 15.2717 17.9029C15.2717 17.7524 15.3315 17.608 15.4379 17.5016C15.5444 17.3952 15.6887 17.3354 15.8392 17.3354C15.9949 17.3348 16.145 17.3929 16.2597 17.4981C16.3745 17.6033 16.4454 17.7478 16.4584 17.9029C16.4614 17.9785 16.4493 18.054 16.4227 18.1249C16.3961 18.1958 16.3556 18.2606 16.3036 18.3156ZM15.4265 15.9939C15.4815 15.9419 15.5463 15.9014 15.6172 15.8748C15.6881 15.8483 15.7636 15.8361 15.8392 15.8392C15.918 15.832 15.9974 15.8413 16.0723 15.8666C16.1472 15.8919 16.216 15.9326 16.2743 15.986C16.3326 16.0394 16.3791 16.1044 16.4108 16.1769C16.4425 16.2493 16.4587 16.3276 16.4584 16.4067C16.4341 16.5776 16.3626 16.7384 16.252 16.871C16.197 16.9231 16.1321 16.9636 16.0613 16.9901C15.9904 17.0167 15.9149 17.0288 15.8392 17.0258C15.6841 17.0128 15.5396 16.9419 15.4344 16.8272C15.3293 16.7125 15.2712 16.5623 15.2717 16.4067C15.2687 16.331 15.2808 16.2556 15.3074 16.1847C15.334 16.1138 15.3745 16.0489 15.4265 15.9939ZM15.2717 14.9621C15.2717 14.8876 15.2864 14.8138 15.3149 14.7449C15.3434 14.676 15.3852 14.6135 15.4379 14.5608C15.4906 14.5081 15.5532 14.4663 15.6221 14.4378C15.6909 14.4092 15.7647 14.3946 15.8392 14.3946C15.9152 14.3883 15.9916 14.3989 16.063 14.4256C16.1343 14.4524 16.1989 14.4946 16.252 14.5493C16.3161 14.5974 16.3681 14.6597 16.4039 14.7313C16.4397 14.803 16.4584 14.882 16.4584 14.9621C16.4584 15.0422 16.4397 15.1212 16.4039 15.1928C16.3681 15.2645 16.3161 15.3268 16.252 15.3748C16.2071 15.4422 16.1455 15.4967 16.0731 15.5329C16.0007 15.5691 15.9201 15.5858 15.8392 15.5812C15.6841 15.5682 15.5396 15.4973 15.4344 15.3826C15.3293 15.2679 15.2712 15.1177 15.2717 14.9621ZM16.252 13.9302C16.2071 13.9976 16.1455 14.0521 16.0731 14.0883C16.0007 14.1245 15.9201 14.1411 15.8392 14.1366C15.6841 14.1236 15.5396 14.0527 15.4344 13.938C15.3293 13.8232 15.2712 13.6731 15.2717 13.5175C15.315 13.391 15.3981 13.282 15.5085 13.2066C15.6189 13.1313 15.7508 13.0937 15.8843 13.0995C16.0179 13.1053 16.146 13.1542 16.2494 13.2388C16.3529 13.3235 16.4262 13.4393 16.4584 13.5691C16.4544 13.6412 16.4337 13.7113 16.3979 13.774C16.362 13.8367 16.3121 13.8902 16.252 13.9302ZM16.3036 22.7011C16.168 22.7984 16.0061 22.8524 15.8392 22.8559C15.7636 22.8589 15.6881 22.8468 15.6172 22.8202C15.5463 22.7936 15.4815 22.7531 15.4265 22.7011C15.3291 22.5655 15.2752 22.4036 15.2717 22.2367C15.2717 22.0862 15.3315 21.9419 15.4379 21.8354C15.5444 21.729 15.6887 21.6692 15.8392 21.6692C15.918 21.662 15.9974 21.6714 16.0723 21.6967C16.1472 21.7219 16.216 21.7626 16.2743 21.816C16.3326 21.8695 16.3791 21.9345 16.4108 22.0069C16.4425 22.0794 16.4587 22.1577 16.4584 22.2367C16.4549 22.4036 16.4009 22.5655 16.3036 22.7011ZM17.2839 21.4112C17.2025 21.4112 17.122 21.3952 17.0469 21.3641C16.9718 21.333 16.9036 21.2874 16.8461 21.2299C16.7886 21.1724 16.743 21.1042 16.7119 21.0291C16.6807 20.9539 16.6647 20.8734 16.6647 20.7921C16.6683 20.641 16.7229 20.4956 16.8195 20.3794C16.9551 20.282 17.117 20.2281 17.2839 20.2246C17.4386 20.173 17.5418 20.2762 17.6966 20.3794C17.7741 20.4653 17.8259 20.5713 17.8462 20.6852C17.8666 20.7991 17.8546 20.9164 17.8116 21.0239C17.7686 21.1313 17.6964 21.2245 17.6031 21.293C17.5098 21.3615 17.3992 21.4024 17.2839 21.4112ZM17.2839 19.9666C17.1236 19.9547 16.973 19.8857 16.8593 19.772C16.7457 19.6584 16.6766 19.5078 16.6647 19.3475C16.6602 19.2667 16.6768 19.1861 16.713 19.1137C16.7492 19.0413 16.8037 18.9796 16.8711 18.9348C16.9261 18.8827 16.991 18.8422 17.0618 18.8157C17.1327 18.7891 17.2082 18.777 17.2839 18.78C17.3595 18.777 17.435 18.7891 17.5059 18.8157C17.5767 18.8422 17.6416 18.8827 17.6966 18.9348C17.7932 19.051 17.8478 19.1964 17.8514 19.3475C17.8586 19.4263 17.8492 19.5056 17.8239 19.5806C17.7987 19.6555 17.758 19.7243 17.7046 19.7826C17.6511 19.8409 17.5861 19.8874 17.5136 19.9191C17.4412 19.9508 17.3629 19.967 17.2839 19.9666ZM17.2839 18.522C17.2025 18.522 17.122 18.506 17.0469 18.4749C16.9718 18.4438 16.9036 18.3982 16.8461 18.3407C16.7886 18.2832 16.743 18.2149 16.7119 18.1398C16.6807 18.0647 16.6647 17.9842 16.6647 17.9029C16.678 17.7538 16.7315 17.6112 16.8195 17.4902L17.2323 17.3354C17.311 17.3282 17.3904 17.3375 17.4653 17.3628C17.5402 17.3881 17.6091 17.4288 17.6673 17.4822C17.7256 17.5356 17.7721 17.6007 17.8038 17.6731C17.8355 17.7455 17.8517 17.8238 17.8514 17.9029C17.8414 18.0553 17.7797 18.1997 17.6765 18.3123C17.5733 18.4249 17.4348 18.4989 17.2839 18.522ZM16.8195 15.9939L17.2323 15.8392H17.2839C17.3584 15.8392 17.4322 15.8538 17.501 15.8824C17.5699 15.9109 17.6325 15.9527 17.6852 16.0054C17.7379 16.0581 17.7797 16.1207 17.8082 16.1895C17.8367 16.2584 17.8514 16.3322 17.8514 16.4067C17.8518 16.4943 17.8336 16.581 17.798 16.661C17.7624 16.7411 17.7103 16.8126 17.645 16.871C17.5998 16.9217 17.544 16.9618 17.4816 16.9885C17.4192 17.0152 17.3517 17.028 17.2839 17.0258H17.2323C17.0772 17.0128 16.9326 16.9419 16.8275 16.8272C16.7223 16.7125 16.6642 16.5623 16.6647 16.4067C16.678 16.2576 16.7315 16.115 16.8195 15.9939ZM16.6647 14.9621C16.6683 14.811 16.7229 14.6655 16.8195 14.5493C16.9358 14.4729 17.0746 14.4378 17.2133 14.4499C17.352 14.4619 17.4826 14.5204 17.5839 14.6158C17.6853 14.7112 17.7516 14.8381 17.772 14.9758C17.7925 15.1135 17.7659 15.2541 17.6966 15.3748C17.5418 15.478 17.4386 15.5812 17.2839 15.5812H17.2323C17.0813 15.558 16.9428 15.484 16.8396 15.3715C16.7364 15.2589 16.6747 15.1145 16.6647 14.9621ZM17.6966 13.9302C17.6485 13.9943 17.5862 14.0463 17.5146 14.0821C17.4429 14.1179 17.3639 14.1366 17.2839 14.1366C17.1236 14.1247 16.973 14.0556 16.8593 13.942C16.7457 13.8284 16.6766 13.6777 16.6647 13.5175C16.6647 13.3669 16.7245 13.2226 16.831 13.1162C16.9374 13.0097 17.0817 12.9499 17.2323 12.9499C17.3161 12.9428 17.4005 12.9529 17.4804 12.9795C17.5602 13.0061 17.6338 13.0487 17.6966 13.1047C17.7981 13.2182 17.8543 13.3652 17.8543 13.5175C17.8543 13.6698 17.7981 13.8167 17.6966 13.9302ZM16.6647 12.0729C16.6617 11.9972 16.6738 11.9217 16.7004 11.8508C16.727 11.78 16.7675 11.7151 16.8195 11.6601C16.8823 11.6041 16.9559 11.5615 17.0357 11.5349C17.1156 11.5083 17.2 11.4982 17.2839 11.5053C17.4344 11.5053 17.5787 11.5651 17.6852 11.6716C17.7916 11.778 17.8514 11.9223 17.8514 12.0729C17.8544 12.1485 17.8423 12.224 17.8157 12.2949C17.7891 12.3658 17.7486 12.4306 17.6966 12.4856C17.564 12.5962 17.4032 12.6677 17.2323 12.692C17.0813 12.6688 16.9428 12.5948 16.8396 12.4822C16.7364 12.3697 16.6747 12.2252 16.6647 12.0729ZM17.6966 11.041C17.5907 11.1604 17.4429 11.2343 17.2839 11.2474H17.2323C17.0772 11.2344 16.9326 11.1635 16.8275 11.0487C16.7223 10.934 16.6642 10.7839 16.6647 10.6282C16.6602 10.5474 16.6768 10.4668 16.713 10.3944C16.7492 10.322 16.8037 10.2603 16.8711 10.2155C16.9182 10.1533 16.982 10.1058 17.0551 10.0784C17.1281 10.051 17.2075 10.0449 17.2839 10.0607C17.4344 10.0607 17.5787 10.1205 17.6852 10.2269C17.7916 10.3334 17.8514 10.4777 17.8514 10.6282C17.8544 10.7039 17.8423 10.7794 17.8157 10.8503C17.7891 10.9211 17.7486 10.986 17.6966 11.041ZM18.6769 19.9666C18.5178 19.9536 18.37 19.8797 18.2641 19.7603C18.1967 19.7154 18.1422 19.6537 18.106 19.5813C18.0698 19.5089 18.0532 19.4283 18.0578 19.3475C18.0707 19.1924 18.1416 19.0479 18.2564 18.9427C18.3711 18.8375 18.5212 18.7794 18.6769 18.78C18.7514 18.78 18.8252 18.7947 18.8941 18.8232C18.9629 18.8517 19.0255 18.8935 19.0782 18.9462C19.1309 18.9989 19.1727 19.0615 19.2012 19.1303C19.2297 19.1992 19.2444 19.273 19.2444 19.3475C19.2449 19.5032 19.1868 19.6533 19.0817 19.768C18.9765 19.8828 18.832 19.9537 18.6769 19.9666ZM18.6769 18.522C18.5127 18.522 18.3552 18.4568 18.2391 18.3407C18.123 18.2246 18.0578 18.0671 18.0578 17.9029C18.0532 17.8221 18.0698 17.7415 18.106 17.6691C18.1422 17.5967 18.1967 17.535 18.2641 17.4902C18.3191 17.4381 18.384 17.3976 18.4549 17.3711C18.5257 17.3445 18.6012 17.3323 18.6769 17.3354C18.8046 17.3735 18.9167 17.4518 18.9964 17.5587C19.0761 17.6656 19.1191 17.7954 19.1191 17.9287C19.1191 18.062 19.0761 18.1918 18.9964 18.2987C18.9167 18.4056 18.8046 18.4839 18.6769 18.522ZM19.0896 15.4264C18.9734 15.523 18.828 15.5776 18.6769 15.5812H18.6253C18.4702 15.5682 18.3257 15.4973 18.2205 15.3826C18.1153 15.2679 18.0572 15.1177 18.0578 14.9621C18.0708 14.803 18.1447 14.6552 18.2641 14.5493C18.3191 14.4973 18.384 14.4568 18.4549 14.4302C18.5257 14.4036 18.6012 14.3915 18.6769 14.3946C18.7525 14.3915 18.828 14.4036 18.8989 14.4302C18.9698 14.4568 19.0346 14.4973 19.0896 14.5493C19.1456 14.6121 19.1882 14.6857 19.2148 14.7656C19.2415 14.8454 19.2515 14.9298 19.2444 15.0137C19.2408 15.1648 19.1862 15.3102 19.0896 15.4264ZM19.2444 16.4583C19.2474 16.5339 19.2353 16.6094 19.2087 16.6803C19.1821 16.7512 19.1416 16.816 19.0896 16.871C18.9734 16.9677 18.828 17.0222 18.6769 17.0258H18.6253C18.5318 17.049 18.4343 17.05 18.3404 17.0289C18.2465 17.0078 18.1588 16.9651 18.0843 16.9041C18.0098 16.8432 17.9505 16.7657 17.9112 16.6778C17.8719 16.59 17.8536 16.4942 17.8577 16.398C17.8619 16.3018 17.8885 16.208 17.9353 16.1239C17.9821 16.0397 18.0478 15.9677 18.1274 15.9135C18.2069 15.8592 18.2979 15.8242 18.3933 15.8113C18.4887 15.7985 18.5858 15.808 18.6769 15.8392C18.7525 15.8361 18.828 15.8483 18.8989 15.8748C18.9698 15.9014 19.0346 15.9419 19.0896 15.9939C19.187 16.1295 19.2409 16.2914 19.2444 16.4583ZM18.6769 14.1366C18.5961 14.1411 18.5154 14.1245 18.443 14.0883C18.3706 14.0521 18.309 13.9976 18.2641 13.9302C18.1447 13.8244 18.0708 13.6765 18.0578 13.5175C18.0574 13.4384 18.0736 13.3601 18.1053 13.2877C18.137 13.2152 18.1835 13.1502 18.2418 13.0968C18.3001 13.0433 18.3689 13.0027 18.4438 12.9774C18.5187 12.9521 18.5981 12.9428 18.6769 12.9499C18.8046 12.988 18.9167 13.0663 18.9964 13.1733C19.0761 13.2802 19.1191 13.4099 19.1191 13.5433C19.1191 13.6766 19.0761 13.8064 18.9964 13.9133C18.9167 14.0202 18.8046 14.0985 18.6769 14.1366ZM18.6769 12.692C18.5178 12.6789 18.37 12.605 18.2641 12.4856C18.1967 12.4408 18.1422 12.3791 18.106 12.3067C18.0698 12.2343 18.0532 12.1537 18.0578 12.0729C18.0707 11.9178 18.1416 11.7732 18.2564 11.6681C18.3711 11.5629 18.5212 11.5048 18.6769 11.5053C18.8046 11.5434 18.9167 11.6217 18.9964 11.7286C19.0761 11.8355 19.1191 11.9653 19.1191 12.0986C19.1191 12.232 19.0761 12.3618 18.9964 12.4687C18.9167 12.5756 18.8046 12.6539 18.6769 12.692ZM19.0896 11.041C19.0448 11.1084 18.9831 11.1629 18.9107 11.1991C18.8383 11.2353 18.7577 11.2519 18.6769 11.2474C18.5166 11.2354 18.366 11.1664 18.2524 11.0528C18.1387 10.9391 18.0697 10.7885 18.0578 10.6282C18.0497 10.5234 18.0686 10.4182 18.1125 10.3226C18.1564 10.2271 18.2239 10.1443 18.3087 10.082C18.3935 10.0198 18.4927 9.9802 18.5971 9.96695C18.7014 9.9537 18.8074 9.96724 18.905 10.0063C19.0027 10.0454 19.0887 10.1086 19.1551 10.1902C19.2216 10.2717 19.2661 10.3689 19.2846 10.4724C19.303 10.5759 19.2948 10.6825 19.2607 10.7819C19.2266 10.8814 19.1677 10.9706 19.0896 11.041ZM20.1215 18.522C19.9624 18.509 19.8146 18.4351 19.7087 18.3156C19.6567 18.2606 19.6162 18.1958 19.5896 18.1249C19.5631 18.054 19.5509 17.9785 19.554 17.9029C19.554 17.8284 19.5686 17.7546 19.5972 17.6857C19.6257 17.6169 19.6675 17.5543 19.7202 17.5016C19.7729 17.4489 19.8354 17.4071 19.9043 17.3786C19.9732 17.35 20.047 17.3354 20.1215 17.3354C20.2002 17.3282 20.2796 17.3375 20.3545 17.3628C20.4295 17.3881 20.4983 17.4288 20.5566 17.4822C20.6149 17.5356 20.6613 17.6007 20.693 17.6731C20.7247 17.7455 20.7409 17.8238 20.7406 17.9029C20.7406 18.0671 20.6754 18.2246 20.5593 18.3407C20.4432 18.4568 20.2857 18.522 20.1215 18.522ZM20.1215 15.8392C20.1971 15.8361 20.2726 15.8483 20.3435 15.8748C20.4144 15.9014 20.4792 15.9419 20.5342 15.9939C20.6023 16.05 20.6565 16.1211 20.6923 16.2017C20.7281 16.2823 20.7447 16.3702 20.7406 16.4583C20.7174 16.6092 20.6434 16.7478 20.5309 16.851C20.4183 16.9541 20.2739 17.0158 20.1215 17.0258C20.0407 17.0304 19.9601 17.0137 19.8877 16.9775C19.8153 16.9413 19.7536 16.8868 19.7087 16.8194C19.6567 16.7644 19.6162 16.6996 19.5896 16.6287C19.5631 16.5578 19.5509 16.4823 19.554 16.4067C19.554 16.3322 19.5686 16.2584 19.5972 16.1895C19.6257 16.1207 19.6675 16.0581 19.7202 16.0054C19.7729 15.9527 19.8354 15.9109 19.9043 15.8824C19.9732 15.8538 20.047 15.8392 20.1215 15.8392ZM19.554 14.9621C19.554 14.8876 19.5686 14.8138 19.5972 14.7449C19.6257 14.676 19.6675 14.6135 19.7202 14.5608C19.7729 14.5081 19.8354 14.4663 19.9043 14.4378C19.9732 14.4092 20.047 14.3946 20.1215 14.3946C20.1971 14.3915 20.2726 14.4036 20.3435 14.4302C20.4144 14.4568 20.4792 14.4973 20.5342 14.5493C20.6374 14.7041 20.7406 14.8073 20.7406 14.9621C20.726 15.1357 20.6533 15.2993 20.5342 15.4264C20.4792 15.4784 20.4144 15.5189 20.3435 15.5455C20.2726 15.5721 20.1971 15.5842 20.1215 15.5812C19.9664 15.5682 19.8219 15.4973 19.7167 15.3826C19.6115 15.2679 19.5534 15.1177 19.554 14.9621ZM20.7406 13.5175C20.7406 13.6817 20.6754 13.8391 20.5593 13.9552C20.4432 14.0714 20.2857 14.1366 20.1215 14.1366C19.9664 14.1236 19.8219 14.0527 19.7167 13.938C19.6115 13.8232 19.5534 13.6731 19.554 13.5175C19.5458 13.4409 19.5549 13.3636 19.5806 13.291C19.6062 13.2185 19.6478 13.1526 19.7022 13.0982C19.7566 13.0438 19.8225 13.0022 19.895 12.9766C19.9676 12.9509 20.045 12.9418 20.1215 12.9499C20.1974 12.9436 20.2739 12.9543 20.3452 12.981C20.4166 13.0078 20.4811 13.05 20.5342 13.1047C20.6016 13.1496 20.6561 13.2112 20.6923 13.2836C20.7285 13.356 20.7452 13.4366 20.7406 13.5175ZM20.1215 12.692C20.0291 12.7195 19.9315 12.7251 19.8366 12.7083C19.7416 12.6914 19.6519 12.6527 19.5746 12.595C19.4973 12.5374 19.4345 12.4625 19.3913 12.3763C19.348 12.2902 19.3255 12.1951 19.3255 12.0986C19.3255 12.0022 19.348 11.9071 19.3913 11.821C19.4345 11.7348 19.4973 11.6599 19.5746 11.6023C19.6519 11.5446 19.7416 11.5059 19.8366 11.489C19.9315 11.4722 20.0291 11.4778 20.1215 11.5053C20.1971 11.5023 20.2726 11.5144 20.3435 11.541C20.4144 11.5676 20.4792 11.6081 20.5342 11.6601C20.6016 11.7049 20.6561 11.7666 20.6923 11.839C20.7285 11.9114 20.7452 11.992 20.7406 12.0729C20.7406 12.2371 20.6754 12.3945 20.5593 12.5106C20.4432 12.6267 20.2857 12.692 20.1215 12.692ZM20.5342 11.041C20.4894 11.1084 20.4277 11.1629 20.3553 11.1991C20.2829 11.2353 20.2023 11.2519 20.1215 11.2474C19.9664 11.2344 19.8219 11.1635 19.7167 11.0487C19.6115 10.934 19.5534 10.7839 19.554 10.6282C19.5458 10.5517 19.5549 10.4744 19.5806 10.4018C19.6062 10.3292 19.6478 10.2634 19.7022 10.2089C19.7566 10.1545 19.8225 10.113 19.895 10.0873C19.9676 10.0617 20.045 10.0526 20.1215 10.0607C20.2002 10.0535 20.2796 10.0629 20.3545 10.0882C20.4295 10.1134 20.4983 10.1541 20.5566 10.2075C20.6149 10.261 20.6613 10.326 20.693 10.3984C20.7247 10.4709 20.7409 10.5492 20.7406 10.6282C20.7276 10.7873 20.6536 10.9351 20.5342 11.041ZM21.5145 17.0258C21.3594 17.0128 21.2149 16.9419 21.1097 16.8272C21.0045 16.7125 20.9464 16.5623 20.947 16.4067C20.9424 16.3259 20.9591 16.2453 20.9953 16.1729C21.0315 16.1005 21.086 16.0388 21.1534 15.9939C21.2083 15.9419 21.2732 15.9014 21.3441 15.8748C21.415 15.8483 21.4905 15.8361 21.5661 15.8392C21.6469 15.8346 21.7275 15.8512 21.7999 15.8874C21.8723 15.9236 21.934 15.9781 21.9788 16.0455C22.0309 16.1005 22.0714 16.1654 22.0979 16.2363C22.1245 16.3072 22.1367 16.3826 22.1336 16.4583C22.1207 16.6134 22.0497 16.7579 21.935 16.8631C21.8203 16.9683 21.6701 17.0264 21.5145 17.0258ZM21.5145 15.5812C21.4344 15.5812 21.3554 15.5626 21.2838 15.5267C21.2121 15.4909 21.1498 15.4389 21.1018 15.3748C21.0002 15.2613 20.9441 15.1144 20.9441 14.9621C20.9441 14.8098 21.0002 14.6628 21.1018 14.5493L21.5661 14.3946C21.6417 14.3915 21.7172 14.4036 21.7881 14.4302C21.859 14.4568 21.9238 14.4973 21.9788 14.5493C22.0829 14.6814 22.1376 14.8456 22.1336 15.0137C22.1207 15.1688 22.0497 15.3133 21.935 15.4185C21.8203 15.5236 21.6701 15.5817 21.5145 15.5812ZM21.9272 13.9302C21.8824 13.9976 21.8207 14.0521 21.7483 14.0883C21.6759 14.1245 21.5953 14.1411 21.5145 14.1366C21.3594 14.1236 21.2149 14.0527 21.1097 13.938C21.0045 13.8232 20.9464 13.6731 20.947 13.5175C20.9389 13.4409 20.9479 13.3636 20.9736 13.291C20.9992 13.2185 21.0408 13.1526 21.0952 13.0982C21.1496 13.0438 21.2155 13.0022 21.2881 12.9766C21.3606 12.9509 21.438 12.9418 21.5145 12.9499C21.5933 12.9428 21.6726 12.9521 21.7476 12.9774C21.8225 13.0027 21.8913 13.0433 21.9496 13.0968C22.0079 13.1502 22.0544 13.2152 22.0861 13.2877C22.1177 13.3601 22.134 13.4384 22.1336 13.5175C22.1382 13.5983 22.1215 13.6789 22.0853 13.7513C22.0491 13.8237 21.9946 13.8854 21.9272 13.9302ZM21.9788 12.4856C21.8463 12.5962 21.6855 12.6677 21.5145 12.692C21.3729 12.6913 21.2357 12.6421 21.126 12.5526C21.0163 12.4631 20.9405 12.3386 20.9114 12.2C20.8824 12.0614 20.9017 11.917 20.9662 11.7909C21.0307 11.6648 21.1365 11.5646 21.2659 11.5071C21.3954 11.4496 21.5406 11.4382 21.6774 11.4748C21.8142 11.5114 21.9344 11.5938 22.0178 11.7083C22.1012 11.8228 22.1428 11.9624 22.1357 12.1038C22.1286 12.2453 22.0733 12.38 21.9788 12.4856Z" fill="#EE0033"/>
</svg>
